<?xml version="1.0" encoding="UTF-8"?>
<svg width="265px" height="295px" viewBox="0 0 265 295" version="1.1" xmlns="http://www.w3.org/2000/svg" xmlns:xlink="http://www.w3.org/1999/xlink">
    <!-- Generator: Sketch 55.2 (78181) - https://sketchapp.com -->
    <title>crunchbot</title>
    <desc>Created with Sketch.</desc>
    <defs>
        <path d="M3.4511955,19 C3.00981839,19 2.55659162,18.9426476 2.0915016,18.8279412 C1.62641159,18.7132347 1.27973789,18.5852948 1.05147009,18.4441176 C-0.11778933,17.6852903 -0.311864647,15.6117816 0.469238319,12.2235294 L0.969629904,10.0529412 C1.13235969,9.34705529 1.2878284,8.71617925 1.4360407,8.16029412 C1.584253,7.60440899 1.76371288,7 1.97442572,6.34705882 C2.19327505,5.65882009 2.41272021,5.09853157 2.63276778,4.66617647 C2.85281535,4.23382137 3.16633039,3.74412038 3.57332232,3.19705882 C3.93205257,2.68529156 4.31950555,2.28823671 4.7356929,2.00588235 C5.15188025,1.723528 5.66321794,1.48529509 6.26972132,1.29117647 C6.81603692,1.09705785 7.46034308,1 8.20265914,1 C8.50359808,1 8.72007583,1.06176409 8.85209889,1.18529412 C8.98412194,1.30882415 9.02775747,1.46764609 8.98300678,1.66176471 C8.94232434,1.83823618 8.84050822,1.99705812 8.67755539,2.13823529 C8.51460256,2.27941247 8.34081295,2.35882344 8.15618134,2.37647059 L6.74177538,2.37647059 C6.34052346,2.37647059 5.938581,2.59705662 5.53593594,3.03823529 C5.13329088,3.47941397 4.79042082,4.05293765 4.50731545,4.75882353 C3.9454516,6.06471241 3.57095567,7.12352535 3.38381642,7.93529412 L3.35330473,8.06764706 L2.70729295,10.6088235 C2.49223324,11.3676509 2.27486404,12.2235246 2.05517883,13.1764706 C1.90058554,13.8470622 1.80456529,14.3941155 1.76711521,14.8176471 C1.72097138,15.4529444 1.76945538,15.9823508 1.91256866,16.4058824 C2.04347721,16.8823553 2.37542468,17.2264695 2.90842104,17.4382353 C3.18495051,17.5441182 3.50377383,17.5970588 3.86490056,17.5970588 C4.08558912,17.5970588 4.3225471,17.5264713 4.57578162,17.3852941 C4.83659537,17.3852941 5.04107753,17.433823 5.18923426,17.5308824 C5.33739098,17.6279417 5.38909322,17.7735284 5.34434253,17.9676471 C5.18568099,18.6558858 4.55463829,19 3.4511955,19 Z M12.3733824,19 C11.9635761,19 11.6780907,18.5789516 11.5169175,17.7368421 C11.3143718,16.8245568 11.2197205,15.8859697 11.2329607,14.9210526 L11.2223769,14.0263158 C11.2009187,11.5175313 11.1519557,10.0877211 11.0754865,9.73684211 L10.7401921,9.73684211 C10.6349929,10.2456166 10.5295504,10.7105242 10.4238614,11.1315789 L10.1245893,12.5789474 C9.63849637,14.9298363 9.43638127,16.7631513 9.51823792,18.0789474 L9.06396935,18.7894737 L8.28161587,18.7894737 L8,18.3947368 L8.39250906,16.6315789 C8.71898938,15.0526237 9.13032102,12.6579108 9.62651632,9.44736842 C10.1848699,6.02629868 10.6055152,3.63158579 10.8884648,2.26315789 C11.0625876,1.42104842 11.4569978,1 12.0717072,1 C13.0775953,1 13.8510672,1.24561158 14.3921463,1.73684211 C14.9332253,2.22807263 15.1130732,2.91227632 14.9316952,3.78947368 L14.5508034,5.63157895 C14.4963901,5.89473816 14.3872474,6.19736671 14.2233722,6.53947368 C14.059497,6.88158066 13.8999138,7.15789368 13.7446178,7.36842105 L13.0178478,8.31578947 L12.4075494,9.10526316 L12.4166639,9.73684211 L12.4215075,11.6052632 C12.4029712,12.9561471 12.4277204,14.0526274 12.4957558,14.8947368 C12.5637912,15.7368463 12.7040312,16.5 12.91648,17.1842105 L13.0188315,17.5 C13.1325558,17.8508789 13.1676522,18.1315779 13.1241214,18.3421053 C13.0878459,18.5175447 13.0002234,18.671052 12.8612513,18.8026316 C12.7222793,18.9342112 12.5596579,19 12.3733824,19 Z M12,8 C12.3361336,7.79047514 12.6935828,7.21429043 13.0723583,6.27142857 C13.4511339,5.32856671 13.7119199,4.45714686 13.8547241,3.65714286 C13.9635273,3.047616 13.9635273,2.42311333 13.5764213,1.94285714 C13.3183505,1.62268635 13.1262101,1.72329033 13,2.2446691 L12.5355781,4.77142857 C12.3859304,5.76190971 12.2074061,6.83808943 12,8 Z M18.8164665,18 C18.4267346,18 18.0976282,17.9090918 17.8291376,17.7272727 C17.560647,17.5454536 17.3671118,17.281387 17.2485262,16.9350649 C17.0189829,16.2077886 16.9484479,15.385286 17.036919,14.4675325 C17.0986919,13.6709917 17.2516246,12.7186203 17.4957217,11.6103896 C17.858919,9.74025039 18.3380038,7.45455896 18.9329904,4.75324675 L19.349149,2.75324675 C19.3557943,2.64935013 19.3858146,2.47619169 19.4392108,2.23376623 C19.5516658,1.57575429 19.6231483,1.17748987 19.6536604,1.03896104 C19.8799043,0.675322857 20.090456,0.493506494 20.285322,0.493506494 C20.4801879,0.493506494 20.6204271,0.649349091 20.7060437,0.961038961 C20.7916603,1.27272883 20.7944214,1.61038779 20.714327,1.97402597 L19.158216,9.03896104 C19.0056553,9.73160519 18.8603505,10.6493449 18.7222972,11.7922078 C18.5232197,13.2121283 18.3779149,14.1298681 18.2863785,14.5454545 C18.0041412,15.8268462 18.3745402,16.4675325 19.3975866,16.4675325 C20.5667824,16.4675325 22.1773267,11.8095704 24.2292677,2.49350649 L24.6011325,0.805194805 C24.5963357,0.753246494 24.6034722,0.683983117 24.6225423,0.597402597 C24.6683105,0.389609351 24.7463388,0.238095714 24.8566294,0.142857143 C24.9669201,0.0476185714 25.1519733,0 25.4117946,0 C25.6228994,0 25.7750426,0.0649344156 25.8682287,0.194805195 C25.9614148,0.324675974 26.0051759,0.47618961 25.9995134,0.649350649 C25.9928682,0.753247273 25.9571269,0.952379481 25.8922886,1.24675325 C25.8312644,1.52381091 25.7096505,1.96536494 25.5274434,2.57142857 C25.3518816,3.07359558 25.2240555,3.50649169 25.1439611,3.87012987 C25.0562387,4.26840026 24.961814,4.62337506 24.860684,4.93506494 L24.5716859,6.02597403 L24.5259179,6.23376623 C24.5269007,6.30303065 24.5178572,6.38095195 24.4987871,6.46753247 C22.8053636,14.1558826 20.9112757,18 18.8164665,18 Z M32.2049581,19 C31.9754138,19 31.8161475,18.9416174 31.7271546,18.8248503 C31.6381616,18.7080832 31.5967009,18.5059895 31.6027712,18.2185629 L31.5733901,17.5718563 C31.704269,16.979039 31.4952924,14.9581011 30.946454,11.508982 C30.3976157,8.05986299 29.9326312,5.5089903 29.5514866,3.85628743 L26.5591343,17.4101796 L26.6322628,17.5988024 C26.6434594,17.6347307 26.6678354,17.6976043 26.7053913,17.7874251 C26.7429472,17.877246 26.75181,17.9670654 26.7319799,18.0568862 C26.6804215,18.2904203 26.5507181,18.4880231 26.3428656,18.6497006 C26.1350131,18.8113781 25.9067538,18.8922156 25.6580807,18.8922156 C25.0459626,18.8922156 24.86087,18.3443169 25.1027977,17.248503 L26.0913856,12.6407186 C26.377641,11.2574781 26.70915,9.71258338 27.0859225,8.00598802 C27.2128354,7.43113485 27.4259455,6.59581386 27.7252592,5.5 C28.032505,4.36825781 28.2456151,3.53293683 28.3645959,2.99401198 C28.5509991,2.14969638 29.0420513,1.48503237 29.837767,1 C30.6334827,0.514967635 30.8795591,1.82634012 31.2317813,3.26347305 C31.513559,4.4131794 31.7288484,5.62574213 31.8776561,6.9011976 C32.0264638,8.17665308 32.1949712,9.9910062 32.3831834,12.3443114 L32.455948,13.3143713 C32.5746597,14.7694684 32.6793808,15.8113741 32.7701141,16.4401198 C34.0053838,12.577825 35.2040236,8.01499638 36.3660695,2.75149701 L36.4434066,2.4011976 C36.4480741,2.29341263 36.4642886,2.17664734 36.4920508,2.0508982 C36.6110316,1.51197335 36.900062,1.24251497 37.3591507,1.24251497 C37.6269524,1.24251497 37.8107699,1.34131638 37.9106089,1.53892216 C38.0104478,1.73652793 38.0266557,1.98802243 37.9592333,2.29341317 L37.5130575,4.31437126 C36.864032,7.08085216 36.086945,10.0808222 35.1817732,13.3143713 C34.2766014,16.5479204 33.6445148,18.3712554 33.2854945,18.7844311 C32.6990342,18.9281444 32.338859,19 32.2049581,19 Z M41.4511955,19 C41.0098184,19 40.5565916,18.9426476 40.0915016,18.8279412 C39.6264116,18.7132347 39.2797379,18.5852948 39.0514701,18.4441176 C37.8822107,17.6852903 37.6881354,15.6117816 38.4692383,12.2235294 L38.9696299,10.0529412 C39.1323597,9.34705529 39.2878284,8.71617925 39.4360407,8.16029412 C39.584253,7.60440899 39.7637129,7 39.9744257,6.34705882 C40.193275,5.65882009 40.4127202,5.09853157 40.6327678,4.66617647 C40.8528153,4.23382137 41.1663304,3.74412038 41.5733223,3.19705882 C41.9320526,2.68529156 42.3195056,2.28823671 42.7356929,2.00588235 C43.1518802,1.723528 43.6632179,1.48529509 44.2697213,1.29117647 C44.8160369,1.09705785 45.4603431,1 46.2026591,1 C46.5035981,1 46.7200758,1.06176409 46.8520989,1.18529412 C46.9841219,1.30882415 47.0277575,1.46764609 46.9830068,1.66176471 C46.9423243,1.83823618 46.8405082,1.99705812 46.6775554,2.13823529 C46.5146026,2.27941247 46.3408129,2.35882344 46.1561813,2.37647059 L44.7417754,2.37647059 C44.3405235,2.37647059 43.938581,2.59705662 43.5359359,3.03823529 C43.1332909,3.47941397 42.7904208,4.05293765 42.5073155,4.75882353 C41.9454516,6.06471241 41.5709557,7.12352535 41.3838164,7.93529412 L41.3533047,8.06764706 L40.707293,10.6088235 C40.4922332,11.3676509 40.274864,12.2235246 40.0551788,13.1764706 C39.9005855,13.8470622 39.8045653,14.3941155 39.7671152,14.8176471 C39.7209714,15.4529444 39.7694554,15.9823508 39.9125687,16.4058824 C40.0434772,16.8823553 40.3754247,17.2264695 40.908421,17.4382353 C41.1849505,17.5441182 41.5037738,17.5970588 41.8649006,17.5970588 C42.0855891,17.5970588 42.3225471,17.5264713 42.5757816,17.3852941 C42.8365954,17.3852941 43.0410775,17.433823 43.1892343,17.5308824 C43.337391,17.6279417 43.3890932,17.7735284 43.3443425,17.9676471 C43.185681,18.6558858 42.5546383,19 41.4511955,19 Z M50.5574426,19 C49.9146671,19 49.9246796,17.5246049 50.5874804,14.5737705 L50.9592876,13.0447094 L51.2648151,11.8107303 L51.3431457,11.461997 C51.3941866,11.3189263 51.4417998,11.1490323 51.4859865,10.95231 C51.4940204,10.9165423 51.4757054,10.8718334 51.4310409,10.8181818 C51.3863766,10.7645303 51.3680613,10.7198213 51.3760952,10.6840537 L51.3821206,10.657228 C51.2795609,10.6929957 51.1054001,10.7108793 50.859633,10.7108793 C50.6138659,10.7108793 50.3194217,10.6751121 49.9762915,10.6035768 C49.8668775,10.5856929 49.5744418,10.540984 49.0989755,10.4694486 L48.4060508,13.5543964 C48.3016095,14.0193764 48.1652733,14.752603 47.9970382,15.7540984 C47.8328201,16.7377098 47.6964839,17.4709365 47.5880256,17.9538003 C47.527771,18.222058 47.3999316,18.4545445 47.2045036,18.6512668 C47.0090756,18.8479891 46.7884813,18.9463487 46.5427142,18.9463487 C46.1835162,18.9463487 46.0026132,18.6155026 46,17.9538003 C46.0014037,17.2742142 46.1246215,16.3889771 46.3696569,15.2980626 L46.9144321,13.1251863 C47.0699144,12.5171356 47.2239758,11.8733268 47.3766208,11.1937407 L47.5634092,10.3621461 C47.6276808,10.0760045 47.660406,9.88822697 47.6615857,9.79880775 L47.6917128,9.66467958 L48.1262607,8.10879285 C48.2789057,7.42920674 48.477504,6.41878465 48.7220617,5.07749627 C48.9666193,3.7362079 49.1652176,2.72578581 49.3178627,2.0461997 C49.3660663,1.83159356 49.4838635,1.64381601 49.6712575,1.4828614 C49.8586516,1.3219068 50.0657765,1.2414307 50.2926384,1.2414307 C50.8976036,1.2414307 51.0795742,1.777938 50.8385557,2.8509687 L50.034687,6.17734724 C49.7719261,7.17884256 49.501964,8.29656611 49.2247928,9.53055142 C49.4882853,9.61997064 49.9886747,9.66467958 50.725976,9.66467958 L51.7752072,9.66467958 C51.8371194,9.55737651 51.8801258,9.45007505 51.9042276,9.34277198 C52.0970424,8.48434742 52.3255287,7.21461347 52.5896933,5.53353204 C52.810851,3.95975368 53.0318933,2.68107794 53.2528269,1.69746647 C53.2970136,1.50074417 53.4145158,1.33532109 53.6053369,1.20119225 C53.7961581,1.06706341 54.0049966,1 54.2318585,1 C54.3641946,1 54.5432011,1.04470894 54.7688833,1.13412817 L55,1.2414307 C54.4295896,3.78093669 53.7629087,7.16987449 52.9999373,11.4083458 L51.7307215,18.195231 C51.6744839,18.4456048 51.5310472,18.6423242 51.3004072,18.7853949 C51.0697672,18.9284657 50.8221148,19 50.5574426,19 Z M54.6857275,19 C54.2586726,19 54.0340412,18.8335783 54.0118265,18.5007299 C53.9814496,18.2905099 54.009591,17.9927027 54.0962515,17.6072993 C54.2656335,16.8540108 54.5132262,15.925553 54.8390368,14.8218978 C55.1724417,13.7707977 55.4317096,12.8335808 55.616848,12.010219 C55.8256212,11.0817472 56.1678932,9.68906038 56.6436743,7.83211679 L57.6354747,3.68029197 C57.6709267,3.52262695 57.6949871,3.28613296 57.7076564,2.97080292 L57.7680209,2.31386861 L57.7975641,2.18248175 C57.8881638,1.77956003 58.0230673,1.48175279 58.2022786,1.28905109 C58.38149,1.0963494 58.6555016,1 59.0243217,1 C59.5290229,1 60.0527018,1.13138555 60.5953742,1.39416058 C61.1380466,1.65693562 61.4999586,1.98977901 61.6811211,2.39270073 C62.0549794,3.23358085 62.1000997,4.28466523 61.8164834,5.5459854 C61.6037711,6.49197553 61.3381779,7.28466834 61.0196959,7.92408759 C60.7012139,8.56350685 60.2673957,9.15474181 59.7182282,9.69781022 C60.1399239,10.1532869 60.3632064,10.7357629 60.3880822,11.4452555 C60.412958,12.1547481 60.3052545,13.0437903 60.0649684,14.1124088 C59.8246823,15.1810272 59.4120937,16.1094851 58.8271902,16.8978102 C58.1604172,17.7912453 57.343155,18.4043779 56.3753789,18.7372263 C55.7924633,18.9124096 55.2292518,19 54.6857275,19 Z M58,8 C58.7366316,7.98177074 59.3076883,6.87891719 59.7131871,4.69140625 C60.1490983,2.33983199 60.0412854,1.56339796 59.4803146,1.63836945 C59.0373974,1.74226779 59.0373974,2.40363809 58.7501691,3.953125 L58,8 Z M56,17 C56.6853609,16.8803413 57.2726494,16.5555582 57.7618831,16.025641 C58.2511167,15.4957238 58.5723795,14.8888923 58.7256811,14.2051282 C58.8866478,13.4871759 58.9770025,12.8547036 58.996748,12.3076923 C59.0102448,11.8803397 58.9817299,11.5256424 58.9112022,11.2435897 C58.8406746,10.9615371 58.719055,10.7008559 58.5463398,10.4615385 C58.3568779,10.2051269 58.1032664,10.0512823 57.7854974,10 C57.484726,10.9743638 57.1542158,12.2649492 56.7939571,13.8717949 C56.7709618,13.9743595 56.6775658,14.2991426 56.5137662,14.8461538 L56.2565705,15.7179487 C56.2489054,15.7521369 56.2534461,15.7777777 56.2701927,15.7948718 L56,17 Z M65.3399173,19 C64.8432618,19 64.4182427,18.8569378 64.0648473,18.5708092 C63.7114519,18.2846807 63.4577655,17.8988464 63.3037807,17.4132948 C62.9969668,16.355486 62.9225615,15.2023184 63.0805623,13.9537572 C63.1841524,12.7745606 63.3635704,11.6387338 63.6188217,10.5462428 C63.667441,10.3381492 63.7175074,10.1647406 63.7690224,10.0260116 L63.8784153,9.55780347 C63.8986733,9.47109783 63.8992512,9.42774566 63.8801491,9.42774566 L63.989542,8.95953757 L64.4436117,7.13872832 C64.5923653,6.58381225 64.8754016,5.69942803 65.2927291,4.48554913 C65.5827169,3.65317503 65.9907851,2.84682471 66.5169459,2.06647399 C66.7316929,1.71965145 66.9653957,1.45520322 67.218061,1.27312139 C67.4707264,1.09103955 67.7307701,1 67.9982,1 C68.7622853,1 69.4205781,1.12572129 69.9730981,1.37716763 C70.5256181,1.62861397 70.9593242,1.97976653 71.2742293,2.43063584 C71.5549818,2.86416402 71.7551281,3.39739568 71.8746743,4.03034682 C71.9942205,4.66329796 72.0282415,5.33525656 71.9767384,6.04624277 C71.9211837,6.77457012 71.7981954,7.5462387 71.6077698,8.36127168 L71.5591508,8.56936416 C71.433551,9.1069391 71.3296586,9.59248338 71.2474705,10.0260116 L70.9297128,11.5086705 C69.7628498,16.5029151 67.8996032,19 65.3399173,19 Z M64.8678843,18 C65.205342,18 65.5443499,17.8704647 65.8849183,17.6113903 C66.2254867,17.3523158 66.5219239,16.9994439 66.7742389,16.5527638 C67.3392053,15.6415365 67.7799311,14.6588551 68.0964295,13.6046901 C68.3989288,12.6934628 68.625902,11.9073177 68.7773561,11.2462312 C68.961557,10.442207 69.1374454,9.38805789 69.3050266,8.08375209 C69.5077289,6.70797749 69.6868511,5.68062874 69.8423985,5.00167504 L69.9529185,4.51926298 C70.0709706,3.84030928 69.9670203,3.25070044 69.6410644,2.75041876 C69.3151085,2.25013709 68.8334278,2 68.1960077,2 C67.5585876,2 67.0569526,2.34840523 66.6910877,3.04522613 C66.3767173,3.59910941 66.1192487,4.3137868 65.9186744,5.18927973 C65.8409007,5.52875658 65.7847817,5.81462754 65.7503158,6.04690117 L65.5845358,6.77051926 L65.2458532,8.00335008 C65.1223975,8.37856134 65.0095044,8.78950084 64.9071706,9.2361809 C64.6861295,10.2010098 64.4952595,11.1568909 64.3345547,12.1038526 C64.1025438,13.4438928 63.9912072,14.748179 64.0005415,16.0167504 C63.9975958,17.3389234 64.2867072,18 64.8678843,18 Z M73,18.6459909 L73.1915457,17.5839637 C73.2375928,17.2753389 73.2995851,16.9304104 73.3775244,16.5491679 L73.5923744,15.623298 C73.5820599,15.4235996 73.8606038,13.4357224 74.4280144,9.65960666 C74.9954251,5.88349095 75.3715643,3.45991458 75.5564434,2.38880484 C74.5751614,2.35249604 73.9667135,2.24357126 73.7310813,2.06202723 C73.5732595,1.91679201 73.5129065,1.75340484 73.5500205,1.57186082 C73.5797116,1.4266256 73.6961123,1.29500815 73.8992261,1.17700454 C74.1023398,1.05900092 74.2976502,1 74.4851631,1 C74.9624689,1 75.534623,1.03630826 76.2016427,1.10892587 C76.8308578,1.19969788 77.4011563,1.24508321 77.9125553,1.24508321 L78.3216724,1.24508321 C78.850118,1.24508321 79.0698008,1.46293277 78.9807273,1.89863843 C78.9361906,2.11649126 78.8147731,2.29349402 78.6164713,2.42965204 C78.4181695,2.56581006 78.2082187,2.63388805 77.9866125,2.63388805 C77.8331928,2.63388805 77.6171569,2.60665685 77.3384983,2.55219365 L76.8493701,2.44326778 L76.7425598,2.71558245 C76.4122456,4.33132427 76.0301296,6.90921074 75.5962002,10.4493192 C75.189761,13.7715749 74.7991218,16.3494613 74.4242708,18.183056 C74.3797341,18.4009088 74.2512715,18.5915272 74.0388793,18.7549168 C73.8264871,18.9183064 73.6094912,19 73.3878849,19 L73,18.6459909 Z" id="path-1"></path>
    </defs>
    <g id="Page-1" stroke="none" stroke-width="1" fill="none" fill-rule="evenodd">
        <g id="Desktop" transform="translate(-75.000000, -61.000000)">
            <g id="crunchbot" transform="translate(-14.000000, -11.000000)">
                <g id="teeths" transform="translate(109.000000, 263.000000)" fill="#F9FDFF" stroke="#021220" stroke-width="2">
                    <g id="down" transform="translate(70.500000, 27.000000) scale(1, -1) translate(-70.500000, -27.000000) translate(0.000000, 23.000000)">
                        <path d="M59,7 L82,7 L82,4 C82,2.34314575 80.6568542,1 79,1 L62,1 C60.3431458,1 59,2.34314575 59,4 L59,7 Z" id="Rectangle" transform="translate(70.500000, 4.000000) rotate(-180.000000) translate(-70.500000, -4.000000) "></path>
                        <path d="M30,7 L53,7 L53,4 C53,2.34314575 51.6568542,1 50,1 L33,1 C31.3431458,1 30,2.34314575 30,4 L30,7 Z" id="Rectangle" transform="translate(41.500000, 4.000000) rotate(-180.000000) translate(-41.500000, -4.000000) "></path>
                        <path d="M1,7 L24,7 L24,4 C24,2.34314575 22.6568542,1 21,1 L4,1 C2.34314575,1 1,2.34314575 1,4 L1,7 Z" id="Rectangle" transform="translate(12.500000, 4.000000) rotate(-180.000000) translate(-12.500000, -4.000000) "></path>
                        <path d="M117,7 L140,7 L140,4 C140,2.34314575 138.656854,1 137,1 L120,1 C118.343146,1 117,2.34314575 117,4 L117,7 Z" id="Rectangle" transform="translate(128.500000, 4.000000) rotate(-180.000000) translate(-128.500000, -4.000000) "></path>
                        <path d="M88,7 L111,7 L111,4 C111,2.34314575 109.656854,1 108,1 L91,1 C89.3431458,1 88,2.34314575 88,4 L88,7 Z" id="Rectangle" transform="translate(99.500000, 4.000000) rotate(-180.000000) translate(-99.500000, -4.000000) "></path>
                    </g>
                    <g id="up">
                        <path d="M59,7 L82,7 L82,4 C82,2.34314575 80.6568542,1 79,1 L62,1 C60.3431458,1 59,2.34314575 59,4 L59,7 Z" id="Rectangle" transform="translate(70.500000, 4.000000) rotate(-180.000000) translate(-70.500000, -4.000000) "></path>
                        <path d="M30,7 L53,7 L53,4 C53,2.34314575 51.6568542,1 50,1 L33,1 C31.3431458,1 30,2.34314575 30,4 L30,7 Z" id="Rectangle" transform="translate(41.500000, 4.000000) rotate(-180.000000) translate(-41.500000, -4.000000) "></path>
                        <path d="M1,7 L24,7 L24,4 C24,2.34314575 22.6568542,1 21,1 L4,1 C2.34314575,1 1,2.34314575 1,4 L1,7 Z" id="Rectangle" transform="translate(12.500000, 4.000000) rotate(-180.000000) translate(-12.500000, -4.000000) "></path>
                        <path d="M117,7 L140,7 L140,4 C140,2.34314575 138.656854,1 137,1 L120,1 C118.343146,1 117,2.34314575 117,4 L117,7 Z" id="Rectangle" transform="translate(128.500000, 4.000000) rotate(-180.000000) translate(-128.500000, -4.000000) "></path>
                        <path d="M88,7 L111,7 L111,4 C111,2.34314575 109.656854,1 108,1 L91,1 C89.3431458,1 88,2.34314575 88,4 L88,7 Z" id="Rectangle" transform="translate(99.500000, 4.000000) rotate(-180.000000) translate(-99.500000, -4.000000) "></path>
                    </g>
                </g>
                <g id="bulb" transform="translate(307.000000, 74.000000)" stroke="#021220">
                    <path d="M0,59.8938005 C0,43.823908 0,30.7056285 0,20.5389618 C0,5.2889618 6.99327125,0 14.0941476,0 C21.1950239,0 27.6417461,3.68405602 28.320873,20.5389618 C28.7736243,31.7755657 29,44.8938452 29,59.8938005 L0,59.8938005 Z" id="Path-6" stroke-width="3"></path>
                    <path d="M6.48417852,59.9409734 C6.5412298,48.4500173 6.71265285,38.5215768 8.51124046,29.018966 C10.3098281,19.5163552 13.2346456,22.432964 14.2509044,24.3238383 C16.4834962,28.4778496 16.0091258,36.2454241 15.6304553,40.1158835 C15.2517847,43.9863429 14.9394713,43.5493348 14.4955505,43.80156 C11.9956294,45.2219549 10.8073312,41.5970503 10.9652506,38.5215768 C11.1286589,35.3392047 12.2453077,32.5757322 13.5862525,29.9469003 C13.8313014,29.4664984 18.0448033,22.3316218 20.5495411,29.018966 C23.054279,35.7063103 19.7747504,49.8676279 19.387355,60.2919589" id="Path-8"></path>
                </g>
                <g id="antenna" transform="translate(268.000000, 73.000000)">
                    <path d="M0.164706552,52.5112859 L0.164706552,44 C0.164706552,42.8954305 1.06013705,42 2.16470655,42 L29.7199835,42 C30.824553,42 31.7199835,42.8954305 31.7199835,44 L31.7199835,51.5112859 C31.7199835,52.0635707 31.2722682,52.5112859 30.7199835,52.5112859 L0.164706552,52.5112859 Z" id="Path-2" stroke="#021220" stroke-width="3" fill="#F9FDFF"></path>
                    <rect id="Rectangle" fill="#021220" x="24" y="42" width="8" height="11"></rect>
                    <g id="Group-2" transform="translate(14.000000, 0.000000)">
                        <path d="M3.3588314,42 L0.230017782,30.7671214 C0.0976602613,30.2919393 0.331568339,29.7912249 0.780938047,29.587796 L9.78322827,25.5124741 C10.2863593,25.2847075 10.5095863,24.6921979 10.2818197,24.1890669 C10.2427646,24.102795 10.1916528,24.0225082 10.130016,23.9506122 L2.40785752,14.9431364 C2.12945542,14.6183956 2.08842474,14.1525414 2.30577719,13.7841363 L6,7.52255394" id="Path-3" stroke="#021220" stroke-width="3"></path>
                        <circle id="Oval" fill="#021220" cx="8.5" cy="4.5" r="4.5"></circle>
                    </g>
                </g>
                <g id="body" transform="translate(89.000000, 116.000000)" stroke="#021220">
                    <path d="M177.400421,2.42089405 L177.400421,211.381744 L185.886836,243.894666 L200.228556,248.327716 L261.126617,243.76699 C262.190692,243.6873 263.004806,242.786297 262.976552,241.719617 L257.171048,22.5474341 C257.096444,19.7309533 255.072208,17.3457595 252.305357,16.8141006 L177.400421,2.42089405 Z" id="Rectangle" stroke-width="4" fill="#F9FDFF"></path>
                    <path d="M198.700924,248.850434 C200.896948,233.596139 202.002308,224.578806 202.002308,222 C202.002308,221.285002 199.068206,219.491962 190.56326,215.102882 C188.987357,214.289618 187.836169,213.684143 186.741967,213.087282 C180.462839,209.662167 177.5,207.317907 177.5,204.57276 C177.5,196.405325 177.5,196.197879 177.5,177.5 L2,177.5 C1.72385763,177.5 1.5,177.723858 1.5,178 C1.5,189.914836 1.5,189.914836 1.5,201.829673 C1.5,207.62805 4.00823276,211.166866 9.02782504,214.254266 C10.0784092,214.900449 13.8447664,216.935548 14.5664794,217.382355 C16.8194333,218.77714 17.9839413,220.10978 17.9839413,222 C17.9839413,225.20205 17.3103562,233.201254 15.9604023,246.090012 C15.9513412,246.176524 15.9468013,246.263449 15.9468013,246.350434 C15.9468013,247.731141 17.0660867,248.850428 18.4467914,248.850434 L198.700924,248.850434 Z" id="Rectangle" stroke-width="3" fill="#F9FDFF"></path>
                    <path d="M3.12173702,206.841585 L177.194127,206.841585" id="Line" stroke-width="2" stroke-linecap="round"></path>
                    <path d="M187,211.63846 L187,4" id="Line" stroke-width="2" stroke-linecap="round"></path>
                    <path d="M214.371957,247.192944 L217.329227,217.955189 C217.499604,216.270716 216.591019,214.661425 215.060693,213.937147 L202.561162,208.021333 C201.171902,207.363821 200.28226,205.968436 200.272404,204.431469 L199,6" id="Line" stroke-width="2" stroke-linecap="round"></path>
                    <path d="M17,220.311585 L202,222" id="Line" stroke-width="2" stroke-linecap="round"></path>
                    <g id="air1" transform="translate(226.000000, 49.500000) rotate(95.000000) translate(-226.000000, -49.500000) translate(211.000000, 30.000000)" stroke-linecap="round" stroke-width="3">
                        <polyline id="Path-5" points="-7.14092607e-15 8.58683696 20.3915517 6.09932221 29.4033115 5"></polyline>
                        <polyline id="Path-5" points="-7.14092607e-15 13.586837 20.3915517 11.0993222 29.4033115 10"></polyline>
                        <polyline id="Path-5" points="-7.14092607e-15 18.586837 20.3915517 16.0993222 29.4033115 15"></polyline>
                        <polyline id="Path-5" points="-7.14092607e-15 23.586837 20.3915517 21.0993222 29.4033115 20"></polyline>
                        <polyline id="Path-5" points="-7.14092607e-15 28.586837 20.3915517 26.0993222 29.4033115 25"></polyline>
                        <polyline id="Path-5" points="-7.14092607e-15 33.586837 20.3915517 31.0993222 29.4033115 30"></polyline>
                        <polyline id="Path-5" points="-7.14092607e-15 38.586837 20.3915517 36.0993222 29.4033115 35"></polyline>
                        <polyline id="Path-5" points="-5.36456923e-15 3.58683696 20.3915517 1.09932221 29.4033115 -2.22044605e-16"></polyline>
                    </g>
                    <g id="air2" transform="translate(242.000000, 234.500000) rotate(-5.000000) translate(-242.000000, -234.500000) translate(230.000000, 231.000000)" stroke-linecap="round" stroke-width="2">
                        <path d="M-2.84217094e-14,6.03648211 L2.99692249,2.84217094e-14" id="Path-7"></path>
                        <path d="M3,6.03648211 L5.99692249,2.84217094e-14" id="Path-7"></path>
                        <path d="M6,6.03648211 L8.99692249,2.84217094e-14" id="Path-7"></path>
                        <path d="M9,6.03648211 L11.9969225,2.84217094e-14" id="Path-7"></path>
                        <path d="M12,6.03648211 L14.9969225,2.84217094e-14" id="Path-7"></path>
                        <path d="M15,6.03648211 L17.9969225,2.84217094e-14" id="Path-7"></path>
                        <path d="M18,6.03648211 L20.9969225,2.84217094e-14" id="Path-7"></path>
                        <path d="M21,6.03648211 L23.9969225,2.84217094e-14" id="Path-7"></path>
                    </g>
                    <g id="floppy" transform="translate(17.000000, 190.061372)" stroke-width="2">
                        <path d="M0,1 L0,9 C-9.13419418e-16,9.55228475 0.44771525,10 1,10 L62.46994,10 C63.0222247,10 63.46994,9.55228475 63.46994,9 L63.46994,1 C63.46994,0.44771525 63.0222247,-1.01453063e-16 62.46994,0 L1,0 C0.44771525,1.01453063e-16 -6.76353751e-17,0.44771525 0,1 Z" id="Path-4"></path>
                        <path d="M62,8.72292158 L0,8.72292158 L60.8720287,0.868466266 C61.4197725,0.797789648 61.9211012,1.184529 61.9917779,1.73227279 C61.9972536,1.77471007 62,1.81745504 62,1.86024413 L62,8.72292158 Z" id="Path-9"></path>
                    </g>
                </g>
                <g id="head" transform="translate(89.000000, 86.000000)">
                    <path d="M176.167795,1.59890937 L188.167795,3.64140367 C188.64842,3.72320985 189,4.1396882 189,4.62722564 L189,34.255643 L175,31.5278356 L175,2.58473134 C175,2.03244659 175.447715,1.58473134 176,1.58473134 C176.056231,1.58473134 176.112361,1.58947416 176.167795,1.59890937 Z" id="Path-10" stroke="#021220" stroke-width="3" fill="#021220"></path>
                    <path d="M177.5,177.5 L177.5,4 C177.5,2.61928813 176.380712,1.5 175,1.5 L16,1.5 C7.99187113,1.5 1.5,7.99187113 1.5,16 L1.5,177 C1.5,177.276142 1.72385763,177.5 2,177.5 L177.5,177.5 Z" id="Rectangle" stroke="#021220" stroke-width="3" fill="#F9FDFF"></path>
                    <path d="M29,17.5 C23.2010101,17.5 18.5,22.2010101 18.5,28 L18.5,146 C18.5,151.79899 23.2010101,156.5 29,156.5 L137,156.5 C145.008129,156.5 151.5,150.008129 151.5,142 L151.5,32 C151.5,23.9918711 145.008129,17.5 137,17.5 L29,17.5 Z" id="Rectangle" stroke="#021220" stroke-width="3" fill="#F9FDFF"></path>
                    <path d="M37,16 L145,16 C153.836556,16 161,23.163444 161,32 L161,142 C161,150.836556 153.836556,158 145,158 L37,158 C30.372583,158 25,152.627417 25,146 L25,28 C25,21.372583 30.372583,16 37,16 Z" id="Rectangle" fill="#021220"></path>
                    <g id="eyes" transform="translate(22.000000, 32.000000)">
                        <g id="right">
                            <path d="M52.482043,51.0437846 C58.2625013,47.644018 63.7463326,39.3010858 63.7463326,27.7446109 C63.7463326,16.1881359 54.6762533,3.1466042 41.5427712,1 C35.5129137,0.0144489316 16.0919205,5.38754813 16.0919205,5.38754813 L26.0666667,55.2829069 C39.8232787,54.7233365 48.6284042,53.3102957 52.482043,51.0437846 Z" id="Oval" stroke="#021220" stroke-width="2" fill="#F9FDFF"></path>
                            <ellipse id="Oval" stroke="#021220" stroke-width="2" fill="#F9FDFF" cx="26.0666667" cy="29.3106847" rx="26.0666667" ry="25.9722222"></ellipse>
                            <ellipse id="Oval" stroke="#021220" stroke-width="3" fill="#021220" cx="26.0666667" cy="29.3106847" rx="18.4" ry="18.3333333"></ellipse>
                            <g id="Group" transform="translate(12.000000, 26.000000)" fill="#F9FDFF">
                                <ellipse id="Oval" cx="7.80606061" cy="7.77777778" rx="7.80606061" ry="7.77777778"></ellipse>
                            </g>
                            <path d="M44.4666667,10.0526764 C47.1692111,9.50312803 51.291978,8.74335728 55.4401286,8.00134474" id="Path" stroke="#040621" stroke-linecap="round"></path>
                            <path d="M39.3305482,6.86231257 C42.0330927,6.31276423 46.0406377,5.42296367 50.1887883,4.68095112" id="Path" stroke="#040621" stroke-linecap="round"></path>
                            <path d="M48.3930707,16.1881359 C51.6361241,15.6385876 54.8868037,14.9684587 59.8645844,14.2264461" id="Path" stroke="#040621" stroke-linecap="round"></path>
                        </g>
                        <g id="left" transform="translate(72.000000, 0.000000)">
                            <path d="M52.482043,51.0437846 C58.2625013,47.644018 63.7463326,39.3010858 63.7463326,27.7446109 C63.7463326,16.1881359 54.6762533,3.1466042 41.5427712,1 C35.5129137,0.0144489316 16.0919205,5.38754813 16.0919205,5.38754813 L26.0666667,55.2829069 C39.8232787,54.7233365 48.6284042,53.3102957 52.482043,51.0437846 Z" id="Oval" stroke="#021220" stroke-width="2" fill="#F9FDFF"></path>
                            <ellipse id="Oval" stroke="#021220" stroke-width="2" fill="#F9FDFF" cx="26.0666667" cy="29.3106847" rx="26.0666667" ry="25.9722222"></ellipse>
                            <ellipse id="Oval" stroke="#021220" stroke-width="3" fill="#021220" cx="26.0666667" cy="29.3106847" rx="18.4" ry="18.3333333"></ellipse>
                            <g id="Group" transform="translate(12.000000, 26.000000)" fill="#F9FDFF">
                                <circle id="Oval" cx="8" cy="8" r="8"></circle>
                            </g>
                            <path d="M44.4666667,10.0526764 C47.1692111,9.50312803 51.291978,8.74335728 55.4401286,8.00134474" id="Path" stroke="#040621" stroke-linecap="round"></path>
                            <path d="M39.3305482,6.86231257 C42.0330927,6.31276423 46.0406377,5.42296367 50.1887883,4.68095112" id="Path" stroke="#040621" stroke-linecap="round"></path>
                            <path d="M48.3930707,16.1881359 C51.6361241,15.6385876 54.8868037,14.9684587 59.8645844,14.2264461" id="Path" stroke="#040621" stroke-linecap="round"></path>
                        </g>
                    </g>
                    <circle id="Oval" fill="#021220" cx="143.5" cy="164.5" r="2.5"></circle>
                    <circle id="Oval" fill="#021220" cx="133.5" cy="164.5" r="2.5"></circle>
                    <circle id="Oval" fill="#021220" cx="123.5" cy="164.5" r="2.5"></circle>
                    <path d="M59.4744678,127 L63.923951,120.216015 C64.2268463,119.754201 64.8467663,119.625371 65.3085811,119.928266 C65.3222658,119.937242 65.3357281,119.946552 65.3489559,119.956188 L80.3009034,130.848539 C80.7449874,131.17205 81.366898,131.076693 81.6936525,130.63499 L93.8968496,114.13885 C94.2253036,113.694849 94.8515017,113.60118 95.2955021,113.929634 C95.2992747,113.932425 95.3030275,113.935242 95.3067603,113.938086 L113.735741,127.976785 C114.162689,128.302023 114.770248,128.23222 115.112311,127.81863 L132.330548,107" id="Path-13" stroke="#F9FDFF" stroke-width="3" stroke-linecap="round"></path>
                </g>
                <g id="coin" transform="translate(301.000000, 209.128992)">
                    <path d="M11.7413111,1.22084577 L11.7413111,75.56456 C11.7413111,76.1168447 12.1890263,76.56456 12.7413111,76.56456 C12.8295009,76.56456 12.9173032,76.552894 13.0024333,76.5298657 L16.0024333,75.718344 C16.4384804,75.6003901 16.7413111,75.2047574 16.7413111,74.7530383 L16.7413111,1.82345799 C16.7413111,1.34709165 16.4052853,0.936855953 15.938248,0.843041832 L12.938248,0.240429607 C12.3967791,0.131664349 11.8696602,0.482439953 11.7608949,1.02390885 C11.7478711,1.08874544 11.7413111,1.15471406 11.7413111,1.22084577 Z" id="Path-11" stroke="#021220" stroke-width="3" fill="#F9FDFF"></path>
                    <rect id="Rectangle" fill="#F9FDFF" x="0" y="2.87100841" width="14" height="71"></rect>
                    <path d="M11.7413111,2.87100841 L11.7413111,73.8710084" id="Path-12" stroke="#021220" stroke-width="3"></path>
                </g>
                <g id="name" transform="translate(199.000000, 341.000000)" fill-rule="nonzero">
                    <g id="crunchbot">
                        <use fill="#FFFFFF" xlink:href="#path-1"></use>
                        <use fill="#021220" xlink:href="#path-1"></use>
                    </g>
                </g>
            </g>
        </g>
    </g>
</svg>