<?xml version="1.0" encoding="UTF-8"?>
<svg width="496px" height="295px" viewBox="0 0 496 295" version="1.1" xmlns="http://www.w3.org/2000/svg" xmlns:xlink="http://www.w3.org/1999/xlink">
    <!-- Generator: Sketch 55.2 (78181) - https://sketchapp.com -->
    <title>crunchbot</title>
    <desc>Created with Sketch.</desc>
    <defs>
        <polygon id="path-1" points="0 0.000216049383 47.0544213 0.000216049383 47.0544213 28.7282485 0 28.7282485"></polygon>
        <circle id="path-3" cx="35.0114713" cy="35.0091687" r="34.9763876"></circle>
        <linearGradient x1="2.37600687%" y1="48.7598272%" x2="106.095061%" y2="48.7000559%" id="linearGradient-5">
            <stop stop-color="#F79420" stop-opacity="0.92" offset="0%"></stop>
            <stop stop-color="#C4C4C4" stop-opacity="0" offset="100%"></stop>
        </linearGradient>
        <path d="M3.4511955,19 C3.00981839,19 2.55659162,18.9426476 2.0915016,18.8279412 C1.62641159,18.7132347 1.27973789,18.5852948 1.05147009,18.4441176 C-0.11778933,17.6852903 -0.311864647,15.6117816 0.469238319,12.2235294 L0.969629904,10.0529412 C1.13235969,9.34705529 1.2878284,8.71617925 1.4360407,8.16029412 C1.584253,7.60440899 1.76371288,7 1.97442572,6.34705882 C2.19327505,5.65882009 2.41272021,5.09853157 2.63276778,4.66617647 C2.85281535,4.23382137 3.16633039,3.74412038 3.57332232,3.19705882 C3.93205257,2.68529156 4.31950555,2.28823671 4.7356929,2.00588235 C5.15188025,1.723528 5.66321794,1.48529509 6.26972132,1.29117647 C6.81603692,1.09705785 7.46034308,1 8.20265914,1 C8.50359808,1 8.72007583,1.06176409 8.85209889,1.18529412 C8.98412194,1.30882415 9.02775747,1.46764609 8.98300678,1.66176471 C8.94232434,1.83823618 8.84050822,1.99705812 8.67755539,2.13823529 C8.51460256,2.27941247 8.34081295,2.35882344 8.15618134,2.37647059 L6.74177538,2.37647059 C6.34052346,2.37647059 5.938581,2.59705662 5.53593594,3.03823529 C5.13329088,3.47941397 4.79042082,4.05293765 4.50731545,4.75882353 C3.9454516,6.06471241 3.57095567,7.12352535 3.38381642,7.93529412 L3.35330473,8.06764706 L2.70729295,10.6088235 C2.49223324,11.3676509 2.27486404,12.2235246 2.05517883,13.1764706 C1.90058554,13.8470622 1.80456529,14.3941155 1.76711521,14.8176471 C1.72097138,15.4529444 1.76945538,15.9823508 1.91256866,16.4058824 C2.04347721,16.8823553 2.37542468,17.2264695 2.90842104,17.4382353 C3.18495051,17.5441182 3.50377383,17.5970588 3.86490056,17.5970588 C4.08558912,17.5970588 4.3225471,17.5264713 4.57578162,17.3852941 C4.83659537,17.3852941 5.04107753,17.433823 5.18923426,17.5308824 C5.33739098,17.6279417 5.38909322,17.7735284 5.34434253,17.9676471 C5.18568099,18.6558858 4.55463829,19 3.4511955,19 Z M12.3733824,19 C11.9635761,19 11.6780907,18.5789516 11.5169175,17.7368421 C11.3143718,16.8245568 11.2197205,15.8859697 11.2329607,14.9210526 L11.2223769,14.0263158 C11.2009187,11.5175313 11.1519557,10.0877211 11.0754865,9.73684211 L10.7401921,9.73684211 C10.6349929,10.2456166 10.5295504,10.7105242 10.4238614,11.1315789 L10.1245893,12.5789474 C9.63849637,14.9298363 9.43638127,16.7631513 9.51823792,18.0789474 L9.06396935,18.7894737 L8.28161587,18.7894737 L8,18.3947368 L8.39250906,16.6315789 C8.71898938,15.0526237 9.13032102,12.6579108 9.62651632,9.44736842 C10.1848699,6.02629868 10.6055152,3.63158579 10.8884648,2.26315789 C11.0625876,1.42104842 11.4569978,1 12.0717072,1 C13.0775953,1 13.8510672,1.24561158 14.3921463,1.73684211 C14.9332253,2.22807263 15.1130732,2.91227632 14.9316952,3.78947368 L14.5508034,5.63157895 C14.4963901,5.89473816 14.3872474,6.19736671 14.2233722,6.53947368 C14.059497,6.88158066 13.8999138,7.15789368 13.7446178,7.36842105 L13.0178478,8.31578947 L12.4075494,9.10526316 L12.4166639,9.73684211 L12.4215075,11.6052632 C12.4029712,12.9561471 12.4277204,14.0526274 12.4957558,14.8947368 C12.5637912,15.7368463 12.7040312,16.5 12.91648,17.1842105 L13.0188315,17.5 C13.1325558,17.8508789 13.1676522,18.1315779 13.1241214,18.3421053 C13.0878459,18.5175447 13.0002234,18.671052 12.8612513,18.8026316 C12.7222793,18.9342112 12.5596579,19 12.3733824,19 Z M12,8 C12.3361336,7.79047514 12.6935828,7.21429043 13.0723583,6.27142857 C13.4511339,5.32856671 13.7119199,4.45714686 13.8547241,3.65714286 C13.9635273,3.047616 13.9635273,2.42311333 13.5764213,1.94285714 C13.3183505,1.62268635 13.1262101,1.72329033 13,2.2446691 L12.5355781,4.77142857 C12.3859304,5.76190971 12.2074061,6.83808943 12,8 Z M18.8164665,18 C18.4267346,18 18.0976282,17.9090918 17.8291376,17.7272727 C17.560647,17.5454536 17.3671118,17.281387 17.2485262,16.9350649 C17.0189829,16.2077886 16.9484479,15.385286 17.036919,14.4675325 C17.0986919,13.6709917 17.2516246,12.7186203 17.4957217,11.6103896 C17.858919,9.74025039 18.3380038,7.45455896 18.9329904,4.75324675 L19.349149,2.75324675 C19.3557943,2.64935013 19.3858146,2.47619169 19.4392108,2.23376623 C19.5516658,1.57575429 19.6231483,1.17748987 19.6536604,1.03896104 C19.8799043,0.675322857 20.090456,0.493506494 20.285322,0.493506494 C20.4801879,0.493506494 20.6204271,0.649349091 20.7060437,0.961038961 C20.7916603,1.27272883 20.7944214,1.61038779 20.714327,1.97402597 L19.158216,9.03896104 C19.0056553,9.73160519 18.8603505,10.6493449 18.7222972,11.7922078 C18.5232197,13.2121283 18.3779149,14.1298681 18.2863785,14.5454545 C18.0041412,15.8268462 18.3745402,16.4675325 19.3975866,16.4675325 C20.5667824,16.4675325 22.1773267,11.8095704 24.2292677,2.49350649 L24.6011325,0.805194805 C24.5963357,0.753246494 24.6034722,0.683983117 24.6225423,0.597402597 C24.6683105,0.389609351 24.7463388,0.238095714 24.8566294,0.142857143 C24.9669201,0.0476185714 25.1519733,0 25.4117946,0 C25.6228994,0 25.7750426,0.0649344156 25.8682287,0.194805195 C25.9614148,0.324675974 26.0051759,0.47618961 25.9995134,0.649350649 C25.9928682,0.753247273 25.9571269,0.952379481 25.8922886,1.24675325 C25.8312644,1.52381091 25.7096505,1.96536494 25.5274434,2.57142857 C25.3518816,3.07359558 25.2240555,3.50649169 25.1439611,3.87012987 C25.0562387,4.26840026 24.961814,4.62337506 24.860684,4.93506494 L24.5716859,6.02597403 L24.5259179,6.23376623 C24.5269007,6.30303065 24.5178572,6.38095195 24.4987871,6.46753247 C22.8053636,14.1558826 20.9112757,18 18.8164665,18 Z M32.2049581,19 C31.9754138,19 31.8161475,18.9416174 31.7271546,18.8248503 C31.6381616,18.7080832 31.5967009,18.5059895 31.6027712,18.2185629 L31.5733901,17.5718563 C31.704269,16.979039 31.4952924,14.9581011 30.946454,11.508982 C30.3976157,8.05986299 29.9326312,5.5089903 29.5514866,3.85628743 L26.5591343,17.4101796 L26.6322628,17.5988024 C26.6434594,17.6347307 26.6678354,17.6976043 26.7053913,17.7874251 C26.7429472,17.877246 26.75181,17.9670654 26.7319799,18.0568862 C26.6804215,18.2904203 26.5507181,18.4880231 26.3428656,18.6497006 C26.1350131,18.8113781 25.9067538,18.8922156 25.6580807,18.8922156 C25.0459626,18.8922156 24.86087,18.3443169 25.1027977,17.248503 L26.0913856,12.6407186 C26.377641,11.2574781 26.70915,9.71258338 27.0859225,8.00598802 C27.2128354,7.43113485 27.4259455,6.59581386 27.7252592,5.5 C28.032505,4.36825781 28.2456151,3.53293683 28.3645959,2.99401198 C28.5509991,2.14969638 29.0420513,1.48503237 29.837767,1 C30.6334827,0.514967635 30.8795591,1.82634012 31.2317813,3.26347305 C31.513559,4.4131794 31.7288484,5.62574213 31.8776561,6.9011976 C32.0264638,8.17665308 32.1949712,9.9910062 32.3831834,12.3443114 L32.455948,13.3143713 C32.5746597,14.7694684 32.6793808,15.8113741 32.7701141,16.4401198 C34.0053838,12.577825 35.2040236,8.01499638 36.3660695,2.75149701 L36.4434066,2.4011976 C36.4480741,2.29341263 36.4642886,2.17664734 36.4920508,2.0508982 C36.6110316,1.51197335 36.900062,1.24251497 37.3591507,1.24251497 C37.6269524,1.24251497 37.8107699,1.34131638 37.9106089,1.53892216 C38.0104478,1.73652793 38.0266557,1.98802243 37.9592333,2.29341317 L37.5130575,4.31437126 C36.864032,7.08085216 36.086945,10.0808222 35.1817732,13.3143713 C34.2766014,16.5479204 33.6445148,18.3712554 33.2854945,18.7844311 C32.6990342,18.9281444 32.338859,19 32.2049581,19 Z M41.4511955,19 C41.0098184,19 40.5565916,18.9426476 40.0915016,18.8279412 C39.6264116,18.7132347 39.2797379,18.5852948 39.0514701,18.4441176 C37.8822107,17.6852903 37.6881354,15.6117816 38.4692383,12.2235294 L38.9696299,10.0529412 C39.1323597,9.34705529 39.2878284,8.71617925 39.4360407,8.16029412 C39.584253,7.60440899 39.7637129,7 39.9744257,6.34705882 C40.193275,5.65882009 40.4127202,5.09853157 40.6327678,4.66617647 C40.8528153,4.23382137 41.1663304,3.74412038 41.5733223,3.19705882 C41.9320526,2.68529156 42.3195056,2.28823671 42.7356929,2.00588235 C43.1518802,1.723528 43.6632179,1.48529509 44.2697213,1.29117647 C44.8160369,1.09705785 45.4603431,1 46.2026591,1 C46.5035981,1 46.7200758,1.06176409 46.8520989,1.18529412 C46.9841219,1.30882415 47.0277575,1.46764609 46.9830068,1.66176471 C46.9423243,1.83823618 46.8405082,1.99705812 46.6775554,2.13823529 C46.5146026,2.27941247 46.3408129,2.35882344 46.1561813,2.37647059 L44.7417754,2.37647059 C44.3405235,2.37647059 43.938581,2.59705662 43.5359359,3.03823529 C43.1332909,3.47941397 42.7904208,4.05293765 42.5073155,4.75882353 C41.9454516,6.06471241 41.5709557,7.12352535 41.3838164,7.93529412 L41.3533047,8.06764706 L40.707293,10.6088235 C40.4922332,11.3676509 40.274864,12.2235246 40.0551788,13.1764706 C39.9005855,13.8470622 39.8045653,14.3941155 39.7671152,14.8176471 C39.7209714,15.4529444 39.7694554,15.9823508 39.9125687,16.4058824 C40.0434772,16.8823553 40.3754247,17.2264695 40.908421,17.4382353 C41.1849505,17.5441182 41.5037738,17.5970588 41.8649006,17.5970588 C42.0855891,17.5970588 42.3225471,17.5264713 42.5757816,17.3852941 C42.8365954,17.3852941 43.0410775,17.433823 43.1892343,17.5308824 C43.337391,17.6279417 43.3890932,17.7735284 43.3443425,17.9676471 C43.185681,18.6558858 42.5546383,19 41.4511955,19 Z M50.5574426,19 C49.9146671,19 49.9246796,17.5246049 50.5874804,14.5737705 L50.9592876,13.0447094 L51.2648151,11.8107303 L51.3431457,11.461997 C51.3941866,11.3189263 51.4417998,11.1490323 51.4859865,10.95231 C51.4940204,10.9165423 51.4757054,10.8718334 51.4310409,10.8181818 C51.3863766,10.7645303 51.3680613,10.7198213 51.3760952,10.6840537 L51.3821206,10.657228 C51.2795609,10.6929957 51.1054001,10.7108793 50.859633,10.7108793 C50.6138659,10.7108793 50.3194217,10.6751121 49.9762915,10.6035768 C49.8668775,10.5856929 49.5744418,10.540984 49.0989755,10.4694486 L48.4060508,13.5543964 C48.3016095,14.0193764 48.1652733,14.752603 47.9970382,15.7540984 C47.8328201,16.7377098 47.6964839,17.4709365 47.5880256,17.9538003 C47.527771,18.222058 47.3999316,18.4545445 47.2045036,18.6512668 C47.0090756,18.8479891 46.7884813,18.9463487 46.5427142,18.9463487 C46.1835162,18.9463487 46.0026132,18.6155026 46,17.9538003 C46.0014037,17.2742142 46.1246215,16.3889771 46.3696569,15.2980626 L46.9144321,13.1251863 C47.0699144,12.5171356 47.2239758,11.8733268 47.3766208,11.1937407 L47.5634092,10.3621461 C47.6276808,10.0760045 47.660406,9.88822697 47.6615857,9.79880775 L47.6917128,9.66467958 L48.1262607,8.10879285 C48.2789057,7.42920674 48.477504,6.41878465 48.7220617,5.07749627 C48.9666193,3.7362079 49.1652176,2.72578581 49.3178627,2.0461997 C49.3660663,1.83159356 49.4838635,1.64381601 49.6712575,1.4828614 C49.8586516,1.3219068 50.0657765,1.2414307 50.2926384,1.2414307 C50.8976036,1.2414307 51.0795742,1.777938 50.8385557,2.8509687 L50.034687,6.17734724 C49.7719261,7.17884256 49.501964,8.29656611 49.2247928,9.53055142 C49.4882853,9.61997064 49.9886747,9.66467958 50.725976,9.66467958 L51.7752072,9.66467958 C51.8371194,9.55737651 51.8801258,9.45007505 51.9042276,9.34277198 C52.0970424,8.48434742 52.3255287,7.21461347 52.5896933,5.53353204 C52.810851,3.95975368 53.0318933,2.68107794 53.2528269,1.69746647 C53.2970136,1.50074417 53.4145158,1.33532109 53.6053369,1.20119225 C53.7961581,1.06706341 54.0049966,1 54.2318585,1 C54.3641946,1 54.5432011,1.04470894 54.7688833,1.13412817 L55,1.2414307 C54.4295896,3.78093669 53.7629087,7.16987449 52.9999373,11.4083458 L51.7307215,18.195231 C51.6744839,18.4456048 51.5310472,18.6423242 51.3004072,18.7853949 C51.0697672,18.9284657 50.8221148,19 50.5574426,19 Z M54.6857275,19 C54.2586726,19 54.0340412,18.8335783 54.0118265,18.5007299 C53.9814496,18.2905099 54.009591,17.9927027 54.0962515,17.6072993 C54.2656335,16.8540108 54.5132262,15.925553 54.8390368,14.8218978 C55.1724417,13.7707977 55.4317096,12.8335808 55.616848,12.010219 C55.8256212,11.0817472 56.1678932,9.68906038 56.6436743,7.83211679 L57.6354747,3.68029197 C57.6709267,3.52262695 57.6949871,3.28613296 57.7076564,2.97080292 L57.7680209,2.31386861 L57.7975641,2.18248175 C57.8881638,1.77956003 58.0230673,1.48175279 58.2022786,1.28905109 C58.38149,1.0963494 58.6555016,1 59.0243217,1 C59.5290229,1 60.0527018,1.13138555 60.5953742,1.39416058 C61.1380466,1.65693562 61.4999586,1.98977901 61.6811211,2.39270073 C62.0549794,3.23358085 62.1000997,4.28466523 61.8164834,5.5459854 C61.6037711,6.49197553 61.3381779,7.28466834 61.0196959,7.92408759 C60.7012139,8.56350685 60.2673957,9.15474181 59.7182282,9.69781022 C60.1399239,10.1532869 60.3632064,10.7357629 60.3880822,11.4452555 C60.412958,12.1547481 60.3052545,13.0437903 60.0649684,14.1124088 C59.8246823,15.1810272 59.4120937,16.1094851 58.8271902,16.8978102 C58.1604172,17.7912453 57.343155,18.4043779 56.3753789,18.7372263 C55.7924633,18.9124096 55.2292518,19 54.6857275,19 Z M58,8 C58.7366316,7.98177074 59.3076883,6.87891719 59.7131871,4.69140625 C60.1490983,2.33983199 60.0412854,1.56339796 59.4803146,1.63836945 C59.0373974,1.74226779 59.0373974,2.40363809 58.7501691,3.953125 L58,8 Z M56,17 C56.6853609,16.8803413 57.2726494,16.5555582 57.7618831,16.025641 C58.2511167,15.4957238 58.5723795,14.8888923 58.7256811,14.2051282 C58.8866478,13.4871759 58.9770025,12.8547036 58.996748,12.3076923 C59.0102448,11.8803397 58.9817299,11.5256424 58.9112022,11.2435897 C58.8406746,10.9615371 58.719055,10.7008559 58.5463398,10.4615385 C58.3568779,10.2051269 58.1032664,10.0512823 57.7854974,10 C57.484726,10.9743638 57.1542158,12.2649492 56.7939571,13.8717949 C56.7709618,13.9743595 56.6775658,14.2991426 56.5137662,14.8461538 L56.2565705,15.7179487 C56.2489054,15.7521369 56.2534461,15.7777777 56.2701927,15.7948718 L56,17 Z M65.3399173,19 C64.8432618,19 64.4182427,18.8569378 64.0648473,18.5708092 C63.7114519,18.2846807 63.4577655,17.8988464 63.3037807,17.4132948 C62.9969668,16.355486 62.9225615,15.2023184 63.0805623,13.9537572 C63.1841524,12.7745606 63.3635704,11.6387338 63.6188217,10.5462428 C63.667441,10.3381492 63.7175074,10.1647406 63.7690224,10.0260116 L63.8784153,9.55780347 C63.8986733,9.47109783 63.8992512,9.42774566 63.8801491,9.42774566 L63.989542,8.95953757 L64.4436117,7.13872832 C64.5923653,6.58381225 64.8754016,5.69942803 65.2927291,4.48554913 C65.5827169,3.65317503 65.9907851,2.84682471 66.5169459,2.06647399 C66.7316929,1.71965145 66.9653957,1.45520322 67.218061,1.27312139 C67.4707264,1.09103955 67.7307701,1 67.9982,1 C68.7622853,1 69.4205781,1.12572129 69.9730981,1.37716763 C70.5256181,1.62861397 70.9593242,1.97976653 71.2742293,2.43063584 C71.5549818,2.86416402 71.7551281,3.39739568 71.8746743,4.03034682 C71.9942205,4.66329796 72.0282415,5.33525656 71.9767384,6.04624277 C71.9211837,6.77457012 71.7981954,7.5462387 71.6077698,8.36127168 L71.5591508,8.56936416 C71.433551,9.1069391 71.3296586,9.59248338 71.2474705,10.0260116 L70.9297128,11.5086705 C69.7628498,16.5029151 67.8996032,19 65.3399173,19 Z M64.8678843,18 C65.205342,18 65.5443499,17.8704647 65.8849183,17.6113903 C66.2254867,17.3523158 66.5219239,16.9994439 66.7742389,16.5527638 C67.3392053,15.6415365 67.7799311,14.6588551 68.0964295,13.6046901 C68.3989288,12.6934628 68.625902,11.9073177 68.7773561,11.2462312 C68.961557,10.442207 69.1374454,9.38805789 69.3050266,8.08375209 C69.5077289,6.70797749 69.6868511,5.68062874 69.8423985,5.00167504 L69.9529185,4.51926298 C70.0709706,3.84030928 69.9670203,3.25070044 69.6410644,2.75041876 C69.3151085,2.25013709 68.8334278,2 68.1960077,2 C67.5585876,2 67.0569526,2.34840523 66.6910877,3.04522613 C66.3767173,3.59910941 66.1192487,4.3137868 65.9186744,5.18927973 C65.8409007,5.52875658 65.7847817,5.81462754 65.7503158,6.04690117 L65.5845358,6.77051926 L65.2458532,8.00335008 C65.1223975,8.37856134 65.0095044,8.78950084 64.9071706,9.2361809 C64.6861295,10.2010098 64.4952595,11.1568909 64.3345547,12.1038526 C64.1025438,13.4438928 63.9912072,14.748179 64.0005415,16.0167504 C63.9975958,17.3389234 64.2867072,18 64.8678843,18 Z M73,18.6459909 L73.1915457,17.5839637 C73.2375928,17.2753389 73.2995851,16.9304104 73.3775244,16.5491679 L73.5923744,15.623298 C73.5820599,15.4235996 73.8606038,13.4357224 74.4280144,9.65960666 C74.9954251,5.88349095 75.3715643,3.45991458 75.5564434,2.38880484 C74.5751614,2.35249604 73.9667135,2.24357126 73.7310813,2.06202723 C73.5732595,1.91679201 73.5129065,1.75340484 73.5500205,1.57186082 C73.5797116,1.4266256 73.6961123,1.29500815 73.8992261,1.17700454 C74.1023398,1.05900092 74.2976502,1 74.4851631,1 C74.9624689,1 75.534623,1.03630826 76.2016427,1.10892587 C76.8308578,1.19969788 77.4011563,1.24508321 77.9125553,1.24508321 L78.3216724,1.24508321 C78.850118,1.24508321 79.0698008,1.46293277 78.9807273,1.89863843 C78.9361906,2.11649126 78.8147731,2.29349402 78.6164713,2.42965204 C78.4181695,2.56581006 78.2082187,2.63388805 77.9866125,2.63388805 C77.8331928,2.63388805 77.6171569,2.60665685 77.3384983,2.55219365 L76.8493701,2.44326778 L76.7425598,2.71558245 C76.4122456,4.33132427 76.0301296,6.90921074 75.5962002,10.4493192 C75.189761,13.7715749 74.7991218,16.3494613 74.4242708,18.183056 C74.3797341,18.4009088 74.2512715,18.5915272 74.0388793,18.7549168 C73.8264871,18.9183064 73.6094912,19 73.3878849,19 L73,18.6459909 Z" id="path-6"></path>
    </defs>
    <g id="Page-1" stroke="none" stroke-width="1" fill="none" fill-rule="evenodd">
        <g id="crunchbot" transform="translate(0.000000, 1.000000)">
            <g id="teeths" transform="translate(20.000000, 190.000000)" fill="#F9FDFF" stroke="#021220" stroke-width="2">
                <g id="down" transform="translate(70.500000, 27.000000) scale(1, -1) translate(-70.500000, -27.000000) translate(0.000000, 23.000000)">
                    <path d="M59,7 L82,7 L82,4 C82,2.34314575 80.6568542,1 79,1 L62,1 C60.3431458,1 59,2.34314575 59,4 L59,7 Z" id="Rectangle" transform="translate(70.500000, 4.000000) rotate(-180.000000) translate(-70.500000, -4.000000) "></path>
                    <path d="M30,7 L53,7 L53,4 C53,2.34314575 51.6568542,1 50,1 L33,1 C31.3431458,1 30,2.34314575 30,4 L30,7 Z" id="Rectangle" transform="translate(41.500000, 4.000000) rotate(-180.000000) translate(-41.500000, -4.000000) "></path>
                    <path d="M1,7 L24,7 L24,4 C24,2.34314575 22.6568542,1 21,1 L4,1 C2.34314575,1 1,2.34314575 1,4 L1,7 Z" id="Rectangle" transform="translate(12.500000, 4.000000) rotate(-180.000000) translate(-12.500000, -4.000000) "></path>
                    <path d="M117,7 L140,7 L140,4 C140,2.34314575 138.656854,1 137,1 L120,1 C118.343146,1 117,2.34314575 117,4 L117,7 Z" id="Rectangle" transform="translate(128.500000, 4.000000) rotate(-180.000000) translate(-128.500000, -4.000000) "></path>
                    <path d="M88,7 L111,7 L111,4 C111,2.34314575 109.656854,1 108,1 L91,1 C89.3431458,1 88,2.34314575 88,4 L88,7 Z" id="Rectangle" transform="translate(99.500000, 4.000000) rotate(-180.000000) translate(-99.500000, -4.000000) "></path>
                </g>
                <g id="up">
                    <path d="M59,7 L82,7 L82,4 C82,2.34314575 80.6568542,1 79,1 L62,1 C60.3431458,1 59,2.34314575 59,4 L59,7 Z" id="Rectangle" transform="translate(70.500000, 4.000000) rotate(-180.000000) translate(-70.500000, -4.000000) "></path>
                    <path d="M30,7 L53,7 L53,4 C53,2.34314575 51.6568542,1 50,1 L33,1 C31.3431458,1 30,2.34314575 30,4 L30,7 Z" id="Rectangle" transform="translate(41.500000, 4.000000) rotate(-180.000000) translate(-41.500000, -4.000000) "></path>
                    <path d="M1,7 L24,7 L24,4 C24,2.34314575 22.6568542,1 21,1 L4,1 C2.34314575,1 1,2.34314575 1,4 L1,7 Z" id="Rectangle" transform="translate(12.500000, 4.000000) rotate(-180.000000) translate(-12.500000, -4.000000) "></path>
                    <path d="M117,7 L140,7 L140,4 C140,2.34314575 138.656854,1 137,1 L120,1 C118.343146,1 117,2.34314575 117,4 L117,7 Z" id="Rectangle" transform="translate(128.500000, 4.000000) rotate(-180.000000) translate(-128.500000, -4.000000) "></path>
                    <path d="M88,7 L111,7 L111,4 C111,2.34314575 109.656854,1 108,1 L91,1 C89.3431458,1 88,2.34314575 88,4 L88,7 Z" id="Rectangle" transform="translate(99.500000, 4.000000) rotate(-180.000000) translate(-99.500000, -4.000000) "></path>
                </g>
            </g>
            <g id="bulb" transform="translate(218.000000, 1.000000)" stroke="#021220">
                <path d="M0,59.8938005 C0,43.823908 0,30.7056285 0,20.5389618 C0,5.2889618 6.99327125,0 14.0941476,0 C21.1950239,0 27.6417461,3.68405602 28.320873,20.5389618 C28.7736243,31.7755657 29,44.8938452 29,59.8938005 L0,59.8938005 Z" id="Path-6" stroke-width="3"></path>
                <path d="M6.48417852,59.9409734 C6.5412298,48.4500173 6.71265285,38.5215768 8.51124046,29.018966 C10.3098281,19.5163552 13.2346456,22.432964 14.2509044,24.3238383 C16.4834962,28.4778496 16.0091258,36.2454241 15.6304553,40.1158835 C15.2517847,43.9863429 14.9394713,43.5493348 14.4955505,43.80156 C11.9956294,45.2219549 10.8073312,41.5970503 10.9652506,38.5215768 C11.1286589,35.3392047 12.2453077,32.5757322 13.5862525,29.9469003 C13.8313014,29.4664984 18.0448033,22.3316218 20.5495411,29.018966 C23.054279,35.7063103 19.7747504,49.8676279 19.387355,60.2919589" id="Path-8"></path>
            </g>
            <g id="antenna" transform="translate(179.000000, 0.000000)">
                <path d="M0.164706552,52.5112859 L0.164706552,44 C0.164706552,42.8954305 1.06013705,42 2.16470655,42 L29.7199835,42 C30.824553,42 31.7199835,42.8954305 31.7199835,44 L31.7199835,51.5112859 C31.7199835,52.0635707 31.2722682,52.5112859 30.7199835,52.5112859 L0.164706552,52.5112859 Z" id="Path-2" stroke="#021220" stroke-width="3" fill="#F9FDFF"></path>
                <rect id="Rectangle" fill="#021220" x="24" y="42" width="8" height="11"></rect>
                <g id="Group-2" transform="translate(14.000000, 0.000000)">
                    <path d="M3.3588314,42 L0.230017782,30.7671214 C0.0976602613,30.2919393 0.331568339,29.7912249 0.780938047,29.587796 L9.78322827,25.5124741 C10.2863593,25.2847075 10.5095863,24.6921979 10.2818197,24.1890669 C10.2427646,24.102795 10.1916528,24.0225082 10.130016,23.9506122 L2.40785752,14.9431364 C2.12945542,14.6183956 2.08842474,14.1525414 2.30577719,13.7841363 L6,7.52255394" id="Path-3" stroke="#021220" stroke-width="3"></path>
                    <circle id="Oval" fill="#021220" cx="8.5" cy="4.5" r="4.5"></circle>
                </g>
            </g>
            <g id="body" transform="translate(0.000000, 43.000000)" stroke="#021220">
                <path d="M177.400421,2.42089405 L177.400421,211.381744 L185.886836,243.894666 L200.228556,248.327716 L261.126617,243.76699 C262.190692,243.6873 263.004806,242.786297 262.976552,241.719617 L257.171048,22.5474341 C257.096444,19.7309533 255.072208,17.3457595 252.305357,16.8141006 L177.400421,2.42089405 Z" id="Rectangle" stroke-width="4" fill="#F9FDFF"></path>
                <path d="M198.700924,248.850434 C200.896948,233.596139 202.002308,224.578806 202.002308,222 C202.002308,221.285002 199.068206,219.491962 190.56326,215.102882 C188.987357,214.289618 187.836169,213.684143 186.741967,213.087282 C180.462839,209.662167 177.5,207.317907 177.5,204.57276 C177.5,196.405325 177.5,196.197879 177.5,177.5 L2,177.5 C1.72385763,177.5 1.5,177.723858 1.5,178 C1.5,189.914836 1.5,189.914836 1.5,201.829673 C1.5,207.62805 4.00823276,211.166866 9.02782504,214.254266 C10.0784092,214.900449 13.8447664,216.935548 14.5664794,217.382355 C16.8194333,218.77714 17.9839413,220.10978 17.9839413,222 C17.9839413,225.20205 17.3103562,233.201254 15.9604023,246.090012 C15.9513412,246.176524 15.9468013,246.263449 15.9468013,246.350434 C15.9468013,247.731141 17.0660867,248.850428 18.4467914,248.850434 L198.700924,248.850434 Z" id="Rectangle" stroke-width="3" fill="#F9FDFF"></path>
                <path d="M3.12173702,206.841585 L177.194127,206.841585" id="Line" stroke-width="2" stroke-linecap="round"></path>
                <path d="M187,211.63846 L187,4" id="Line" stroke-width="2" stroke-linecap="round"></path>
                <path d="M214.371957,247.192944 L217.329227,217.955189 C217.499604,216.270716 216.591019,214.661425 215.060693,213.937147 L202.561162,208.021333 C201.171902,207.363821 200.28226,205.968436 200.272404,204.431469 L199,6" id="Line" stroke-width="2" stroke-linecap="round"></path>
                <path d="M17,220.311585 L202,222" id="Line" stroke-width="2" stroke-linecap="round"></path>
                <g id="air1" transform="translate(226.000000, 49.500000) rotate(95.000000) translate(-226.000000, -49.500000) translate(211.000000, 30.000000)" stroke-linecap="round" stroke-width="3">
                    <polyline id="Path-5" points="-7.14092607e-15 8.58683696 20.3915517 6.09932221 29.4033115 5"></polyline>
                    <polyline id="Path-5" points="-7.14092607e-15 13.586837 20.3915517 11.0993222 29.4033115 10"></polyline>
                    <polyline id="Path-5" points="-7.14092607e-15 18.586837 20.3915517 16.0993222 29.4033115 15"></polyline>
                    <polyline id="Path-5" points="-7.14092607e-15 23.586837 20.3915517 21.0993222 29.4033115 20"></polyline>
                    <polyline id="Path-5" points="-7.14092607e-15 28.586837 20.3915517 26.0993222 29.4033115 25"></polyline>
                    <polyline id="Path-5" points="-7.14092607e-15 33.586837 20.3915517 31.0993222 29.4033115 30"></polyline>
                    <polyline id="Path-5" points="-7.14092607e-15 38.586837 20.3915517 36.0993222 29.4033115 35"></polyline>
                    <polyline id="Path-5" points="-5.36456923e-15 3.58683696 20.3915517 1.09932221 29.4033115 -2.22044605e-16"></polyline>
                </g>
                <g id="air2" transform="translate(242.000000, 234.500000) rotate(-5.000000) translate(-242.000000, -234.500000) translate(230.000000, 231.000000)" stroke-linecap="round" stroke-width="2">
                    <path d="M-2.84217094e-14,6.03648211 L2.99692249,2.84217094e-14" id="Path-7"></path>
                    <path d="M3,6.03648211 L5.99692249,2.84217094e-14" id="Path-7"></path>
                    <path d="M6,6.03648211 L8.99692249,2.84217094e-14" id="Path-7"></path>
                    <path d="M9,6.03648211 L11.9969225,2.84217094e-14" id="Path-7"></path>
                    <path d="M12,6.03648211 L14.9969225,2.84217094e-14" id="Path-7"></path>
                    <path d="M15,6.03648211 L17.9969225,2.84217094e-14" id="Path-7"></path>
                    <path d="M18,6.03648211 L20.9969225,2.84217094e-14" id="Path-7"></path>
                    <path d="M21,6.03648211 L23.9969225,2.84217094e-14" id="Path-7"></path>
                </g>
                <g id="floppy" transform="translate(17.000000, 190.061372)" stroke-width="2">
                    <path d="M0,1 L0,9 C-9.13419418e-16,9.55228475 0.44771525,10 1,10 L62.46994,10 C63.0222247,10 63.46994,9.55228475 63.46994,9 L63.46994,1 C63.46994,0.44771525 63.0222247,-1.01453063e-16 62.46994,0 L1,0 C0.44771525,1.01453063e-16 -6.76353751e-17,0.44771525 0,1 Z" id="Path-4"></path>
                    <path d="M62,8.72292158 L0,8.72292158 L60.8720287,0.868466266 C61.4197725,0.797789648 61.9211012,1.184529 61.9917779,1.73227279 C61.9972536,1.77471007 62,1.81745504 62,1.86024413 L62,8.72292158 Z" id="Path-9"></path>
                </g>
            </g>
            <g id="head" transform="translate(0.000000, 13.000000)">
                <path d="M176.167795,1.59890937 L188.167795,3.64140367 C188.64842,3.72320985 189,4.1396882 189,4.62722564 L189,34.255643 L175,31.5278356 L175,2.58473134 C175,2.03244659 175.447715,1.58473134 176,1.58473134 C176.056231,1.58473134 176.112361,1.58947416 176.167795,1.59890937 Z" id="Path-10" stroke="#021220" stroke-width="3" fill="#021220"></path>
                <path d="M177.5,177.5 L177.5,4 C177.5,2.61928813 176.380712,1.5 175,1.5 L16,1.5 C7.99187113,1.5 1.5,7.99187113 1.5,16 L1.5,177 C1.5,177.276142 1.72385763,177.5 2,177.5 L177.5,177.5 Z" id="Rectangle" stroke="#021220" stroke-width="3" fill="#F9FDFF"></path>
                <path d="M29,17.5 C23.2010101,17.5 18.5,22.2010101 18.5,28 L18.5,146 C18.5,151.79899 23.2010101,156.5 29,156.5 L137,156.5 C145.008129,156.5 151.5,150.008129 151.5,142 L151.5,32 C151.5,23.9918711 145.008129,17.5 137,17.5 L29,17.5 Z" id="Rectangle" stroke="#021220" stroke-width="3" fill="#F9FDFF"></path>
                <path d="M37,16 L145,16 C153.836556,16 161,23.163444 161,32 L161,142 C161,150.836556 153.836556,158 145,158 L37,158 C30.372583,158 25,152.627417 25,146 L25,28 C25,21.372583 30.372583,16 37,16 Z" id="Rectangle" fill="#021220"></path>
                <g id="eyes" transform="translate(22.000000, 32.000000)">
                    <g id="right">
                        <path d="M52.482043,51.0437846 C58.2625013,47.644018 63.7463326,39.3010858 63.7463326,27.7446109 C63.7463326,16.1881359 54.6762533,3.1466042 41.5427712,1 C35.5129137,0.0144489316 16.0919205,5.38754813 16.0919205,5.38754813 L26.0666667,55.2829069 C39.8232787,54.7233365 48.6284042,53.3102957 52.482043,51.0437846 Z" id="Oval" stroke="#021220" stroke-width="2" fill="#F9FDFF"></path>
                        <ellipse id="Oval" stroke="#021220" stroke-width="2" fill="#F9FDFF" cx="26.0666667" cy="29.3106847" rx="26.0666667" ry="25.9722222"></ellipse>
                        <ellipse id="Oval" stroke="#021220" stroke-width="3" fill="#021220" cx="26.0666667" cy="29.3106847" rx="18.4" ry="18.3333333"></ellipse>
                        <g id="Group" transform="translate(12.000000, 26.000000)" fill="#F9FDFF">
                            <ellipse id="Oval" cx="7.80606061" cy="7.77777778" rx="7.80606061" ry="7.77777778"></ellipse>
                        </g>
                        <path d="M44.4666667,10.0526764 C47.1692111,9.50312803 51.291978,8.74335728 55.4401286,8.00134474" id="Path" stroke="#040621" stroke-linecap="round"></path>
                        <path d="M39.3305482,6.86231257 C42.0330927,6.31276423 46.0406377,5.42296367 50.1887883,4.68095112" id="Path" stroke="#040621" stroke-linecap="round"></path>
                        <path d="M48.3930707,16.1881359 C51.6361241,15.6385876 54.8868037,14.9684587 59.8645844,14.2264461" id="Path" stroke="#040621" stroke-linecap="round"></path>
                    </g>
                    <g id="left" transform="translate(72.000000, 0.000000)">
                        <path d="M52.482043,51.0437846 C58.2625013,47.644018 63.7463326,39.3010858 63.7463326,27.7446109 C63.7463326,16.1881359 54.6762533,3.1466042 41.5427712,1 C35.5129137,0.0144489316 16.0919205,5.38754813 16.0919205,5.38754813 L26.0666667,55.2829069 C39.8232787,54.7233365 48.6284042,53.3102957 52.482043,51.0437846 Z" id="Oval" stroke="#021220" stroke-width="2" fill="#F9FDFF"></path>
                        <ellipse id="Oval" stroke="#021220" stroke-width="2" fill="#F9FDFF" cx="26.0666667" cy="29.3106847" rx="26.0666667" ry="25.9722222"></ellipse>
                        <ellipse id="Oval" stroke="#021220" stroke-width="3" fill="#021220" cx="26.0666667" cy="29.3106847" rx="18.4" ry="18.3333333"></ellipse>
                        <g id="Group" transform="translate(12.000000, 26.000000)" fill="#F9FDFF">
                            <circle id="Oval" cx="8" cy="8" r="8"></circle>
                        </g>
                        <path d="M44.4666667,10.0526764 C47.1692111,9.50312803 51.291978,8.74335728 55.4401286,8.00134474" id="Path" stroke="#040621" stroke-linecap="round"></path>
                        <path d="M39.3305482,6.86231257 C42.0330927,6.31276423 46.0406377,5.42296367 50.1887883,4.68095112" id="Path" stroke="#040621" stroke-linecap="round"></path>
                        <path d="M48.3930707,16.1881359 C51.6361241,15.6385876 54.8868037,14.9684587 59.8645844,14.2264461" id="Path" stroke="#040621" stroke-linecap="round"></path>
                    </g>
                </g>
                <circle id="Oval" fill="#021220" cx="143.5" cy="164.5" r="2.5"></circle>
                <circle id="Oval" fill="#021220" cx="133.5" cy="164.5" r="2.5"></circle>
                <circle id="Oval" fill="#021220" cx="123.5" cy="164.5" r="2.5"></circle>
                <path d="M59.4744678,127 L63.923951,120.216015 C64.2268463,119.754201 64.8467663,119.625371 65.3085811,119.928266 C65.3222658,119.937242 65.3357281,119.946552 65.3489559,119.956188 L80.3009034,130.848539 C80.7449874,131.17205 81.366898,131.076693 81.6936525,130.63499 L93.8968496,114.13885 C94.2253036,113.694849 94.8515017,113.60118 95.2955021,113.929634 C95.2992747,113.932425 95.3030275,113.935242 95.3067603,113.938086 L113.735741,127.976785 C114.162689,128.302023 114.770248,128.23222 115.112311,127.81863 L132.330548,107" id="Path-13" stroke="#F9FDFF" stroke-width="3" stroke-linecap="round"></path>
            </g>
            <g id="coin" transform="translate(212.000000, 134.128992)">
                <path d="M11.7413111,3.22084577 L11.7413111,77.56456 C11.7413111,78.1168447 12.1890263,78.56456 12.7413111,78.56456 C12.8295009,78.56456 12.9173032,78.552894 13.0024333,78.5298657 L16.0024333,77.718344 C16.4384804,77.6003901 16.7413111,77.2047574 16.7413111,76.7530383 L16.7413111,3.82345799 C16.7413111,3.34709165 16.4052853,2.93685595 15.938248,2.84304183 L12.938248,2.24042961 C12.3967791,2.13166435 11.8696602,2.48243995 11.7608949,3.02390885 C11.7478711,3.08874544 11.7413111,3.15471406 11.7413111,3.22084577 Z" id="Path-11" stroke="#021220" stroke-width="3" fill="#F9FDFF"></path>
                <g id="networks" transform="translate(3.000000, 0.871008)">
                    <circle id="Oval" fill="#021220" cx="243" cy="38" r="38"></circle>
                    <g id="polkadot_icon" transform="translate(206.000000, 3.000000)" fill-rule="nonzero">
                        <circle id="Oval" fill="#FFFFFF" cx="35" cy="35" r="35"></circle>
                        <g id="Group" transform="translate(16.760563, 10.845070)">
                            <path d="M18.9015148,-7.4606986e-15 C8.47869891,0.0383625945 0.0390129502,8.33738436 -3.35731437e-14,18.5864833 C-3.35731437e-14,20.6393794 0.336095849,22.678888 0.996064893,24.6265073 C1.48802337,25.9498501 2.94448745,26.6659447 4.31628076,26.2589462 C5.64750348,25.7614965 6.35433733,24.3305049 5.92895706,22.9940684 C5.36754092,21.4794781 5.11764259,19.8703214 5.19376641,18.2599955 C5.41237085,11.0142716 11.4473231,5.25112152 18.8190998,5.2483199 C26.1908765,5.24551827 32.2303572,11.0040795 32.4546573,18.2496351 C32.6789574,25.4951907 27.0068639,31.6043216 19.6485634,32.0424442 C19.6485634,32.0424442 17.0042486,32.2056881 15.6761622,32.3689319 C15.189165,32.4365152 14.7062388,32.5299336 14.2294968,32.6487786 C14.1586836,32.7010033 14.0595939,32.6940786 13.9970034,32.6325312 C13.9344128,32.5709838 13.9273707,32.4735457 13.9804806,32.4039127 L14.3955075,30.2001203 L16.8856695,19.1111958 C17.1836464,17.7362998 16.2917397,16.3841944 14.8935399,16.0911838 C13.4953402,15.7981732 12.1203173,16.6752145 11.8223402,18.0501105 C11.8223402,18.0501105 5.89338331,45.1252761 5.89338331,45.3701421 C5.72837915,46.0303686 5.84718858,46.7282764 6.22185916,47.2996675 C6.59652975,47.8710587 7.19398293,48.2654867 7.87365494,48.3901542 C8.54654232,48.548679 9.25610385,48.4288095 9.83660611,48.0585433 C10.4171084,47.688277 10.8177146,47.1000399 10.9448546,46.4312272 C11.02786,46.1047395 11.7749086,42.5133739 11.7749086,42.5133739 C12.3385225,39.8058504 14.558016,37.7303802 17.3362702,37.3128899 C17.9054501,37.2312678 20.3126066,37.068024 20.3126066,37.068024 C30.3008904,36.160242 37.825797,27.7339731 37.4505733,17.8772056 C37.0753495,8.02043801 28.9308635,0.170947801 18.9015148,-7.4606986e-15 Z" id="Path" fill="#000000"></path>
                            <path d="M19.9537425,42.804881 C19.1279738,42.6402664 18.2695377,42.8061076 17.56848,43.2656898 C16.8674223,43.7252718 16.3815756,44.4406824 16.2184996,45.2535393 C16.0409868,46.0664915 16.2054646,46.915482 16.6745047,47.6073159 C17.1435448,48.2991498 17.8772508,48.77498 18.7086615,48.9265269 C19.5349062,49.1113395 20.4020834,48.9536102 21.106431,48.4904008 C21.8107786,48.0271914 22.2902006,47.299339 22.4320465,46.4778686 C22.7220881,44.8020634 21.6366898,43.1934414 19.9537425,42.804881 L19.9537425,42.804881 Z" id="Path" fill="#E6007A"></path>
                        </g>
                    </g>
                    <circle id="Oval" fill="#F9FDFF" cx="140" cy="38" r="38"></circle>
                    <g id="kusama_icon" transform="translate(103.000000, 3.000000)">
                        <circle id="Oval" fill="#000000" fill-rule="nonzero" cx="35" cy="35" r="35"></circle>
                        <g id="Group" transform="translate(8.750000, 20.416666)">
                            <g id="Clipped">
                                <mask id="mask-2" fill="white">
                                    <use xlink:href="#path-1"></use>
                                </mask>
                                <g id="path-1"></g>
                                <path d="M44.2895293,1.53789352 C43.5852084,0.983726851 42.7355942,0.223233025 41.2021836,0.0239274691 C39.7546528,-0.164575617 38.2892978,0.800084877 37.2954707,1.43905093 C36.3016435,2.07747685 34.4209336,3.95818672 33.6404552,4.52639659 C32.859977,5.09352623 30.8723227,5.62608795 27.6791127,7.54244599 C24.4853626,9.45880401 11.9231713,17.5142052 11.9231713,17.5142052 L15.1876775,17.5498534 L0.638371914,25.0726929 L2.09346451,25.0726929 L-5.40123457e-05,26.6692978 C-5.40123457e-05,26.6692978 1.84446759,27.1662114 3.4059645,26.1723843 L3.41190586,26.6212269 C3.41190586,26.6212269 20.7493287,19.7870448 24.1088966,21.5613503 L22.0715509,22.1625077 C22.2492516,22.1625077 25.5494059,22.3758565 25.5494059,22.3758565 C25.5494059,22.3758565 25.6558102,24.4337269 27.6434644,25.746767 C29.6305787,27.0598071 29.666227,27.7695293 29.666227,27.7695293 C29.666227,27.7695293 28.6372916,28.1956866 28.6372916,28.7282485 C28.6372916,28.7282485 30.1626002,28.2664429 31.5825849,28.3020909 C33.0020293,28.3371992 34.243773,28.7282485 34.243773,28.7282485 C34.243773,28.7282485 34.1373687,28.1600386 32.7530323,27.7695293 C31.3692362,27.3795601 30.0205478,25.8888194 29.3464737,25.0726929 C28.6723998,24.2565664 28.2192362,22.8014738 28.783125,21.3463812 C29.2616743,20.1111188 30.9198535,19.4278626 34.3501773,17.6557176 C38.3973227,15.5659799 39.318233,14.0007022 39.8859028,12.7940664 C40.4535727,11.5879707 41.3053472,9.17469907 41.7757948,8.03935957 C42.3774922,6.58372685 43.1153008,5.80378858 43.7186187,5.34252315 C44.3219366,4.88071758 47.0544213,3.85178242 47.0544213,3.85178242 C47.0544213,3.85178242 44.9679243,2.07099537 44.2895293,1.53789352" id="Path" fill="#FFFFFF" fill-rule="nonzero" mask="url(#mask-2)"></path>
                            </g>
                        </g>
                    </g>
                    <circle id="Oval" fill="#021220" cx="38" cy="38" r="38"></circle>
                    <g id="westend_icon" transform="translate(1.000000, 3.000000)">
                        <circle id="Oval" fill="#E6007A" fill-rule="nonzero" cx="35.0114713" cy="35.0091687" r="34.9763876"></circle>
                        <g id="Clipped">
                            <mask id="mask-4" fill="white">
                                <use xlink:href="#path-3"></use>
                            </mask>
                            <g id="Oval"></g>
                            <g id="Group" mask="url(#mask-4)" fill-rule="nonzero">
                                <g transform="translate(-118.438995, -121.244019)">
                                    <rect id="Rectangle" fill="url(#linearGradient-5)" x="105.882578" y="118.478693" width="118.919617" height="78.3472488"></rect>
                                    <path d="M117.157635,8.00562201 C118.632104,25.636244 125.855185,42.5735646 137.520359,55.8383971 C149.484121,69.4410885 166.057835,78.6030502 183.826196,81.8629486 C192.579964,83.4742464 201.725598,83.7740072 210.516208,82.2564055 C218.877691,80.813744 227.314115,77.1603469 232.036184,69.7220096 C234.145395,66.4246411 235.433194,62.5084928 235.377093,58.5739234 C235.320993,54.3772727 233.547967,50.5925837 230.953529,47.3697368 C228.079426,43.7914474 224.402333,40.7561603 220.762919,37.9645335 C217.160766,35.2101675 213.278529,32.7744019 209.041687,31.106878 C199.634809,27.4348086 190.284031,29.4770335 181.269438,33.2805622 C171.713098,37.3084928 162.474522,42.0674043 153.21698,46.6952751 C134.272769,56.1569976 114.917924,65.5065191 93.8833134,69.1413278 C88.6013278,70.0590311 83.2260227,70.5840311 77.8693481,70.6401316 C73.0725478,70.6962321 67.8652512,70.6589713 63.218122,69.3473086 C61.165012,68.7666268 59.0558014,67.7919856 57.8613636,65.9373206 C56.3123206,63.5392344 56.8532297,60.5412081 57.5251794,57.9555622 C58.6639354,53.6462919 60.8104067,49.6367823 63.5911483,46.1706938 C69.3397727,38.9948565 77.4960706,34.235945 86.2496292,31.7440789 C91.2516567,30.3202153 96.440323,29.5892344 101.628989,29.3083134 C106.631017,29.0462321 111.950305,28.8586722 116.914992,29.6830144 C121.7677,30.4700957 125.127261,33.5053828 126.788379,38.1144139 C128.46817,42.7422847 128.169539,47.6510766 128.001573,52.4849282 C127.758959,59.7357057 128.356178,70.0967105 136.493804,73.0570574 C140.711932,74.5935407 145.751304,72.9821172 149.876071,71.7830742 C154.168888,70.527512 158.349671,68.8788278 162.3439,66.8742823 C166.468541,64.794378 170.388038,62.3401914 174.046292,59.5108852 C177.182057,57.112799 180.821471,54.4145335 182.930682,51.0045455 C184.423624,48.5876196 185.282297,45.2714115 182.631758,43.3602273 C182.482715,43.2480263 182.221053,43.266866 182.07201,43.3602273 C174.400897,48.0630383 170.145634,56.5132775 168.54049,65.1690789 C167.047129,73.2441986 167.08439,83.1931998 172.478409,89.9194378 C176.808612,95.3154246 185.300718,96.7580861 190.657476,91.8867225 C193.214653,89.563451 194.017225,85.9848684 192.841208,82.7435586 C191.441208,78.902811 187.857895,76.1861244 183.956818,75.2491627 C178.824462,74.0124402 173.411603,75.3990431 168.558911,77.0854067 C164.060825,78.6591507 159.749462,80.7200478 155.624695,83.0995036 C147.020472,88.0645634 139.21878,94.2661782 131.267835,100.205544 C123.148882,106.257279 114.805932,112.121663 105.436495,116.074946 C94.9284988,120.534135 83.4873086,122.782462 72.0648325,122.632577 C66.9136364,122.557629 61.03439,122.463949 56.3123206,120.159417 C51.2356459,117.667522 49.6677632,112.383953 50.9555622,107.137847 C52.1872608,102.116603 55.2480861,97.8635167 58.6823565,94.1350538 C62.0982057,90.425305 65.9988636,87.1652392 70.1796053,84.3548565 C78.5226256,78.7713517 87.8920754,74.9305622 97.4855084,72.101256 C99.8931818,71.3895335 102.319528,70.7523325 104.745915,70.1716507 C107.3589,69.5344498 110.251842,68.5979067 112.958188,68.7666268 C119.061384,69.1597488 119.994611,76.5043062 121.039809,81.2446711 C125.705849,102.172829 127.516304,124.056516 136.381812,143.804282 C137.483014,146.277476 138.696208,148.694402 140.040024,151.036429 C140.954587,152.647727 142.07442,154.39015 144.052841,154.708666 C148.382961,155.364456 151.014617,149.856059 152.302458,146.633463 C154.000879,142.361621 155.438056,136.665873 154.168888,132.09427 C153.049013,128.103517 149.316154,126.623343 145.489976,126.97933 C140.711932,127.429013 136.195173,129.789755 131.865096,131.682099 C126.452446,134.042799 121.095792,136.572177 115.795139,139.176495 C105.268487,144.347661 94.8911543,149.818589 84.3458553,154.989713 C63.3110646,165.388397 41.1379785,174.700239 17.5837321,177.192105 C11.9284689,177.791627 6.25478469,177.978768 0.580681818,177.697847 C0.767404306,177.884988 0.954126794,178.072548 1.14043062,178.259689 C1.28989234,170.952811 6.85179426,164.994856 13.4590909,162.577805 C20.7940191,159.898589 28.8569976,161.922057 35.4081938,165.725419 C42.481878,169.847548 47.9319976,176.049163 52.9714115,182.419079 C57.8797847,188.639533 62.6395335,194.953768 68.1080742,200.724581 C88.2840251,221.952333 114.749941,237.109928 143.268941,243.592464 C149.838768,245.091268 157.304444,246.496711 163.05311,241.99988 C167.233852,238.720933 169.119079,233.419019 169.80945,228.303828 C170.612022,222.177153 169.940072,215.675778 168.055263,209.792763 C165.964474,203.272548 161.466388,198.682356 154.448846,198.157775 C146.871136,197.595514 139.069486,200.593122 131.865096,202.504306 C122.887554,204.883971 113.928726,207.263218 104.951226,209.642883 C96.0856758,211.984868 87.2387978,214.345694 78.3732895,216.687679 C74.0057416,217.849043 69.6198565,219.010825 65.2523923,220.172608 C60.9033493,221.333971 56.5363038,222.776675 52.1127392,223.582596 C47.8570574,224.350419 44.4232057,222.364713 44.2549043,217.867883 C44.1242823,214.626615 45.2814593,211.422608 46.6814593,208.556041 C50.0596292,201.642285 53.8669258,194.953768 58.0665072,188.508493 C66.6896531,175.243242 76.9548266,163.046244 88.5639833,152.310455 C91.3822787,149.706178 94.2752632,147.1768 97.2428947,144.741118 C96.981567,144.741118 96.7202811,144.741118 96.4589533,144.741118 C105.511142,151.785873 106.425706,164.376495 108.254791,174.85012 C109.43064,181.594737 110.90512,188.302512 112.622213,194.934928 C113.499432,198.307656 114.451319,201.661124 115.477844,204.996172 C116.31774,207.750538 117.045652,210.692045 118.352146,213.258852 C119.229371,214.963636 120.573204,216.687679 122.588936,216.9686 C124.548672,217.249522 126.172446,216.050478 127.329665,214.570514 C129.028086,212.359569 130.091986,209.605203 131.267835,207.094498 C132.667626,204.11573 134.011441,201.099282 135.280652,198.063995 C140.264007,186.166507 144.258152,173.838218 147.207069,161.285024 C150.529306,147.06439 152.507727,132.525197 153.12366,117.91109 C153.142333,117.349005 152.358433,117.16165 152.078475,117.630047 C145.489976,128.965371 142.429067,142.230496 143.530227,155.30823 C144.444791,166.26884 148.793541,177.922667 160.085437,181.632416 C165.722069,183.487081 171.8814,183.24384 177.667285,182.269199 C183.695574,181.257715 189.612081,179.477572 195.174402,176.948445 C206.167584,171.945873 215.667823,163.627093 220.688397,152.460377 C223.058852,147.195514 224.421172,141.443541 224.346651,135.654139 C224.29055,130.651609 223.394617,124.618597 219.437859,121.114956 C214.902512,117.08671 208.892644,119.466187 204.655801,122.688786 C200.176136,126.09872 196.42494,130.445502 193.494318,135.241926 C179.477572,158.137368 184.647608,187.646471 192.29988,211.834988 C199.933732,235.929306 212.532057,258.431459 229.124402,277.467105 C231.159091,279.809091 233.267883,282.094976 235.433194,284.324761 C235.955682,284.849342 236.664892,284.0811 236.216926,283.537679 C213.857117,255.077572 190.022787,227.779246 164.788876,201.829844 C139.722721,176.067584 113.294121,151.579767 85.6710407,128.571914 C72.4005981,117.517637 58.5333134,107.175317 45.4493421,95.914988 C39.2531699,90.5751854 33.2805622,84.954378 27.8677033,78.8090311 C25.068122,75.6238636 22.4180024,72.2888158 19.9914474,68.8038876 C18.9087919,67.2301435 17.8449761,65.6375598 16.8561005,64.0072967 C16.3520335,63.1829545 15.8668062,62.3586124 15.4,61.5342703 C14.6907895,60.2979665 14.7096292,59.7357057 15.3254785,58.4805622 C18.722488,51.6605861 28.1850478,50.3861842 34.8857057,49.7117225 C43.769677,48.8312799 52.7285885,49.2997608 61.5196172,50.8546651 C79.2505084,53.9837321 96.029701,61.1784091 111.838313,69.6282297 C142.671681,86.0785646 170.630861,108.224563 203.946591,119.72849 C211.860108,122.463949 219.997608,124.543648 228.303409,125.649079 C232.44689,126.211172 236.608792,126.529647 240.789533,126.585873 C242.525299,126.604629 243.383971,126.97933 244.242644,125.405507 C245.082476,123.869149 245.549282,122.145437 245.679904,120.384254 C246.239653,113.414444 242.040072,106.800616 236.870036,102.491346 C231.7561,98.2382596 225.354366,95.8212919 218.840431,94.8470275 C202.938457,92.4862859 188.063038,98.9502333 174.289115,106.257279 C170.444139,108.299504 166.636423,110.397955 162.791866,112.421423 C159.170873,114.332524 153.534282,118.45444 149.428146,115.887596 C146.367195,113.976537 145.657943,109.629755 145.247362,106.332219 C144.650102,101.479569 144.276824,96.5894916 143.959522,91.7180861 C142.709025,72.3076555 143.287614,52.784689 145.695287,33.4865431 C146.31122,28.4651316 147.076447,23.4441388 147.953666,18.459988 C148.662919,14.4320574 149.148188,10.0851077 150.827978,6.30041866 C152.5264,2.51572967 155.904653,0.0615430622 160.141453,1.5791866 C164.210287,3.040311 167.271112,6.76889952 170.126794,9.86028708 C190.508014,31.9877392 204.301196,60.3729067 228.732536,78.6214713 C235.13427,83.3993062 242.525299,88.1395036 250.569856,89.2074641 C257.139474,90.0880742 264.717225,87.8397428 268.226017,81.7880084 C270.241866,78.3032895 270.316388,74.2 269.887261,70.3026914 C269.420873,66.0311005 268.562201,61.7779306 267.610167,57.5808612 C265.687679,49.1498804 263.01872,40.9060407 259.65939,32.9619617 C256.26238,24.9617823 252.15616,17.2797847 247.39683,10.0101675 C247.266208,9.8041866 247.004964,9.67314593 246.762141,9.74808612 C231.04689,15.3125 225.484988,32.5123206 217.608732,45.5711722 C213.185167,52.9157297 207.249821,60.3352273 199.224522,63.8574163 C190.769677,67.5860048 181.698565,64.9819378 175.446292,58.4240431 C167.420574,49.9930622 165.647548,38.020634 164.079665,26.9851675 C163.799581,27.1911483 163.538337,27.4159689 163.258254,27.6219498 C177.387201,33.8235646 183.266447,49.374701 189.071172,62.565012 C190.601376,66.0495215 192.169258,69.5160287 193.923864,72.8883373 C196.126017,77.1226675 198.645933,81.1697309 200.885347,85.404061 C205.028828,93.2544438 208.276376,102.39765 205.588995,111.297279 C203.031818,119.747225 195.323445,123.044769 188.025778,126.548403 C184.722129,128.140987 181.418481,129.883409 178.7311,132.412787 C175.782057,135.185742 173.803469,138.783038 172.198325,142.455317 C168.895096,150.043409 166.655263,158.999222 159.22689,163.702033 C155.027434,166.36262 150.603995,166.025179 146.199228,164.020634 C142.46637,162.33427 139.013469,160.3857 134.982022,159.448906 C120.237229,156.057673 102.767494,163.008732 96.4776256,177.360407 C92.8380861,185.679187 94.8724821,194.897667 98.7173325,202.766806 C102.226208,209.942644 107.3589,216.275299 113.406112,221.465012 C126.825724,232.968959 144.164833,238.365072 161.634689,238.964593 C170.948206,239.283194 180.466866,238.402751 189.5564,236.341687 C196.797967,234.693002 204.058373,232.032416 209.97488,227.404545 C215.835706,222.832775 219.680263,216.312978 220.12823,208.799701 C220.688397,199.656579 216.787321,190.813218 212.569318,182.944079 C208.108493,174.625299 202.863935,166.26884 201.520036,156.750891 C200.288337,148.094839 203.050658,139.794815 207.138038,132.262907 C211.113636,124.918374 216.134211,118.229602 220.352213,111.034946 C224.999761,103.109623 227.818182,94.603451 230.169797,85.7412919 C234.369378,69.8342105 239.24049,49.5806818 256.22512,42.6857656 C265.79988,38.7888756 276.307835,41.3929426 285.677452,44.57811 C293.945574,47.3885766 302.269797,50.4238636 310.089952,54.358433 C317.480981,58.0681818 324.498983,62.8082536 329.70628,69.3284689 C330.396651,70.1904904 331.460885,71.0520933 331.012919,72.1200957 C330.695574,72.8694976 330.098146,73.5816388 329.631758,74.2372608 C328.399641,75.9613038 327.00006,77.5534689 325.450598,79.015012 C322.557656,81.7692524 319.216746,83.9988696 315.689533,85.7975179 C308.373026,89.5447368 300.216687,91.5307356 292.097608,92.4675299 C282.76567,93.5542464 273.321531,93.4980203 263.970754,92.4862859 C244.821232,90.4065909 226.231459,84.2798744 208.892644,75.9985646 C200.288337,71.8952751 191.964115,67.2113038 183.901136,62.1337919 C176.099402,57.2061603 168.521651,51.9415072 160.570873,47.2575359 C152.862374,42.723445 144.743421,38.7139354 136.064551,36.3719498 C128.804145,34.4046651 118.408137,32.9808014 114.357987,41.1869617 C113.032835,43.8663876 113.144827,47.051555 114.89926,49.5057416 C116.355068,51.5479665 118.669432,52.6909091 120.983809,53.5152512 C126.657757,55.5386364 134.403433,55.9133373 137.576334,61.8901316 C141.029234,68.3919258 138.13625,76.429366 141.253218,83.0620335 C141.850437,84.3361005 142.429067,85.5726974 143.866202,85.834988 C145.396657,86.1160347 146.983128,85.9473983 148.49491,85.6288816 C151.779844,84.954378 155.382039,82.9870933 158.797596,83.5866567 C163.407715,84.3923266 163.05311,89.6946172 164.228708,93.1233194 C165.162321,95.8212919 167.81244,98.7628409 170.892105,97.563756 C171.358493,97.3764055 171.470694,96.6082057 170.892105,96.4770813 C156.856519,93.2919139 142.223714,94.0601136 127.926926,94.1537679 C112.827524,94.2662201 97.7467943,94.4161005 82.6474342,94.6222069 C67.5479067,94.8282715 52.4673445,95.0718481 37.3679426,95.3528947 C31.917823,95.465305 26.1880383,95.1467883 20.9434809,96.9267225 C18.9648923,97.5824701 17.0239833,98.5567763 15.5678828,100.093134 C14.6723684,101.029928 12.9550239,103.3532 13.4218301,104.739635 C13.738756,105.676471 15.3438995,106.800616 16.0535287,107.493834 C17.1730263,108.58055 18.3302033,109.611041 19.5250598,110.622775 C21.6526914,112.402709 23.910945,114.070191 26.2441388,115.587835 C31.1340909,118.791687 36.3786483,121.395998 41.7915072,123.569371 C53.307177,128.197171 65.5136364,130.801489 77.7200538,132.712548 C106.630975,137.246681 136.027207,137.677608 165.199581,136.10378 C179.981639,135.298152 194.744856,133.986615 209.471232,132.431501 C215.182177,131.83198 220.893541,131.007596 226.642165,131.232416 C231.513696,131.419767 236.739414,132.244151 240.789533,135.129516 C242.786962,136.553463 244.279904,138.445807 245.28762,140.656669 C245.325299,140.431806 245.34372,140.206986 245.380981,139.982123 C239.483313,144.722362 232.409629,147.476561 225.149222,149.331435 C217.45927,151.29872 209.545754,152.535317 201.669498,153.547051 C185.263457,155.645502 168.652273,156.15137 152.153122,155.102123 C143.922177,154.577542 135.803224,153.453355 127.628295,152.366681 C124.884647,152.010694 121.861032,152.029408 119.826624,154.221555 C118.314828,155.832853 118.053523,158.099898 118.240162,160.217063 C118.501467,163.083672 119.397346,165.838038 120.069267,168.610825 C120.909154,172.133014 121.599725,176.405024 117.269618,177.697847 C114.003373,178.690909 110.158523,178.072548 106.817656,177.959928 C102.524839,177.828888 98.2507356,177.697847 93.9579605,177.566806 C74.8455742,176.967285 55.7148923,176.386184 36.6026316,175.786663 C36.0613038,175.767823 35.8188995,176.573744 36.3225478,176.835825 C54.707177,186.503947 73.0913876,196.152811 91.4755981,205.820514 C99.9118541,210.261244 108.273421,215.113517 117.194963,218.523505 C125.3139,221.615311 134.310114,223.263995 142.746328,220.434689 C150.473331,217.849043 156.725855,212.209689 162.231699,206.363935 C167.999163,200.2561 173.18762,193.586005 177.741806,186.503947 C186.905861,172.226794 193.457057,156.207554 196.797967,139.551238 C200.642943,120.440459 200.381699,100.861292 200.791986,81.4507356 C200.997548,71.6704545 201.389414,61.8528708 202.583852,52.1286483 C203.199701,47.051555 204.039952,41.9924641 205.197129,37.0087321 C206.148744,32.9058612 207.399282,28.7648923 209.676376,25.1866029 C211.97189,21.6078947 215.331639,18.8723684 219.549641,18.0291866 C223.469139,17.2425239 227.444737,18.3477871 229.908553,21.6078947 C233.417344,26.2730263 233.566806,33.2989833 238.288876,37.0836722 C244.074761,41.7303828 252.175,37.1213517 257.083792,33.3739234 C262.776316,29.0273923 268.319378,22.4510766 275.654725,21.0272129 C277.427751,20.6897727 279.36866,20.670933 281.048325,21.3642344 C283.49372,22.3761364 284.296292,24.6243421 284.333553,27.1162081 C284.389234,32.0438397 283.773385,37.0652512 283.306998,41.9740431 C282.859031,46.5642344 282.802931,51.8288876 280.432476,55.9133373 C278.06244,60.0166268 273.396053,61.6092105 269.234151,63.2394737 C264.568182,65.075299 259.883373,66.9115431 255.216986,68.7477871 C250.868361,70.4525718 246.444797,72.5324761 241.778828,73.2257775 C236.683732,73.9936005 231.849462,72.363756 227.314115,70.152811 C223.301256,68.1855263 219.437859,65.8996411 215.705084,63.4642943 C200.605682,53.5901914 187.671172,40.8311005 173.038577,30.3202153 C158.984234,20.2401316 142.447697,11.7153708 124.791328,11.5654904 C117.381602,11.5089713 108.758732,12.4270933 104.223301,19.0599282 C100.378451,24.6804426 100.154468,32.0811005 99.6132237,38.6389952 C98.8479964,47.8009569 96.1789952,56.4383373 94.4619019,65.4315789 C93.0060945,73.1508373 92.8941029,80.8512141 95.5444318,88.3268541 C100.17314,101.404629 111.446364,112.102907 124.82863,115.718959 C132.219701,117.723727 139.629402,116.843146 147.09512,115.775185 C155.046065,114.632285 164.154187,113.020987 171.564055,117.142915 C179.253589,121.433469 182.146531,130.595383 181.624043,138.970389 C181.306699,143.954205 179.944378,148.806812 178.301555,153.490825 C177.051435,157.088164 174.176914,161.659767 176.323385,165.425658 C177.144378,166.849522 178.394916,168.011304 179.514833,169.173086 C181.082715,170.802931 182.650598,172.414354 184.293002,173.969258 C187.167105,176.667524 190.24677,179.196651 193.69988,181.126675 C201.202691,185.304486 209.172309,185.154605 217.104665,182.306878 C221.285407,180.808074 225.279844,178.859629 229.348385,177.098325 C233.678589,175.224821 238.064892,173.519617 242.525299,171.983134 C251.129605,169.004366 259.957895,166.66238 268.879545,164.938756 C286.909151,161.472374 305.442823,160.554336 323.714833,162.278044 C332.729844,163.121352 341.669916,164.620156 350.479785,166.737321 C351.188995,166.906041 351.4875,165.819199 350.778289,165.650478 C315.446711,157.144348 277.838457,158.849342 243.402811,170.48433 C239.091447,171.945873 234.835766,173.557297 230.636184,175.318182 C226.399342,177.098325 222.274701,179.14055 218.000598,180.770395 C213.651974,182.419079 209.023266,183.655801 204.338457,183.31878 C200.045514,183.000179 195.995395,181.332656 192.412081,179.00951 C188.828349,176.704785 185.674163,173.800538 182.669019,170.802931 C181.362799,169.491268 180.05616,168.161184 178.805622,166.793421 C178.040311,165.950239 177.275419,165.088636 176.901974,163.982955 C176.323385,162.296758 176.864713,160.61052 177.443301,159.017978 C180.485287,150.661687 183.751675,142.02439 182.538397,132.956124 C181.549522,125.592853 177.648445,118.641803 170.724222,115.494139 C163.762321,112.327769 155.792661,113.4332 148.49491,114.463648 C140.487949,115.587835 132.592978,116.768206 124.660664,114.519874 C117.549577,112.496364 111.073086,108.411914 105.959067,103.072153 C100.845048,97.7323505 97.0562141,91.0810945 95.3950957,83.8489474 C93.3606998,75.0431818 95.2831041,66.2370813 97.3735167,57.6373804 C98.4560467,53.2154904 99.5572488,48.8124402 100.154468,44.297189 C100.658409,40.6251196 100.826417,36.9153708 101.199695,33.2428828 C102.002225,25.6923445 103.999318,17.4485048 111.875658,14.4881579 C116.093773,12.9144139 120.890477,12.6519139 125.369916,12.7268541 C129.868002,12.820634 134.347416,13.476256 138.714839,14.5630981 C147.505742,16.7740431 155.792661,20.6897727 163.519498,25.3925837 C178.880562,34.7232656 191.851914,47.3697368 206.167584,58.143122 C213.260108,63.4827153 220.800179,68.6540072 228.975359,72.1950359 C232.876017,73.8813995 237.000658,74.9494019 241.274761,74.4436603 C245.772847,73.9002392 250.009689,72.0078947 254.190849,70.3592105 C258.856818,68.5229665 263.541627,66.6867225 268.207596,64.8504785 C271.82817,63.4266148 275.785347,62.1714713 278.771651,59.5858254 C281.906998,56.8879785 283.026914,52.9345694 283.586663,48.9811603 C284.258612,44.2595096 284.632057,39.482177 284.967823,34.7416866 C285.136124,32.399701 285.341268,30.0577153 285.378529,27.7157297 C285.415789,25.8794856 285.229486,24.0059809 284.14683,22.4694976 C282.467165,20.0714115 279.31256,19.47189 276.569079,19.752811 C269.532656,20.4649522 263.896232,26.291866 258.707356,30.5822967 C253.5189,34.8731459 243.477333,42.0489833 237.635347,34.9665072 C233.77195,30.2825359 233.809211,23.2565789 229.04988,19.1348684 C224.010467,14.7879187 216.134211,16.5864833 211.654964,20.8773325 C205.682356,26.5916268 204.039952,35.6225478 202.658792,43.4167464 C199.261782,62.6022727 199.709749,82.1439952 199.187261,101.55451 C198.683194,120.477929 196.965849,139.307661 190.657476,157.256758 C184.890431,173.707177 175.94994,189.033074 164.471531,202.110766 C158.890915,208.44384 152.657063,214.907536 144.83674,218.373624 C135.915215,222.308194 126.209791,220.79055 117.381602,217.418242 C108.124127,213.896053 99.4452572,208.780861 90.6916986,204.17183 C81.6022069,199.394079 72.512799,194.616328 63.4232656,189.838577 C54.5388756,185.173445 45.6549043,180.508313 36.7705144,175.842763 C36.6771531,176.199043 36.5842105,176.536065 36.4908493,176.892344 C53.8669258,177.435347 71.2622608,177.959928 88.6386304,178.503349 C96.9442225,178.765849 105.343176,179.402632 113.648768,179.252751 C116.019118,179.21549 118.762762,178.87805 120.442544,177.004545 C122.308978,174.943481 121.842356,171.964713 121.301095,169.472847 C120.274569,164.601316 115.888471,153.959264 124.306059,153.303475 C126.116471,153.153594 127.964228,153.547051 129.737339,153.828098 C131.790407,154.146615 133.843475,154.427661 135.896543,154.689952 C140.133343,155.233289 144.388816,155.664217 148.662919,155.982733 C165.274103,157.2568 181.997069,156.938283 198.533732,155.027183 C207.324761,154.015449 216.15305,152.703911 224.756938,150.549276 C232.409629,148.638218 239.85634,145.752853 246.052931,140.769079 C246.258493,140.600443 246.239653,140.300682 246.146292,140.094575 C242.170694,131.419767 231.737679,129.920879 223.245156,130.089516 C217.235287,130.220682 211.244258,131.120006 205.29049,131.738283 C198.030084,132.487727 190.769677,133.162231 183.50927,133.743038 C154.747434,136.047596 125.761866,136.815754 97.0189115,134.042841 C83.8046112,132.768774 70.5342105,130.895185 57.6746411,127.578894 C46.1962321,124.618597 34.9041268,120.346772 25.1053828,113.564324 C22.5858852,111.82186 20.1965909,109.929516 17.9383373,107.849821 C16.930622,106.913026 15.904067,105.976232 14.9892943,104.945742 C14.4483852,104.346178 14.4107057,104.233768 14.6723684,103.46561 C14.9147727,102.791106 15.2509569,102.154073 15.6800837,101.573266 C18.591866,97.6761663 24.4895335,96.8892524 28.9876196,96.6644318 C36.136244,96.308445 43.3405502,96.3646292 50.488756,96.2334629 C57.8052632,96.1023385 65.1217703,95.9899282 72.4378589,95.8775179 C87.182823,95.6714115 101.92762,95.484061 116.672362,95.3716507 C123.988756,95.3154246 131.286465,95.2591986 138.602889,95.2217285 C145.583295,95.1842584 152.563744,95.1655443 159.52552,95.8212919 C163.220993,96.1772787 166.879246,96.739372 170.500239,97.563756 C170.500239,97.2077691 170.500239,96.8330682 170.500239,96.4770813 C167.08439,97.7885766 165.255263,93.4230801 164.714354,90.818762 C164.228708,88.5142464 163.892943,85.9661543 162.176017,84.2049342 C159.189545,81.1135048 154.728804,82.6686184 151.201256,83.699067 C149.054868,84.3361005 146.31122,85.3291208 144.052841,84.7295574 C141.906453,84.14875 141.197201,80.0830144 140.898571,78.1906699 C140.152016,73.3940789 140.823923,68.3919258 139.405419,63.7075359 C136.773762,55.0517344 127.534976,54.9206938 120.461208,52.1286483 C116.056446,50.3866029 112.827524,46.3394139 115.328529,41.5055622 C118.669442,35.0602871 126.69506,35.3600478 132.760945,36.7089713 C144.687404,39.3507177 155.531376,45.327512 165.77817,51.7916268 C176.192763,58.3491029 186.308852,65.337799 197.115311,71.2584928 C218.747069,83.0807895 242.506878,91.8305383 267.181041,93.9102333 C278.696711,94.8844976 290.604665,94.5285108 301.877931,91.8680084 C311.620574,89.563451 321.419318,85.2728947 328.175658,77.6472488 C329.76238,75.8486842 331.161962,73.8813995 332.337978,71.8014952 C332.43134,71.6331938 332.449761,71.3895335 332.337978,71.2396531 C326.25317,62.3586124 317.182476,56.4194976 307.570455,51.9787679 C302.661663,49.6933014 297.603828,47.7632775 292.527153,45.9086124 C286.405084,43.659988 280.227333,41.3745215 273.787919,40.2688397 C267.759629,39.2385167 261.506938,39.3134569 255.758313,41.6177632 C251.260227,43.4351675 247.34073,46.4331938 244.130443,50.0491627 C236.590371,58.5366627 233.11884,69.4595096 230.281579,80.2516507 C228.639175,86.4532656 227.127392,92.7111065 224.869139,98.7441268 C222.797189,104.308708 219.941926,109.442404 216.787321,114.444934 C211.094797,123.456961 204.338457,132.244151 201.333313,142.642667 C199.858792,147.738852 199.504187,153.041184 200.43738,158.268535 C201.501615,164.226615 204.077213,169.809868 206.857955,175.131041 C212.64384,186.203768 220.688397,198.195036 218.541926,211.347667 C216.731639,222.345873 207.2875,229.18427 197.488756,232.800658 C186.252751,236.960048 173.654426,238.252871 161.765311,237.87817 C138.192267,237.147189 113.947398,226.992165 101.498325,205.951974 C98.344055,200.611962 95.8430622,194.579067 95.4884151,188.302512 C95.0964653,181.557476 97.7094916,175.374701 102.188906,170.42823 C109.411968,162.502865 120.591855,158.699462 131.137171,159.973529 C133.750156,160.292004 136.34451,160.929037 138.808158,161.903343 C141.570478,162.990018 144.127488,164.545215 146.889809,165.650478 C151.723828,167.580502 156.632578,166.999402 160.794856,163.833074 C169.753349,157.013224 170.369617,145.040879 176.584629,136.347356 C182.855742,127.578894 194.689175,126.848206 201.968002,119.353772 C209.471232,111.615795 208.220694,99.6059809 204.338457,90.444061 C201.85622,84.6171471 198.440371,79.277512 195.435646,73.7315191 C192.99067,69.1974282 190.91872,64.4757775 188.847189,59.7545455 C184.983373,50.948445 181.101555,41.7115431 174.513098,34.5545455 C171.433433,31.2194976 167.7936,28.502811 163.631699,26.6854067 C163.164892,26.4790072 162.735766,26.8164474 162.810287,27.322189 C164.247548,37.3273325 165.796591,47.9692584 171.974761,56.2880383 C176.958074,63.0146531 184.703708,67.7358852 193.270335,66.6494617 C201.501615,65.6187201 208.239115,59.8106459 213.241268,53.5529306 C218.728648,46.6952751 222.23744,38.676256 226.548804,31.0696172 C231.326974,22.6382177 237.374103,14.2072368 246.855502,10.8533493 C246.650359,10.7595694 246.426376,10.6846292 246.220813,10.5908493 C256.057237,25.6174043 263.074821,42.4236842 266.807596,60.0166268 C268.562201,68.3169856 271.511244,79.539677 263.261543,85.3103648 C255.646531,90.6314115 246.090191,87.933439 238.624641,83.8302333 C211.393301,68.8976675 196.35,39.7630981 177.200478,16.5303828 C174.774342,13.5700359 172.254426,10.6846292 169.641567,7.91184211 C167.065969,5.17631579 164.359749,2.2159689 160.832117,0.736004785 C157.939049,-0.463038278 154.691459,-0.200956938 152.302458,1.95388756 C150.062709,3.99611244 148.980221,7.0875 148.270969,9.9729067 C146.068565,18.9661483 144.93006,28.3713517 143.922177,37.5709928 C142.839647,47.2947967 142.223714,57.0562799 142.07442,66.8366029 C141.925084,76.6169258 142.223714,86.3970813 142.988983,96.1585646 C143.324916,100.430365 143.5489,104.814617 144.370144,109.030191 C144.911388,111.803146 145.937943,114.913331 148.345616,116.637039 C151.257231,118.716747 154.728804,117.611312 157.677763,116.224868 C161.783732,114.276298 165.75933,112.046722 169.753349,109.892087 C177.667285,105.620245 185.655323,101.310975 194.241208,98.4817943 C207.772727,94.0226435 224.626316,93.7415969 236.105144,103.46561 C241.778828,108.280789 247.061065,117.161642 243.23451,124.618589 C242.655921,125.761489 241.797667,125.499199 240.621651,125.480443 C239.613935,125.461728 238.624641,125.442972 237.616926,125.405507 C235.433194,125.311831 233.249462,125.143212 231.084151,124.918374 C226.810048,124.468704 222.554785,123.738004 218.374043,122.782462 C183.807775,114.969516 154.803451,93.2731998 124.716681,75.6799641 C109.281304,66.6494617 93.174061,58.3867823 76.0027512,53.2343301 C67.7346292,50.7613038 59.2425239,49.0372608 50.619378,48.4188995 C42.5940789,47.8570574 34.0458732,47.9692584 26.206878,49.9742225 C23.1828947,50.7424641 20.1593301,51.9226675 17.6770933,53.8526914 C16.5944378,54.6958732 15.6239833,55.6700957 14.8586722,56.8130383 C14.2989234,57.6558014 13.1978469,59.4171053 13.3657297,60.4851077 C13.5151914,61.3282895 14.4107057,62.3962919 14.8402512,63.1268541 C15.3254785,63.9511962 15.8295455,64.7755383 16.3331938,65.5814593 C17.45311,67.3611842 18.6291268,69.1036483 19.8608254,70.8088517 C22.1190789,73.9375 24.545634,76.9539474 27.1023923,79.8581938 C38.1332536,92.3364055 51.3474282,102.585 64.3376196,112.871106 C92.7821112,135.241926 119.919943,159.074163 145.732632,184.330263 C171.433433,209.493002 195.846352,235.985825 218.78433,263.714952 C224.421172,270.516089 229.964234,277.411005 235.433194,284.362022 C235.694438,284.09994 235.955682,283.83744 236.216926,283.575359 C219.829725,266.581519 206.802273,246.42177 198.011244,224.481878 C193.64378,213.577452 190.302871,202.242225 188.119139,190.681758 C185.636902,177.510287 184.703708,163.664354 188.2125,150.605502 C191.086603,139.907183 197.096471,129.190191 206.428828,122.857414 C209.135048,121.021279 212.475957,119.522392 215.779605,120.402977 C218.560766,121.152427 220.427153,123.606854 221.50939,126.136232 C223.730383,131.307356 223.6186,137.602667 222.554785,143.036124 C220.296531,154.652482 212.942763,164.620156 203.255801,171.196471 C193.811663,177.604067 181.866447,181.651256 170.444139,181.913337 C164.620993,182.044378 158.517638,180.901854 153.926232,177.079486 C149.614785,173.500778 147.151094,168.217285 145.825951,162.840096 C142.932967,151.055144 144.426118,138.05235 148.830885,126.848206 C150.006734,123.869149 151.425197,121.002543 153.030341,118.229602 C152.675736,118.135927 152.339761,118.042248 151.985156,117.94856 C150.93997,142.755078 145.900598,167.355682 137.091065,190.569557 C134.814013,196.583612 132.257004,202.504306 129.476053,208.293959 C128.37485,210.598266 127.255018,213.914474 124.977967,215.357177 C122.029007,217.230682 119.863952,214.158134 118.856081,211.722368 C116.448395,205.877033 114.917924,199.469019 113.350138,193.361184 C111.726322,187.04695 110.363834,180.658194 109.262632,174.250179 C107.433547,163.683194 106.369689,151.0739 97.2428947,143.972919 C96.981567,143.766854 96.7016089,143.766854 96.4589533,143.972919 C84.3831998,153.884282 73.5577751,165.238517 64.2069976,177.772787 C59.4849282,184.086603 55.1735646,190.700598 51.254067,197.557835 C49.2943182,200.986663 47.4467703,204.471591 45.7294258,208.01262 C44.4788876,210.579426 43.4895933,213.296112 43.2099282,216.163098 C42.985945,218.542344 43.3217105,221.184091 45.0202153,222.982656 C47.2784689,225.38116 50.6943182,225.1375 53.6245215,224.444199 C62.583433,222.327033 71.4674043,219.722548 80.3703828,217.362141 C98.1947608,212.621651 116.019118,207.900419 133.843475,203.159928 C141.215873,201.211483 149.96939,197.670455 157.640419,199.84372 C165.404725,202.054665 167.719079,210.654366 168.633852,217.774103 C169.398744,223.769737 169.1936,230.439833 166.45012,235.948146 C165.143481,238.571053 163.220993,240.838098 160.645395,242.26238 C156.819175,244.379545 152.358433,244.191986 148.17765,243.480263 C133.320903,240.913038 118.744098,235.311364 105.548487,228.097847 C92.2968421,220.86549 80.1463995,211.628589 69.6571172,200.761842 C64.1697368,195.065969 59.3731459,188.864354 54.5204545,182.644318 C49.6861842,176.461124 44.534988,170.372129 37.9276914,166.00634 C31.9739234,162.071938 24.7323565,159.46762 17.5276316,160.441926 C11.5554426,161.247554 5.82523923,164.732356 2.57769139,169.847548 C0.954126794,172.376675 0.0766148325,175.262081 0.0209330144,178.278529 C0.0209330144,178.597129 0.282177033,178.82195 0.580681818,178.840789 C43.9375598,180.864175 82.0501734,156.750891 119.639985,138.614402 C124.380706,136.3286 129.140078,134.117781 133.974139,132.038086 C138.173594,130.239396 142.914336,127.728774 147.636364,128.103517 C154.094199,128.628098 153.888888,135.654139 152.955694,140.525502 C152.507769,142.867488 151.798517,145.172045 150.827978,147.345437 C149.782751,149.706178 148.233624,152.816322 145.508648,153.547051 C142.559689,154.333965 141.122554,150.717913 140.021352,148.656932 C138.808158,146.37113 137.688325,144.010431 136.66177,141.630933 C134.720694,137.078086 133.152895,132.394073 131.809079,127.63512 C129.121406,118.098457 127.38564,108.336974 125.61253,98.5942464 C124.698008,93.6104306 123.783445,88.6079007 122.73826,83.6428828 C121.89836,79.6333313 121.338423,75.0055024 119.154703,71.445634 C116.821673,67.6048445 112.920843,67.3050837 108.852051,68.1294258 C104.484587,69.0098684 100.135837,70.1716507 95.8803648,71.4644737 C87.2014952,74.1062201 78.6905921,77.6284091 71.0194378,82.5374522 C63.9457536,87.0528289 56.8720694,92.9921531 52.6168062,100.355425 C48.8463517,106.856842 47.3534091,116.206112 54.8562201,120.684019 C58.4211124,122.819932 62.7701555,123.250859 66.8202751,123.569371 C71.9714713,123.962837 77.1787679,123.869149 82.3114593,123.307064 C92.0915311,122.220377 101.64762,119.447447 110.475825,115.044456 C118.594777,110.997476 125.948505,105.657715 133.190239,100.224258 C140.394629,94.8095574 147.505742,89.2449342 155.270048,84.6546172 C159.282865,82.2751196 163.463816,80.1767105 167.849701,78.5653708 C172.627871,76.804067 177.965789,75.230323 183.079725,76.2233852 C187.690012,77.1226675 192.449342,80.8886842 192.29988,86.0223385 C192.188098,89.6758612 189.313577,92.2427093 186.009928,93.2169737 C182.482715,94.2662201 178.451017,93.760311 175.558074,91.4183254 C172.217165,88.739067 170.406878,84.6733732 169.567045,80.5701675 C167.7936,71.989055 169.305383,62.0965311 173.430443,54.3956938 C174.363636,52.6536483 175.446292,50.9861244 176.715251,49.4869019 C177.984629,47.9692584 179.925538,45.6272727 181.810766,44.8967105 C182.501136,44.6346292 182.538397,44.559689 183.005203,45.3090909 C183.285287,45.7587321 183.322548,46.3955144 183.303708,46.9200957 C183.247608,48.0257775 182.78122,49.112201 182.258732,50.0491627 C181.082715,52.147488 179.197488,53.7589115 177.424462,55.3326555 C170.164055,61.7967703 161.578589,66.7616627 152.395778,69.8530502 C150.305365,70.5463517 148.17765,71.1647129 146.01259,71.6704545 C143.194294,72.3264952 140.133343,73.0382177 137.296376,72.1389354 C132.910281,70.7523325 130.502566,66.1433014 129.606717,61.9089713 C127.702943,52.7470096 131.659743,42.5358852 126.116471,34.1610048 C123.914109,30.8071172 120.591855,29.0646531 116.672362,28.502811 C111.763666,27.8095096 106.612303,27.9032895 101.666292,28.1842105 C84.2151914,29.1211722 65.1401914,36.3154306 57.8613636,53.6278708 C56.3680024,57.1688995 54.7444378,61.9650718 56.4802033,65.7125 C57.9731459,68.9349282 61.575299,70.2842703 64.8416866,70.8837919 C74.6215909,72.7196172 85.1297548,71.8764354 94.8725239,70.1339713 C116.187093,66.3120215 135.784551,56.7004187 154.99009,47.0888158 C164.714354,42.2361244 174.419737,37.0464115 184.591507,33.1679426 C189.500299,31.2944378 194.670335,29.9078349 199.970993,30.2075957 C205.103768,30.4885167 209.99372,32.3808612 214.398445,34.9665072 C218.579187,37.4211124 222.405323,40.4936603 225.989055,43.7726077 C229.66573,47.1264952 233.174522,51.0983254 234.089294,56.1758373 C235.82506,65.9561603 228.434031,74.5935407 220.072548,78.3217105 C211.300359,82.2564055 200.885347,82.6498624 191.441208,81.7880084 C181.791926,80.9261543 172.273266,78.2844498 163.538337,74.0873804 C146.535161,65.9184809 133.0036,51.8288876 125.239252,34.6106459 C121.450414,26.2169258 119.117388,17.2048445 118.352146,8.02404306 C118.221498,7.29348086 117.101635,7.29348086 117.157635,8.00562201 Z" id="Path" fill="#E6007A"></path>
                                </g>
                            </g>
                        </g>
                        <path d="M24.2681041,48.187799 L31.4341447,48.187799 L33.7188158,39.9032656 C34.0338577,38.760951 35.6401316,38.7616627 35.9541687,39.9042285 L38.230927,48.187799 L45.3831938,48.187799 L50.8672249,27.0035885 L44.1523325,27.0035885 L42.4375,35.4107476 C42.1883971,36.6316029 40.4710945,36.6653469 40.1750598,35.4551675 L38.1078409,27.0035885 L31.5572309,27.0035885 L29.5433911,35.5076675 C29.2558553,36.721866 27.5348684,36.6983373 27.2800299,35.4767285 L26.6752751,32.5775478 C25.9976734,29.3291208 23.1561842,27.0035885 19.8645933,27.0035885 L18.7978469,27.0035885 L24.2681041,48.187799 Z" id="Path" fill="#FFFFFF" fill-rule="nonzero"></path>
                    </g>
                </g>
                <rect id="Rectangle" fill="#F9FDFF" x="0" y="4.87100841" width="14" height="71"></rect>
                <path d="M11.7413111,4.87100841 L11.7413111,75.8710084" id="Path-12" stroke="#021220" stroke-width="3"></path>
            </g>
            <g id="name" transform="translate(110.000000, 268.000000)" fill-rule="nonzero">
                <g id="crunchbot">
                    <use fill="#FFFFFF" xlink:href="#path-6"></use>
                    <use fill="#021220" xlink:href="#path-6"></use>
                </g>
            </g>
        </g>
    </g>
</svg>