<?xml version="1.0" encoding="UTF-8"?>
<svg width="295px" height="347px" viewBox="0 0 295 347" version="1.1" xmlns="http://www.w3.org/2000/svg" xmlns:xlink="http://www.w3.org/1999/xlink">
    <!-- Generator: Sketch 55.2 (78181) - https://sketchapp.com -->
    <title>Ema</title>
    <desc>Created with Sketch.</desc>
    <g id="Robots" stroke="none" stroke-width="1" fill="none" fill-rule="evenodd">
        <g id="Desktop-HD" transform="translate(-497.000000, -352.000000)">
            <g id="ROBOTS_All_" transform="translate(149.000000, 251.000000)">
                <g id="Ema" transform="translate(350.000000, 101.000000)">
                    <g id="Group" transform="translate(0.000000, 146.000000)" stroke="#0F1923">
                        <path d="M20.8,40.5 L20.8,0.7 C9.8,0.7 0.9,9.6 0.9,20.6 C0.9,31.6 9.8,40.5 20.8,40.5 Z" id="Path" stroke-width="4" fill="#FFFFFF" fill-rule="nonzero" stroke-linecap="round" stroke-linejoin="round"></path>
                        <path d="M20.1,38.8 C20.1,38.8 -11.9,24 20.9,0.6" id="Path" stroke-width="2"></path>
                    </g>
                    <path d="M204.354375,84 L244.129812,82.1 L252.1,87.2 L227.9,109.9 L223.290679,105.893916 L208,105.893916 L194.456021,105.893916 C125.164913,112.509831 75.8795726,113.845192 46.6,109.9 C42.9293084,109.405403 48.3411532,219.533905 44.3,236.169562 C42.5030396,243.56686 36.1382566,250.871603 31.4463006,251.688602 C26.062293,252.626106 22.354223,246.421319 21.4,245.614811 C15.7423918,240.833004 22.9440698,92.4841807 23.0222266,89.4 C23.0738328,87.3635406 25.266424,85.5635406 29.6,84 L204.354375,84 Z" id="Path" fill="#FFFFFF" fill-rule="nonzero"></path>
                    <path d="M83.7,243 L67.3,255.2" id="Path" stroke="#0F1923" stroke-width="2"></path>
                    <path d="M249,87.2 L227.7,109.9" id="Path" stroke="#0F1923" stroke-width="2"></path>
                    <path d="M90.7,317.1 L69.8,339.6" id="Path" stroke="#0F1923" stroke-width="2"></path>
                    <path d="M227.7,317.1 L249,339.9" id="Path" stroke="#0F1923" stroke-width="2"></path>
                    <path d="M25.3,87.2 L46.6,109.9" id="Path" stroke="#0F1923" stroke-width="2"></path>
                    <path d="M45.5,234.2 L27.2,253.6" id="Path" stroke="#0F1923" stroke-width="2"></path>
                    <polygon id="Path" fill="#0F1923" fill-rule="nonzero" points="228.5 109.8 250.7 85.1 253.6 89.3 255.4 105.6 255 206.6 255.2 329.1 251.5 341.1 249.8 341.5 229.2 318.4 227.9 315.6 230.7 313.9 231.6 303.9 230.6 114"></polygon>
                    <polygon id="Path" fill="#0F1923" fill-rule="nonzero" points="221.6 320.2 228.7 316.5 250.7 340.5 246.5 343.9 227.6 344.6 80 345.1 71.4 340 68.7 333.6 68.8 295.6 68.4 258.6 65.6 253.4 32 254 29.6 252.1 45.2 234.6 50.4 239.1 61.9 240.6 75.8 240.6 81.5 242 85.2 246.6 86.1 254.1 85.9 276.7 86.2 309 87.8 315.3 92.6 319.6 113.8 320"></polygon>
                    <path d="M44.3,117.9 L44.3,229.3 C44.3,235.5 49.3,240.4 55.5,240.4 L74.7,240.4 C80.9,240.4 85.9,245.4 85.9,251.5 L85.9,308.8 C85.9,315 90.9,319.9 97.1,319.9 L220.7,319.9 C226.9,319.9 231.9,314.9 231.9,308.8 L231.9,240.4 L231.9,186.3 L231.9,117.9 C231.9,111.7 226.9,106.798526 220.7,106.798526 L55.6,106.798526 C49.3,106.7 44.3,111.7 44.3,117.9 Z" id="Path" stroke="#0F1923" stroke-width="3" fill="#FFFFFF"></path>
                    <g id="Group" transform="translate(68.000000, 128.000000)">
                        <path d="M117.7,51.3 L14.6,51.3 C6.8,51.3 0.5,45 0.5,37.2 L0.5,14.2 C0.5,6.4 6.8,0.1 14.6,0.1 L117.7,0.1 C125.5,0.1 131.8,6.4 131.8,14.2 L131.8,37.2 C131.7,45 125.4,51.3 117.7,51.3 Z" id="Path" stroke="#0F1923" stroke-width="3"></path>
                        <g transform="translate(8.000000, 0.000000)" fill-rule="nonzero">
                            <path d="M117.4,51.3 L14.3,51.3 C6.5,51.3 0.2,45 0.2,37.2 L0.2,14.2 C0.2,6.4 6.5,0.1 14.3,0.1 L117.4,0.1 C125.2,0.1 131.5,6.4 131.5,14.2 L131.5,37.2 C131.5,45 125.2,51.3 117.4,51.3 Z" id="Path" stroke="#0F1923" stroke-width="3" fill="#0F1923"></path>
                            <g transform="translate(26.000000, 15.000000)" fill="#FFFFFF" id="Oval">
                                <circle cx="11.6" cy="10.8" r="10.8"></circle>
                                <circle cx="68.1" cy="10.8" r="10.8"></circle>
                            </g>
                        </g>
                    </g>
                    <g id="Group" transform="translate(118.000000, 248.000000)">
                        <path d="M5.1,32.7 L71.5,32.7 C77.1,32.7 81.7,28.1 81.7,22.5 L81.7,10.5 C81.7,4.9 77.1,0.3 71.5,0.3 L55.1,0.3" id="Path" stroke="#0F1923" stroke-width="4.5" stroke-linecap="round" stroke-linejoin="round"></path>
                        <polygon id="Path" fill="#0F1923" fill-rule="nonzero" points="20 51.1 23.1 47.8 6.8 32.7 23.1 17.6 20 14.3 0.2 32.7"></polygon>
                    </g>
                    <path d="M82,344.5 C74.6,344.5 68.6,338.5 68.6,331.1 L68.6,257.4 C68.6,255.5 67.1,254 65.2,254 L34.8,254 C27.4,254 21.4,248 21.4,240.6 L21.4,95.5 C21.4,88.1 27.4,82.1 34.8,82.1 L241,82.1 C248.4,82.1 254.4,88.1 254.4,95.5 L254.4,331.2 C254.4,338.6 248.4,344.6 241,344.6 L82,344.5 L82,344.5 Z" id="Path" stroke="#0F1923" stroke-width="4"></path>
                    <g id="Group" transform="translate(241.000000, 0.000000)">
                        <g>
                            <g transform="translate(0.000000, 146.000000)">
                                <polygon id="Path" fill="#FFFFFF" fill-rule="nonzero" points="1.5 11.4 5.4 3.8 17.2 0.9 24.4 1.4 25.3 40.5 9.3 39.8 3 33.1 0.2 20.4"></polygon>
                                <path d="M11.6,1.3 C5.7,1.3 0.9,9.9 0.9,20.6 C0.9,31.3 5.7,39.9 11.6,39.9" id="Path" stroke="#0F1923" stroke-width="4" fill="#FFFFFF" fill-rule="nonzero" stroke-linecap="round" stroke-linejoin="round"></path>
                                <ellipse id="Oval" stroke="#0F1923" stroke-width="4" fill="#FFFFFF" fill-rule="nonzero" stroke-linecap="round" stroke-linejoin="round" cx="27.8" cy="20.6" rx="10.7" ry="19.3"></ellipse>
                                <ellipse id="Oval" stroke="#0F1923" stroke-width="2.0074" fill="#FFFFFF" fill-rule="nonzero" stroke-linecap="round" stroke-linejoin="round" cx="27.8" cy="20.6" rx="5.4" ry="9.7"></ellipse>
                                <path d="M11.1,1.3 L28.2,1.3" id="Path" stroke="#0F1923" stroke-width="4" stroke-linecap="round" stroke-linejoin="round"></path>
                                <path d="M11.1,39.8 L28.2,39.8" id="Path" stroke="#0F1923" stroke-width="4" stroke-linecap="round" stroke-linejoin="round"></path>
                                <path d="M24.4,13.5 C24.2,13.1 24.1,12.8 23.9,12.5 C25.1,12.5 26,12 26.5,11.5 C28.6,12.8 30.1,16.4 30.1,20.6 C30.1,24.6 28.7,28.1 26.8,29.5 C26.5,28.6 26,29.2 25.2,28.5 L24.8,29.1 L23.9,27.7 L23,25.4 L22.5,21.6 L22,17.3 L24.4,13.5 Z" id="Path" fill="#0F1923" fill-rule="nonzero"></path>
                            </g>
                            <g transform="translate(25.000000, 0.000000)">
                                <path d="M0.7,168 L17.5,165.9 L17.5,133.4 L17.5,118.7 C17.5,118.7 10.2,96.7 8.1,109.3 C6,121.9 24.9,133.4 24.9,133.4 L18.6,66.3 L6,70.4 L1.8,41.2 L12.3,31.8 L13.3,10.8" id="Path" stroke="#0F1923" stroke-width="3" stroke-linecap="round" stroke-linejoin="round"></path>
                                <circle id="Oval" fill="#0F1923" fill-rule="nonzero" cx="13.4" cy="6.5" r="6.5"></circle>
                            </g>
                        </g>
                        <path d="M37.2,155.7 L33.5,150.6 L28.6,147.4 L23.1,149.3 L19.8,155 C19.8,155 17.6,161.7 17.6,162.1 C17.6,162.5 17.1,166.5 17.1,166.5 L18.2,167 L19.4,180.8 L26.8,184.9 L31.8,184.7 C31.8,184.7 36.9,177.3 37,177 C37.1,176.7 38.8,164.2 38.8,164.2 L37.2,155.7 Z M33.4,167.7 L32.3,173.2 L29.7,176.5 L26.1,176 L22.6,169 L25,170 L23.4,160.9 L26.8,157.1 L30.9,157.9 L33.3,163 L33.4,167.7 L33.4,167.7 Z" id="Shape" fill="#0F1923" fill-rule="nonzero"></path>
                    </g>
                </g>
            </g>
        </g>
    </g>
</svg>