<?xml version="1.0" encoding="UTF-8"?>
<svg width="242px" height="93px" viewBox="0 0 242 93" version="1.1" xmlns="http://www.w3.org/2000/svg" xmlns:xlink="http://www.w3.org/1999/xlink">
    <title>TURBOFLAKES</title>
    <g id="Page-1" stroke="none" stroke-width="1" fill="none" fill-rule="evenodd">
        <g id="Artboard" transform="translate(-537.000000, -183.000000)">
            <g id="TURBOFLAKES" transform="translate(537.000000, 183.000000)">
                <g>
                    <g id="FLAKES" transform="translate(15.000000, 47.000000)" fill="#021220" fill-rule="nonzero">
                        <g id="S" transform="translate(187.000000, 0.000000)">
                            <path d="M19.3608696,45.2362264 C15.8304171,45.2362264 12.3913211,44.8413247 9.04347826,44.0515094 C5.69563543,43.2616942 2.94638757,42.1984972 0.795652174,40.8618868 L5.42173913,30.4120755 C7.45073478,31.5866725 9.72317583,32.5283612 12.2391304,33.2371698 C14.755085,33.9459784 17.1695537,34.3003774 19.4826087,34.3003774 C21.4710244,34.3003774 22.8913001,34.1079893 23.7434783,33.7232075 C24.5956564,33.3384257 25.0217391,32.7612617 25.0217391,31.9916981 C25.0217391,31.1006245 24.4637737,30.4323293 23.3478261,29.9867925 C22.2318785,29.5412556 20.395665,29.0552228 17.8391304,28.5286792 C14.5521575,27.8401223 11.8130544,27.1009473 9.62173913,26.3111321 C7.43042383,25.5213168 5.52319652,24.2252291 3.9,22.4228302 C2.27680348,20.6204312 1.46521739,18.1801412 1.46521739,15.1018868 C1.46521739,12.4286659 2.21593452,9.9985015 3.7173913,7.81132075 C5.21884809,5.62414001 7.46085465,3.90277357 10.4434783,2.64716981 C13.4261019,1.39156605 17.0478048,0.763773585 21.3086957,0.763773585 C24.2304494,0.763773585 27.1014352,1.07766982 29.9217391,1.7054717 C32.7420431,2.33327358 35.2275255,3.25471091 37.3782609,4.46981132 L33.0565217,14.8588679 C28.8767907,12.7526939 24.9203085,11.6996226 21.1869565,11.6996226 C17.4941844,11.6996226 15.6478261,12.5906829 15.6478261,14.3728302 C15.6478261,15.2234005 16.1956467,15.8613186 17.2913043,16.2866038 C18.386962,16.7118889 20.192741,17.1675447 22.7086957,17.6535849 C25.9550887,18.2611351 28.6941917,18.9598074 30.926087,19.7496226 C33.1579822,20.5394379 35.095644,21.8253999 36.7391304,23.6075472 C38.3826169,25.3896944 39.2043478,27.8198588 39.2043478,30.8981132 C39.2043478,33.5713341 38.4536307,35.9913728 36.9521739,38.1583019 C35.4507171,40.325231 33.2087106,42.0465974 30.226087,43.3224528 C27.2434633,44.5983083 23.6217604,45.2362264 19.3608696,45.2362264 Z"></path>
                            <path d="M19.206087,41.0441509 C16.6170885,41.0441509 14.1542146,40.5994887 11.8173913,39.7101509 C9.48056803,38.8208132 7.6565283,37.6714033 6.34521739,36.2618868 L7.50521739,34.3489811 C8.74928158,35.6578179 10.4220185,36.7233292 12.5234783,37.5455472 C14.624938,38.3677651 16.8356406,38.7788679 19.1556522,38.7788679 C22.5179878,38.7788679 25.0565132,38.1412391 26.7713043,36.8659623 C28.4860955,35.5906854 29.3434783,33.9294945 29.3434783,31.8823396 C29.3434783,30.3050236 28.8895698,29.0465456 27.9817391,28.1068679 C27.0739085,27.1671903 25.947543,26.4456629 24.6026087,25.9422642 C23.2576744,25.4388654 21.4420404,24.9186945 19.1556522,24.3817358 C16.5666537,23.7440974 14.4904426,23.1232483 12.9269565,22.5191698 C11.3634704,21.9150913 10.0353678,20.9838176 8.9426087,19.7253208 C7.84984961,18.4668239 7.30347826,16.7804634 7.30347826,14.6661887 C7.30347826,12.954633 7.75738677,11.3857304 8.66521739,9.95943396 C9.57304802,8.53313752 10.9599907,7.40050734 12.826087,6.56150943 C14.6921832,5.72251153 17.0205658,5.30301887 19.8113043,5.30301887 C21.761459,5.30301887 23.6779616,5.58827388 25.5608696,6.15879245 C27.4437775,6.72931103 29.0744859,7.50117752 30.4530435,8.47441509 L29.4947826,10.5383396 C28.0826016,9.56510205 26.5275447,8.82679497 24.8295652,8.32339623 C23.1315857,7.81999748 21.4588488,7.56830189 19.8113043,7.56830189 C16.5498388,7.56830189 14.0785591,8.22271044 12.3973913,9.53154717 C10.7162235,10.8403839 9.87565217,12.5351343 9.87565217,14.6158491 C9.87565217,16.1931651 10.3295607,17.4516431 11.2373913,18.3913208 C12.1452219,19.3309984 13.2715875,20.0525258 14.6165217,20.5559245 C15.961456,21.0593233 17.7939014,21.5962739 20.113913,22.1667925 C22.7029115,22.8044309 24.7707169,23.42528 26.3173913,24.0293585 C27.8640657,24.633437 29.1837627,25.547931 30.2765217,26.7728679 C31.3692808,27.9978049 31.9156522,29.6506059 31.9156522,31.7313208 C31.9156522,33.4428765 31.453338,35.0033892 30.5286957,36.4129057 C29.6040533,37.8224221 28.1834878,38.9466625 26.2669565,39.7856604 C24.3504252,40.6246583 21.9968255,41.0441509 19.206087,41.0441509 Z"></path>
                        </g>
                        <g id="E" transform="translate(154.000000, 2.000000)">
                            <polygon points="35.2928571 32.0657143 35.2928571 43 0.372857143 43 0.372857143 0 34.5128571 0 34.5128571 10.9342857 14.2928571 10.9342857 14.2928571 15.9714286 32.0528571 15.9714286 32.0528571 26.4142857 14.2928571 26.4142857 14.2928571 32.0657143"></polygon>
                            <polygon points="30.5905714 37.1484898 30.5905714 39.4897959 6.57857143 39.4897959 6.57857143 3.86122449 29.8448571 3.86122449 29.8448571 6.20253061 9.114 6.20253061 9.114 20.2503673 27.6574286 20.2503673 27.6574286 22.5407755 9.114 22.5407755 9.114 37.1484898"></polygon>
                        </g>
                        <g id="K" transform="translate(113.000000, 2.000000)">
                            <polygon points="17.2644231 28.7485714 14.0538462 32.3728571 14.0538462 43 0 43 0 0 14.0538462 0 14.0538462 15.6028571 27.9865385 0 43.5548077 0 26.5932692 18.92 44.4028846 43 27.8653846 43"></polygon>
                            <polygon points="17.0939423 22.807551 9.21375 31.0021224 9.21375 40.3673469 6.65394231 40.3673469 6.65394231 4.73877551 9.21375 4.73877551 9.21375 27.6428571 31.1477885 4.73877551 34.2597115 4.73877551 18.8004808 20.9243265 35.31375 40.3673469 32.2018269 40.3673469"></polygon>
                        </g>
                        <g id="A" transform="translate(64.000000, 2.000000)">
                            <path d="M34.467377,35.5057143 L18.2893443,35.5057143 L15.4308197,43 L0.834098361,43 L19.444918,0 L33.555082,0 L52.1659016,43 L37.3259016,43 L34.467377,35.5057143 Z M30.5140984,25.0628571 L26.3783607,14.2514286 L22.242623,25.0628571 L30.5140984,25.0628571 Z"></path>
                            <path d="M35.7046721,30.340449 L15.2449344,30.340449 L10.759918,40.3673469 L7.98827869,40.3673469 L24.2149672,4.73877551 L26.7850328,4.73877551 L43.0117213,40.3673469 L40.240082,40.3673469 L35.7046721,30.340449 Z M34.7471967,28.1518367 L25.4748033,7.58906122 L16.2528033,28.1518367 L34.7471967,28.1518367 Z"></path>
                        </g>
                        <g id="L" transform="translate(33.000000, 2.000000)">
                            <polygon points="0.345625 0 14.800625 0 14.800625 31.7585714 34.155625 31.7585714 34.155625 43 0.345625 43"></polygon>
                            <polygon points="4.125 3.51020408 6.71325 3.51020408 6.71325 36.7974694 27.1655 36.7974694 27.1655 39.1387755 4.125 39.1387755"></polygon>
                        </g>
                        <g id="F" transform="translate(0.000000, 1.000000)">
                            <polygon points="14.8845008 11.9260329 14.8845008 19.3032192 32.0349268 19.3032192 32.0349268 30.2460457 14.8845008 30.2460457 14.8845008 44.0167936 -5.68434189e-14 44 -5.68434189e-14 1 35.3678049 0.983206405 35.3678049 11.9260329"></polygon>
                            <polygon points="8.18263415 8.60661224 8.18263415 23.825102 27.1783415 23.825102 27.1783415 26.1664082 8.18263415 26.1664082 8.18263415 41.8938776 5.58536585 41.8938776 5.58536585 6.26530612 29.419122 6.26530612 29.419122 8.60661224"></polygon>
                        </g>
                    </g>
                    <g id="TURBO" fill="#E86866">
                        <g id="O" transform="translate(179.000000, 0.000000)">
                            <circle id="Oval" cx="24.5" cy="24.5" r="24.5"></circle>
                        </g>
                        <g id="B" transform="translate(133.000000, 0.000000)" fill-rule="nonzero">
                            <path d="M39.635,23.38 C42.5283478,24.4533387 44.7683254,26.0166564 46.355,28.07 C47.9416746,30.1233436 48.735,32.5966522 48.735,35.49 C48.735,39.7833548 46.9616844,43.1083215 43.415,45.465 C39.8683156,47.8216785 34.7350336,49 28.015,49 L0.435,49 L0.435,0 L26.615,0 C33.148366,0 38.0833166,1.166655 41.42,3.5 C44.7566833,5.833345 46.425,8.9366473 46.425,12.81 C46.425,15.0966781 45.853339,17.1499909 44.71,18.97 C43.5666609,20.7900091 41.8750112,22.2599944 39.635,23.38 Z M16.675,11.55 L16.675,18.83 L24.375,18.83 C27.9683513,18.83 29.765,17.6166788 29.765,15.19 C29.765,12.7633212 27.9683513,11.55 24.375,11.55 L16.675,11.55 Z M26.615,37.45 C30.2550182,37.45 32.075,36.1666795 32.075,33.6 C32.075,31.0333205 30.2550182,29.75 26.615,29.75 L16.675,29.75 L16.675,37.45 L26.615,37.45 Z M32.128,23.662 C34.2160104,22.9659965 35.8689939,21.8253413 37.087,20.24 C38.3050061,18.6546587 38.914,16.7020116 38.914,14.382 C38.914,11.05665 37.6863456,8.49500899 35.231,6.697 C32.7756544,4.89899101 29.344022,4 24.936,4 L8,4 L8,44.6 L26.096,44.6 C31.0453581,44.6 34.7766541,43.6720093 37.29,41.816 C39.8033459,39.9599907 41.06,37.3113505 41.06,33.87 C41.06,31.0859861 40.296341,28.8240087 38.769,27.084 C37.241659,25.3439913 35.0280145,24.203336 32.128,23.662 Z M10.958,6.552 L24.82,6.552 C28.3773511,6.552 31.1129904,7.23832647 33.027,8.611 C34.9410096,9.98367353 35.898,11.9846535 35.898,14.614 C35.898,17.2820133 34.9410096,19.3023265 33.027,20.675 C31.1129904,22.0476735 28.3773511,22.734 24.82,22.734 L10.958,22.734 L10.958,6.552 Z M26.096,42.048 L10.958,42.048 L10.958,25.286 L26.096,25.286 C30.0400197,25.286 33.0269898,25.9626599 35.057,27.316 C37.0870101,28.6693401 38.102,30.7766524 38.102,33.638 C38.102,36.4993476 37.0870101,38.6163265 35.057,39.989 C33.0269898,41.3616735 30.0400197,42.048 26.096,42.048 Z" id="Combined-Shape"></path>
                        </g>
                        <g id="R" transform="translate(88.000000, 0.000000)" fill-rule="nonzero">
                            <path d="M21.415,36.68 L16.935,36.68 L16.935,49 L0.415,49 L0.415,0 L24.005,0 C28.5316893,0 32.4749832,0.7466592 35.835,2.24 C39.1950168,3.7333408 41.7849909,5.879986 43.605,8.68 C45.4250091,11.480014 46.335,14.746648 46.335,18.48 C46.335,21.9800175 45.5416746,25.0366536 43.955,27.65 C42.3683254,30.2633464 40.0816816,32.3399923 37.095,33.88 L47.385,49 L29.745,49 L21.415,36.68 Z M29.675,18.48 C29.675,16.6599909 29.1150056,15.2483383 27.995,14.245 C26.8749944,13.2416616 25.1950112,12.74 22.955,12.74 L16.935,12.74 L16.935,24.22 L22.955,24.22 C25.1950112,24.22 26.8749944,23.7183383 27.995,22.715 C29.1150056,21.7116616 29.675,20.3000091 29.675,18.48 Z M36.188,45.6 L39.552,45.6 L29.402,31.39 C32.4566819,30.5006622 34.8056584,28.9636776 36.449,26.779 C38.0923415,24.5943224 38.914,21.8973494 38.914,18.688 C38.914,14.3959785 37.4640145,11.0416788 34.564,8.625 C31.6639855,6.20832125 27.6620255,5 22.558,5 L8,5 L8,45.6 L10.958,45.6 L10.958,32.318 L22.558,32.318 C23.7566727,32.318 25.0713262,32.2213343 26.502,32.028 L36.188,45.6 Z M22.558,29.708 L10.958,29.708 L10.958,7.668 L22.558,7.668 C26.8886883,7.668 30.1946553,8.62499043 32.476,10.539 C34.7573447,12.4530096 35.898,15.1693157 35.898,18.688 C35.898,22.2066843 34.7573447,24.9229904 32.476,26.837 C30.1946553,28.7510096 26.8886883,29.708 22.558,29.708 Z" id="Combined-Shape"></path>
                        </g>
                        <g id="U" transform="translate(43.000000, 0.000000)" fill-rule="nonzero">
                            <path d="M24,49.12 C16.4866291,49.12 10.630021,47.0900203 6.43,43.03 C2.229979,38.9699797 0.13,33.2767033 0.13,25.95 L0.13,0 L16.65,0 L16.65,25.46 C16.65,29.0533513 17.2916602,31.6666585 18.575,33.3 C19.8583397,34.9333415 21.7133212,35.75 24.14,35.75 C26.5666788,35.75 28.4216602,34.9333415 29.705,33.3 C30.9883397,31.6666585 31.63,29.0533513 31.63,25.46 L31.63,0 L48,0 L47.87,25.95 C47.87,33.2767033 45.770021,38.9699797 41.57,43.03 C37.369979,47.0900203 31.5133709,49.12 24,49.12 Z M23.971,44.29 C29.1136924,44.29 33.1156524,42.8013482 35.977,39.824 C38.8383476,36.8466518 40.269,32.4966953 40.269,26.774 L40.269,3.4 L37.311,3.4 L37.311,26.658 C37.311,31.6460249 36.1703447,35.377321 33.889,37.852 C31.6076553,40.326679 28.3210215,41.564 24.029,41.564 C19.6983117,41.564 16.3923447,40.326679 14.111,37.852 C11.8296553,35.377321 10.689,31.6460249 10.689,26.658 L10.689,3.4 L7.731,3.4 L7.731,26.774 C7.731,32.4966953 9.15198579,36.8466518 11.994,39.824 C14.8360142,42.8013482 18.8283076,44.29 23.971,44.29 Z" id="Combined-Shape"></path>
                        </g>
                        <g id="T" fill-rule="nonzero">
                            <path d="M15,12.81 L7.10542736e-15,12.81 L7.10542736e-15,0 L45.22,0 L45.22,12.81 L30.87,12.81 L30.87,49 L15,48.9832064 L15,12.81 Z M21.616,7.668 L21.616,45.6 L24.574,45.6 L24.574,7.668 L39.19,7.668 L39.19,5 L7,5 L7,7.668 L21.616,7.668 Z" id="Combined-Shape"></path>
                        </g>
                    </g>
                </g>
            </g>
        </g>
    </g>
</svg>