<svg xmlns="http://www.w3.org/2000/svg" xmlns:xlink="http://www.w3.org/1999/xlink" width="586.335" height="334.45" viewBox="0 0 586.335 334.45">
  <defs>
    <clipPath id="clip-path">
      <path id="Path_592" data-name="Path 592" d="M2315.5,436.5h0a5.377,5.377,0,0,1-5.4-5.4V412.4a5.377,5.377,0,0,1,5.4-5.4h0a5.377,5.377,0,0,1,5.4,5.4v18.7A5.442,5.442,0,0,1,2315.5,436.5Z" transform="translate(-2310.9 -403.4)"/>
    </clipPath>
    <clipPath id="clip-path-2">
      <path id="Path_760" data-name="Path 760" d="M2555.7,396.1h0a5.377,5.377,0,0,1-5.4-5.4V372a5.377,5.377,0,0,1,5.4-5.4h0a5.377,5.377,0,0,1,5.4,5.4v18.7A5.442,5.442,0,0,1,2555.7,396.1Z" transform="translate(-2551.1 -363)"/>
    </clipPath>
  </defs>
  <g id="Group_244" data-name="Group 244" transform="translate(-2198.083 -135.1)">
    <g id="Group_226" data-name="Group 226">
      <g id="Group_224" data-name="Group 224">
        <g id="Group_213" data-name="Group 213">
          <g id="Group_211" data-name="Group 211">
            <path id="Path_433" data-name="Path 433" d="M2372.9,225.7l-95.4,165.2c-15.2,26.4,3.8,59.4,34.3,59.4h190.8c30.5,0,49.5-33,34.3-59.4l-95.4-165.2C2426.3,199.3,2388.2,199.3,2372.9,225.7Z" fill="#0f1923" stroke="#0f1923" stroke-width="3.739"/>
            <path id="Path_434" data-name="Path 434" d="M2372.6,225.6,2277.1,391c-15.3,26.4,3.8,59.5,34.3,59.5h191c30.5,0,49.6-33,34.3-59.5l-95.5-165.4C2426,199.2,2387.8,199.2,2372.6,225.6Z" fill="#111b24" stroke="#0f1923" stroke-width="3.74"/>
            <path id="Path_435" data-name="Path 435" d="M2372.2,225.5l-95.6,165.6c-15.3,26.4,3.8,59.5,34.4,59.5h191.2c30.5,0,49.6-33.1,34.4-59.5L2441,225.5C2425.6,199.1,2387.4,199.1,2372.2,225.5Z" fill="#121c26" stroke="#0f1923" stroke-width="3.742"/>
            <path id="Path_436" data-name="Path 436" d="M2371.8,225.4l-95.7,165.7c-15.3,26.5,3.8,59.6,34.4,59.6h191.3c30.6,0,49.7-33.1,34.4-59.6l-95.7-165.7C2425.3,198.9,2387.1,198.9,2371.8,225.4Z" fill="#141e27" stroke="#0f1923" stroke-width="3.744"/>
            <path id="Path_437" data-name="Path 437" d="M2371.4,225.3l-95.8,165.9c-15.3,26.5,3.8,59.6,34.4,59.6h191.5c30.6,0,49.7-33.1,34.4-59.6l-95.8-165.9C2425,198.8,2386.7,198.8,2371.4,225.3Z" fill="#151f29" stroke="#0f1923" stroke-width="3.746"/>
            <path id="Path_438" data-name="Path 438" d="M2371,225.2l-95.9,166c-15.3,26.5,3.8,59.7,34.5,59.7h191.7c30.6,0,49.8-33.2,34.5-59.7l-95.9-166C2424.6,198.7,2386.3,198.7,2371,225.2Z" fill="#17212a" stroke="#0f1923" stroke-width="3.747"/>
            <path id="Path_439" data-name="Path 439" d="M2370.7,225.1l-95.9,166.2c-15.3,26.5,3.8,59.7,34.5,59.7h191.9c30.7,0,49.8-33.2,34.5-59.7l-95.9-166.2C2424.3,198.6,2386,198.6,2370.7,225.1Z" fill="#19222c" stroke="#0f1923" stroke-width="3.749"/>
            <path id="Path_440" data-name="Path 440" d="M2370.3,225l-96,166.3c-15.3,26.6,3.8,59.8,34.5,59.8h192.1c30.7,0,49.9-33.2,34.5-59.8l-96-166.3C2424,198.4,2385.6,198.4,2370.3,225Z" fill="#1a242d" stroke="#0f1923" stroke-width="3.751"/>
            <path id="Path_441" data-name="Path 441" d="M2369.9,224.9l-96.1,166.5c-15.4,26.6,3.8,59.8,34.6,59.8h192.2c30.7,0,49.9-33.2,34.6-59.8L2439,224.9C2423.6,198.3,2385.2,198.3,2369.9,224.9Z" fill="#1c252f" stroke="#0f1923" stroke-width="3.753"/>
            <path id="Path_442" data-name="Path 442" d="M2369.5,224.8l-96.2,166.6c-15.4,26.6,3.8,59.9,34.6,59.9h192.4c30.7,0,50-33.3,34.6-59.9l-96.2-166.6C2423.3,198.2,2384.9,198.2,2369.5,224.8Z" fill="#1d2730" stroke="#0f1923" stroke-width="3.754"/>
            <path id="Path_443" data-name="Path 443" d="M2369.1,224.7l-96.3,166.8c-15.4,26.6,3.8,60,34.6,60H2500c30.8,0,50-33.3,34.6-60l-96.3-166.8C2423,198.1,2384.5,198.1,2369.1,224.7Z" fill="#1f2832" stroke="#0f1923" stroke-width="3.756"/>
            <path id="Path_444" data-name="Path 444" d="M2368.7,224.6l-96.4,167c-15.4,26.7,3.8,60,34.6,60h192.8c30.8,0,50-33.3,34.6-60l-96.4-167C2422.6,197.9,2384.1,197.9,2368.7,224.6Z" fill="#202a33" stroke="#0f1923" stroke-width="3.758"/>
            <path id="Path_445" data-name="Path 445" d="M2368.4,224.5l-96.5,167.1c-15.4,26.7,3.9,60.1,34.7,60.1h193c30.8,0,50.1-33.4,34.7-60.1l-96.5-167.1C2422.3,197.8,2383.8,197.8,2368.4,224.5Z" fill="#222b34" stroke="#0f1923" stroke-width="3.76"/>
            <path id="Path_446" data-name="Path 446" d="M2368,224.4l-96.6,167.3c-15.4,26.7,3.9,60.1,34.7,60.1h193.1c30.9,0,50.1-33.4,34.7-60.1l-96.6-167.3C2422,197.7,2383.4,197.7,2368,224.4Z" fill="#242d36" stroke="#0f1923" stroke-width="3.761"/>
            <path id="Path_447" data-name="Path 447" d="M2367.6,224.3l-96.7,167.4c-15.4,26.7,3.9,60.2,34.7,60.2H2499c30.9,0,50.2-33.4,34.7-60.2L2437,224.3C2421.6,197.6,2383,197.6,2367.6,224.3Z" fill="#252e37" stroke="#0f1923" stroke-width="3.763"/>
            <path id="Path_448" data-name="Path 448" d="M2367.2,224.2l-96.8,167.6c-15.5,26.8,3.9,60.2,34.8,60.2h193.5c30.9,0,50.2-33.5,34.8-60.2l-96.8-167.6C2421.3,197.4,2382.7,197.4,2367.2,224.2Z" fill="#273039" stroke="#0f1923" stroke-width="3.765"/>
            <path id="Path_449" data-name="Path 449" d="M2366.8,224.1,2270,391.9c-15.5,26.8,3.9,60.3,34.8,60.3h193.7c30.9,0,50.3-33.5,34.8-60.3l-96.8-167.7C2421,197.3,2382.3,197.3,2366.8,224.1Z" fill="#28313a" stroke="#0f1923" stroke-width="3.766"/>
            <path id="Path_450" data-name="Path 450" d="M2366.4,224l-96.9,167.9c-15.5,26.8,3.9,60.4,34.8,60.4h193.9c31,0,50.3-33.5,34.8-60.4L2436.1,224C2420.6,197.2,2381.9,197.2,2366.4,224Z" fill="#2a333c" stroke="#0f1923" stroke-width="3.768"/>
            <path id="Path_451" data-name="Path 451" d="M2366.1,223.9,2269,392c-15.5,26.8,3.9,60.4,34.9,60.4h194c31,0,50.4-33.6,34.9-60.4l-97-168.1C2420.3,197.1,2381.6,197.1,2366.1,223.9Z" fill="#2c343d" stroke="#0f1923" stroke-width="3.77"/>
            <path id="Path_452" data-name="Path 452" d="M2365.7,223.8,2268.6,392c-15.5,26.9,3.9,60.5,34.9,60.5h194.2c31,0,50.4-33.6,34.9-60.5l-97.1-168.2C2420,197,2381.2,197,2365.7,223.8Z" fill="#2d363f" stroke="#0f1923" stroke-width="3.772"/>
            <path id="Path_453" data-name="Path 453" d="M2365.3,223.7l-97.2,168.4c-15.5,26.9,3.9,60.5,34.9,60.5h194.4c31.1,0,50.5-33.6,34.9-60.5l-97.2-168.4C2419.7,196.8,2380.8,196.8,2365.3,223.7Z" fill="#2f3740" stroke="#0f1923" stroke-width="3.773"/>
            <path id="Path_454" data-name="Path 454" d="M2364.9,223.6l-97.3,168.5c-15.5,26.9,3.9,60.6,35,60.6h194.6c31.1,0,50.5-33.7,35-60.6l-97.3-168.5C2419.3,196.7,2380.5,196.7,2364.9,223.6Z" fill="#303942" stroke="#0f1923" stroke-width="3.775"/>
            <path id="Path_455" data-name="Path 455" d="M2364.5,223.5l-97.4,168.7c-15.6,26.9,3.9,60.6,35,60.6h194.8c31.1,0,50.6-33.7,35-60.6l-97.4-168.7C2419,196.6,2380.1,196.6,2364.5,223.5Z" fill="#323b43" stroke="#0f1923" stroke-width="3.777"/>
            <path id="Path_456" data-name="Path 456" d="M2364.2,223.4l-97.5,168.8c-15.6,27,3.9,60.7,35,60.7h195c31.1,0,50.6-33.7,35-60.7l-97.5-168.8C2418.7,196.5,2379.7,196.5,2364.2,223.4Z" fill="#343c45" stroke="#0f1923" stroke-width="3.779"/>
            <path id="Path_457" data-name="Path 457" d="M2363.8,223.3l-97.6,169c-15.6,27,3.9,60.7,35.1,60.7h195.1c31.2,0,50.7-33.7,35.1-60.7l-97.6-169C2418.3,196.3,2379.4,196.3,2363.8,223.3Z" fill="#353e46" stroke="#0f1923" stroke-width="3.78"/>
            <path id="Path_458" data-name="Path 458" d="M2363.4,223.2l-97.7,169.1c-15.6,27,3.9,60.8,35.1,60.8h195.3c31.2,0,50.7-33.8,35.1-60.8l-97.7-169.1C2418,196.2,2379,196.2,2363.4,223.2Z" fill="#373f47" stroke="#0f1923" stroke-width="3.782"/>
            <path id="Path_459" data-name="Path 459" d="M2363,223.1l-97.7,169.3c-15.6,27,3.9,60.9,35.1,60.9h195.5c31.2,0,50.8-33.8,35.1-60.9l-97.7-169.3C2417.7,196.1,2378.6,196.1,2363,223.1Z" fill="#384149" stroke="#0f1923" stroke-width="3.784"/>
            <path id="Path_460" data-name="Path 460" d="M2362.6,223l-97.8,169.5c-15.6,27.1,3.9,60.9,35.2,60.9h195.7c31.3,0,50.8-33.8,35.2-60.9L2433,223C2417.3,196,2378.3,196,2362.6,223Z" fill="#3a424a" stroke="#0f1923" stroke-width="3.785"/>
            <path id="Path_461" data-name="Path 461" d="M2362.2,222.9l-97.9,169.6c-15.6,27.1,3.9,61,35.2,61h195.9c31.3,0,50.8-33.9,35.2-61l-97.9-169.6C2417,195.8,2377.9,195.8,2362.2,222.9Z" fill="#3c444c" stroke="#0f1923" stroke-width="3.787"/>
            <path id="Path_462" data-name="Path 462" d="M2361.9,222.8l-98,169.8c-15.7,27.1,3.9,61,35.2,61h196c31.3,0,50.9-33.9,35.2-61l-98-169.8C2416.7,195.7,2377.5,195.7,2361.9,222.8Z" fill="#3d454d" stroke="#0f1923" stroke-width="3.789"/>
            <path id="Path_463" data-name="Path 463" d="M2361.5,222.7l-98.1,169.9c-15.7,27.1,3.9,61.1,35.3,61.1h196.2c31.3,0,50.9-33.9,35.3-61.1L2432,222.7C2416.3,195.6,2377.1,195.6,2361.5,222.7Z" fill="#3f474f" stroke="#0f1923" stroke-width="3.791"/>
            <path id="Path_464" data-name="Path 464" d="M2361.1,222.6l-98.2,170.1c-15.7,27.2,3.9,61.1,35.3,61.1h196.4c31.4,0,51-34,35.3-61.1l-98.2-170.1C2416,195.5,2376.8,195.5,2361.1,222.6Z" fill="#404850" stroke="#0f1923" stroke-width="3.792"/>
            <path id="Path_465" data-name="Path 465" d="M2360.7,222.5l-98.3,170.2c-15.7,27.2,3.9,61.2,35.3,61.2h196.6c31.4,0,51-34,35.3-61.2l-98.3-170.2C2415.7,195.4,2376.4,195.4,2360.7,222.5Z" fill="#424a52" stroke="#0f1923" stroke-width="3.794"/>
            <path id="Path_466" data-name="Path 466" d="M2360.3,222.4,2262,392.8c-15.7,27.2,3.9,61.2,35.4,61.2h196.8c31.4,0,51.1-34,35.4-61.2l-98.4-170.4C2415.3,195.2,2376,195.2,2360.3,222.4Z" fill="#434b53" stroke="#0f1923" stroke-width="3.796"/>
            <path id="Path_467" data-name="Path 467" d="M2359.9,222.3l-98.5,170.5c-15.7,27.2,3.9,61.3,35.4,61.3h196.9c31.5,0,51.1-34.1,35.4-61.3l-98.5-170.5C2415,195.1,2375.7,195.1,2359.9,222.3Z" fill="#454d55" stroke="#0f1923" stroke-width="3.797"/>
            <path id="Path_468" data-name="Path 468" d="M2359.6,222.3,2261,393c-15.7,27.3,3.9,61.4,35.4,61.4h197.1c31.5,0,51.2-34.1,35.4-61.4l-98.6-170.7C2414.7,195,2375.3,195,2359.6,222.3Z" fill="#474e56" stroke="#0f1923" stroke-width="3.799"/>
            <path id="Path_469" data-name="Path 469" d="M2359.2,222.2,2260.5,393c-15.8,27.3,3.9,61.4,35.5,61.4h197.3c31.5,0,51.2-34.1,35.5-61.4l-98.6-170.9C2414.3,194.9,2374.9,194.9,2359.2,222.2Z" fill="#485057" stroke="#0f1923" stroke-width="3.801"/>
            <path id="Path_470" data-name="Path 470" d="M2358.8,222.1l-98.7,171c-15.8,27.3,3.9,61.5,35.5,61.5H2493c31.5,0,51.3-34.2,35.5-61.5l-98.7-171C2414,194.7,2374.6,194.7,2358.8,222.1Z" fill="#4a5159" stroke="#0f1923" stroke-width="3.803"/>
            <path id="Path_471" data-name="Path 471" d="M2358.4,222l-98.8,171.2c-15.8,27.3,3.9,61.5,35.5,61.5h197.7c31.6,0,51.3-34.2,35.5-61.5L2429.5,222C2413.7,194.6,2374.2,194.6,2358.4,222Z" fill="#4b535a" stroke="#0f1923" stroke-width="3.805"/>
            <path id="Path_472" data-name="Path 472" d="M2358,221.9l-98.9,171.3c-15.8,27.4,4,61.6,35.6,61.6h197.8c31.6,0,51.4-34.2,35.6-61.6l-98.9-171.3C2413.3,194.5,2373.8,194.5,2358,221.9Z" fill="#4d545c" stroke="#0f1923" stroke-width="3.806"/>
            <path id="Path_473" data-name="Path 473" d="M2357.7,221.8l-99,171.5c-15.8,27.4,4,61.6,35.6,61.6h198c31.6,0,51.4-34.2,35.6-61.6l-99-171.5C2413,194.4,2373.5,194.4,2357.7,221.8Z" fill="#4f565d" stroke="#0f1923" stroke-width="3.808"/>
            <path id="Path_474" data-name="Path 474" d="M2357.3,221.7l-99.1,171.6c-15.8,27.4,4,61.7,35.6,61.7H2492c31.7,0,51.5-34.3,35.6-61.7l-99.1-171.6C2412.7,194.2,2373.1,194.2,2357.3,221.7Z" fill="#50575f" stroke="#0f1923" stroke-width="3.81"/>
            <path id="Path_475" data-name="Path 475" d="M2356.9,221.6l-99.2,171.8c-15.8,27.4,4,61.8,35.7,61.8h198.4c31.7,0,51.5-34.3,35.7-61.8l-99.2-171.8C2412.3,194.1,2372.7,194.1,2356.9,221.6Z" fill="#525960" stroke="#0f1923" stroke-width="3.811"/>
            <path id="Path_476" data-name="Path 476" d="M2356.5,221.5l-99.3,172c-15.9,27.5,4,61.8,35.7,61.8h198.6c31.7,0,51.5-34.3,35.7-61.8l-99.3-172C2412,194,2372.4,194,2356.5,221.5Z" fill="#535a62" stroke="#0f1923" stroke-width="3.813"/>
            <path id="Path_477" data-name="Path 477" d="M2356.1,221.4l-99.4,172.1c-15.9,27.5,4,61.9,35.7,61.9h198.7c31.7,0,51.6-34.4,35.7-61.9l-99.4-172.1C2411.7,193.9,2372,193.9,2356.1,221.4Z" fill="#555c63" stroke="#0f1923" stroke-width="3.815"/>
            <path id="Path_478" data-name="Path 478" d="M2355.7,221.3l-99.5,172.3c-15.9,27.5,4,61.9,35.8,61.9h198.9c31.8,0,51.6-34.4,35.8-61.9l-99.5-172.3C2411.4,193.7,2371.6,193.7,2355.7,221.3Z" fill="#575e65" stroke="#0f1923" stroke-width="3.817"/>
            <path id="Path_479" data-name="Path 479" d="M2355.4,221.2l-99.5,172.4c-15.9,27.5,4,62,35.8,62h199.1c31.8,0,51.7-34.4,35.8-62l-99.5-172.4C2411,193.6,2371.3,193.6,2355.4,221.2Z" fill="#585f66" stroke="#0f1923" stroke-width="3.818"/>
            <path id="Path_480" data-name="Path 480" d="M2355,221.1l-99.6,172.6c-15.9,27.6,4,62,35.8,62h199.3c31.8,0,51.7-34.5,35.8-62l-99.6-172.6C2410.7,193.5,2370.9,193.5,2355,221.1Z" fill="#5a6167" stroke="#0f1923" stroke-width="3.82"/>
            <path id="Path_481" data-name="Path 481" d="M2354.6,221l-99.7,172.7c-15.9,27.6,4,62.1,35.8,62.1h199.5c31.9,0,51.8-34.5,35.8-62.1L2426.3,221C2410.4,193.4,2370.5,193.4,2354.6,221Z" fill="#5b6269" stroke="#0f1923" stroke-width="3.822"/>
            <path id="Path_482" data-name="Path 482" d="M2354.2,220.9l-99.8,172.9c-15.9,27.6,4,62.1,35.9,62.1h199.6c31.9,0,51.8-34.5,35.9-62.1L2426,220.9C2410,193.3,2370.2,193.3,2354.2,220.9Z" fill="#5d646a" stroke="#0f1923" stroke-width="3.823"/>
            <path id="Path_483" data-name="Path 483" d="M2353.8,220.8l-99.9,173c-16,27.6,4,62.2,35.9,62.2h199.8c31.9,0,51.9-34.6,35.9-62.2l-99.9-173C2409.7,193.1,2369.8,193.1,2353.8,220.8Z" fill="#5e656c" stroke="#0f1923" stroke-width="3.825"/>
            <path id="Path_484" data-name="Path 484" d="M2353.4,220.7l-100,173.2c-16,27.7,4,62.3,35.9,62.3h200c32,0,51.9-34.6,35.9-62.3l-100-173.2C2409.4,193,2369.4,193,2353.4,220.7Z" fill="#60676d" stroke="#0f1923" stroke-width="3.827"/>
            <path id="Path_485" data-name="Path 485" d="M2353.1,220.6,2253,393.9c-16,27.7,4,62.3,36,62.3h200.2c32,0,52-34.6,36-62.3L2425,220.6C2409,192.9,2369.1,192.9,2353.1,220.6Z" fill="#62686f" stroke="#0f1923" stroke-width="3.829"/>
            <path id="Path_486" data-name="Path 486" d="M2352.7,220.5,2252.5,394c-16,27.7,4,62.4,36,62.4h200.4c32,0,52-34.7,36-62.4L2424.7,220.5C2408.7,192.8,2368.7,192.8,2352.7,220.5Z" fill="#636a70" stroke="#0f1923" stroke-width="3.83"/>
            <path id="Path_487" data-name="Path 487" d="M2352.3,220.4,2252,394.1c-16,27.7,4,62.4,36,62.4h200.5c32,0,52.1-34.7,36-62.4L2424.2,220.4C2408.4,192.6,2368.3,192.6,2352.3,220.4Z" fill="#656b72" stroke="#0f1923" stroke-width="3.832"/>
            <path id="Path_488" data-name="Path 488" d="M2351.9,220.3,2251.5,394.1c-16,27.8,4,62.5,36.1,62.5h200.7c32.1,0,52.1-34.7,36.1-62.5L2424,220.3C2408,192.5,2368,192.5,2351.9,220.3Z" fill="#666d73" stroke="#0f1923" stroke-width="3.834"/>
            <path id="Path_489" data-name="Path 489" d="M2351.5,220.2,2251,394.2c-16,27.8,4,62.5,36.1,62.5H2488c32.1,0,52.2-34.7,36.1-62.5l-100.5-174C2407.7,192.4,2367.6,192.4,2351.5,220.2Z" fill="#686e75" stroke="#0f1923" stroke-width="3.836"/>
            <path id="Path_490" data-name="Path 490" d="M2351.2,220.1,2250.7,394.2c-16.1,27.8,4,62.6,36.1,62.6h201.1c32.1,0,52.2-34.8,36.1-62.6L2423.5,220.1C2407.4,192.3,2367.2,192.3,2351.2,220.1Z" fill="#6a7076" stroke="#0f1923" stroke-width="3.837"/>
            <path id="Path_491" data-name="Path 491" d="M2350.8,220,2250.2,394.3c-16.1,27.8,4,62.7,36.2,62.7h201.3c32.2,0,52.2-34.8,36.2-62.7L2423.1,220C2407,192.1,2366.8,192.1,2350.8,220Z" fill="#6b7178" stroke="#0f1923" stroke-width="3.839"/>
            <path id="Path_492" data-name="Path 492" d="M2350.4,219.9,2249.7,394.4c-16.1,27.9,4,62.7,36.2,62.7h201.4c32.2,0,52.3-34.8,36.2-62.7L2422.8,219.9C2406.7,192,2366.5,192,2350.4,219.9Z" fill="#6d7379" stroke="#0f1923" stroke-width="3.841"/>
            <path id="Path_493" data-name="Path 493" d="M2350,219.8,2249.2,394.4c-16.1,27.9,4,62.8,36.2,62.8H2487c32.2,0,52.3-34.9,36.2-62.8L2422.4,219.8C2406.4,191.9,2366.1,191.9,2350,219.8Z" fill="#6e747a" stroke="#0f1923" stroke-width="3.842"/>
            <path id="Path_494" data-name="Path 494" d="M2349.6,219.7,2248.7,394.5c-16.1,27.9,4,62.8,36.3,62.8h201.8c32.2,0,52.4-34.9,36.3-62.8L2422.2,219.7C2406,191.8,2365.7,191.8,2349.6,219.7Z" fill="#70767c" stroke="#0f1923" stroke-width="3.844"/>
            <path id="Path_495" data-name="Path 495" d="M2349.2,219.6l-101,174.9c-16.1,27.9,4,62.9,36.3,62.9h202c32.3,0,52.4-34.9,36.3-62.9l-101-174.9C2405.7,191.6,2365.4,191.6,2349.2,219.6Z" fill="#72777d" stroke="#0f1923" stroke-width="3.846"/>
            <path id="Path_496" data-name="Path 496" d="M2348.9,219.5,2247.8,394.6c-16.1,28,4,62.9,36.3,62.9h202.2c32.3,0,52.5-35,36.3-62.9L2421.5,219.5C2405.4,191.5,2365,191.5,2348.9,219.5Z" fill="#73797f" stroke="#0f1923" stroke-width="3.848"/>
            <path id="Path_497" data-name="Path 497" d="M2348.5,219.4,2247.3,394.6c-16.2,28,4,63,36.4,63H2486c32.3,0,52.5-35,36.4-63L2421.2,219.4C2405,191.4,2364.6,191.4,2348.5,219.4Z" fill="#757a80" stroke="#0f1923" stroke-width="3.849"/>
            <path id="Path_498" data-name="Path 498" d="M2348.1,219.3,2246.8,394.7c-16.2,28,4,63,36.4,63h202.5c32.4,0,52.6-35,36.4-63L2420.8,219.3C2404.7,191.3,2364.3,191.3,2348.1,219.3Z" fill="#767c82" stroke="#0f1923" stroke-width="3.851"/>
            <path id="Path_499" data-name="Path 499" d="M2347.7,219.2,2246.3,394.7c-16.2,28,4,63.1,36.4,63.1h202.7c32.4,0,52.6-35.1,36.4-63.1L2420.4,219.2C2404.4,191.2,2363.9,191.2,2347.7,219.2Z" fill="#787e83" stroke="#0f1923" stroke-width="3.853"/>
            <path id="Path_500" data-name="Path 500" d="M2347.3,219.1,2245.9,394.8c-16.2,28.1,4.1,63.2,36.5,63.2h202.9c32.4,0,52.7-35.1,36.5-63.2L2420.4,219.1C2404.1,191,2363.5,191,2347.3,219.1Z" fill="#797f85" stroke="#0f1923" stroke-width="3.855"/>
            <path id="Path_501" data-name="Path 501" d="M2346.9,219,2245.4,394.9c-16.2,28.1,4.1,63.2,36.5,63.2H2485c32.4,0,52.7-35.1,36.5-63.2L2419.9,219C2403.7,190.9,2363.2,190.9,2346.9,219Z" fill="#7b8186" stroke="#0f1923" stroke-width="3.856"/>
            <path id="Path_502" data-name="Path 502" d="M2346.6,218.9,2245,394.9c-16.2,28.1,4.1,63.3,36.5,63.3h203.2c32.5,0,52.8-35.1,36.5-63.3l-101.6-176C2403.4,190.8,2362.8,190.8,2346.6,218.9Z" fill="#7d8288" stroke="#0f1923" stroke-width="3.858"/>
            <path id="Path_503" data-name="Path 503" d="M2346.2,218.8,2244.5,395c-16.2,28.1,4.1,63.3,36.6,63.3h203.4c32.5,0,52.8-35.2,36.6-63.3L2419.4,218.8C2403.1,190.7,2362.4,190.7,2346.2,218.8Z" fill="#7e8489" stroke="#0f1923" stroke-width="3.86"/>
            <path id="Path_504" data-name="Path 504" d="M2345.8,218.7,2244,395c-16.3,28.2,4.1,63.4,36.6,63.4h203.6c32.5,0,52.9-35.2,36.6-63.4L2419,218.7C2402.7,190.5,2362.1,190.5,2345.8,218.7Z" fill="#80858a" stroke="#0f1923" stroke-width="3.862"/>
            <path id="Path_505" data-name="Path 505" d="M2345.4,218.6,2243.5,395.1c-16.3,28.2,4.1,63.4,36.6,63.4h203.8c32.6,0,52.9-35.2,36.6-63.4L2418.6,218.6C2402.4,190.4,2361.7,190.4,2345.4,218.6Z" fill="#81878c" stroke="#0f1923" stroke-width="3.863"/>
            <path id="Path_506" data-name="Path 506" d="M2345,218.5,2243,395.1c-16.3,28.2,4.1,63.5,36.7,63.5h204c32.6,0,53-35.3,36.7-63.5l-102-176.6C2402.1,190.3,2361.3,190.3,2345,218.5Z" fill="#83888d" stroke="#0f1923" stroke-width="3.865"/>
            <path id="Path_507" data-name="Path 507" d="M2344.7,218.4,2242.6,395.2c-16.3,28.2,4.1,63.6,36.7,63.6h204.1c32.6,0,53-35.3,36.7-63.6L2418,218.4C2401.7,190.2,2361,190.2,2344.7,218.4Z" fill="#858a8f" stroke="#0f1923" stroke-width="3.867"/>
            <path id="Path_508" data-name="Path 508" d="M2344.3,218.3l-102.2,177c-16.3,28.3,4.1,63.6,36.7,63.6h204.3c32.6,0,53-35.3,36.7-63.6l-102.2-177C2401.4,190,2360.6,190,2344.3,218.3Z" fill="#868b90" stroke="#0f1923" stroke-width="3.868"/>
            <path id="Path_509" data-name="Path 509" d="M2343.9,218.2,2241.6,395.3c-16.3,28.3,4.1,63.7,36.8,63.7h204.5c32.7,0,53.1-35.4,36.8-63.7L2417.4,218.2C2401.1,189.9,2360.2,189.9,2343.9,218.2Z" fill="#888d92" stroke="#0e1823" stroke-width="3.87"/>
            <path id="Path_510" data-name="Path 510" d="M2343.5,218.1,2241.2,395.4c-16.4,28.3,4.1,63.7,36.8,63.7h204.7c32.7,0,53.1-35.4,36.8-63.7L2417.2,218.1C2400.7,189.8,2359.9,189.8,2343.5,218.1Z" fill="#898e93" stroke="#0e1823" stroke-width="3.872"/>
            <path id="Path_511" data-name="Path 511" d="M2343.1,218,2240.7,395.4c-16.4,28.3,4.1,63.8,36.8,63.8h204.9c32.7,0,53.2-35.4,36.8-63.8L2416.8,218C2400.4,189.7,2359.5,189.7,2343.1,218Z" fill="#8b9095" stroke="#0e1823" stroke-width="3.874"/>
            <path id="Path_512" data-name="Path 512" d="M2342.7,217.9,2240.2,395.5c-16.4,28.4,4.1,63.8,36.9,63.8h205c32.8,0,53.2-35.5,36.9-63.8L2416.5,217.9C2400.1,189.5,2359.1,189.5,2342.7,217.9Z" fill="#8d9196" stroke="#0e1823" stroke-width="3.875"/>
            <path id="Path_513" data-name="Path 513" d="M2342.4,217.8,2239.8,395.5c-16.4,28.4,4.1,63.9,36.9,63.9h205.2c32.8,0,53.3-35.5,36.9-63.9L2416.2,217.8C2399.7,189.4,2358.8,189.4,2342.4,217.8Z" fill="#8e9398" stroke="#0e1823" stroke-width="3.877"/>
            <path id="Path_514" data-name="Path 514" d="M2342,217.7,2239.3,395.6c-16.4,28.4,4.1,63.9,36.9,63.9h205.4c32.8,0,53.3-35.5,36.9-63.9L2415.8,217.7C2399.4,189.3,2358.4,189.3,2342,217.7Z" fill="#909499" stroke="#0e1823" stroke-width="3.879"/>
            <path id="Path_515" data-name="Path 515" d="M2341.6,217.6l-102.8,178c-16.4,28.4,4.1,64,36.9,64h205.6c32.8,0,53.4-35.6,36.9-64l-102.8-178C2399.1,189.2,2358,189.2,2341.6,217.6Z" fill="#91969a" stroke="#0e1823" stroke-width="3.881"/>
            <path id="Path_516" data-name="Path 516" d="M2341.2,217.5,2238.3,395.7c-16.4,28.5,4.1,64.1,37,64.1h205.8c32.9,0,53.4-35.6,37-64.1L2415.2,217.5C2398.7,189.1,2357.6,189.1,2341.2,217.5Z" fill="#93979c" stroke="#0e1823" stroke-width="3.882"/>
            <path id="Path_517" data-name="Path 517" d="M2340.8,217.4l-103,178.4c-16.5,28.5,4.1,64.1,37,64.1h205.9c32.9,0,53.5-35.6,37-64.1l-103-178.4C2398.4,188.9,2357.3,188.9,2340.8,217.4Z" fill="#95999d" stroke="#0e1823" stroke-width="3.884"/>
            <path id="Path_518" data-name="Path 518" d="M2340.4,217.3,2237.3,395.8c-16.5,28.5,4.1,64.2,37,64.2h206.1c32.9,0,53.5-35.6,37-64.2L2414.3,217.3C2398.1,188.8,2356.9,188.8,2340.4,217.3Z" fill="#969a9f" stroke="#0e1823" stroke-width="3.886"/>
            <path id="Path_519" data-name="Path 519" d="M2340.1,217.2,2236.9,395.9c-16.5,28.5,4.1,64.2,37.1,64.2h206.3c33,0,53.6-35.7,37.1-64.2L2414.2,217.2C2397.7,188.7,2356.5,188.7,2340.1,217.2Z" fill="#989ca0" stroke="#0e1823" stroke-width="3.888"/>
            <path id="Path_520" data-name="Path 520" d="M2339.7,217.1,2236.4,396c-16.5,28.6,4.1,64.3,37.1,64.3H2480c33,0,53.6-35.7,37.1-64.3L2413.9,217.2C2397.4,188.6,2356.2,188.6,2339.7,217.1Z" fill="#999ea2" stroke="#0e1823" stroke-width="3.889"/>
            <path id="Path_521" data-name="Path 521" d="M2339.3,217,2236,396c-16.5,28.6,4.1,64.3,37.1,64.3h206.7c33,0,53.7-35.7,37.1-64.3L2413.6,217C2397.1,188.4,2355.8,188.4,2339.3,217Z" fill="#9b9fa3" stroke="#0e1823" stroke-width="3.891"/>
            <path id="Path_522" data-name="Path 522" d="M2338.9,216.9,2235.5,396c-16.5,28.6,4.1,64.4,37.2,64.4h206.9c33,0,53.7-35.8,37.2-64.4L2413.4,216.9C2396.7,188.3,2355.4,188.3,2338.9,216.9Z" fill="#9ca1a5" stroke="#0e1823" stroke-width="3.893"/>
            <path id="Path_523" data-name="Path 523" d="M2338.5,216.8,2235,396.1c-16.5,28.6,4.1,64.4,37.2,64.4h207c33.1,0,53.7-35.8,37.2-64.4L2413,216.8C2396.4,188.2,2355.1,188.2,2338.5,216.8Z" fill="#9ea2a6" stroke="#0e1823" stroke-width="3.894"/>
            <path id="Path_524" data-name="Path 524" d="M2338.2,216.7,2234.6,396.1c-16.6,28.7,4.1,64.5,37.2,64.5H2479c33.1,0,53.8-35.8,37.2-64.5L2412.6,216.7C2396.1,188.1,2354.7,188.1,2338.2,216.7Z" fill="#a0a4a8" stroke="#0e1823" stroke-width="3.896"/>
            <path id="Path_525" data-name="Path 525" d="M2337.8,216.6,2234.1,396.2c-16.6,28.7,4.1,64.6,37.3,64.6h207.4c33.1,0,53.8-35.9,37.3-64.6L2412.4,216.6C2395.8,187.9,2354.3,187.9,2337.8,216.6Z" fill="#a1a5a9" stroke="#0e1823" stroke-width="3.898"/>
            <path id="Path_526" data-name="Path 526" d="M2337.4,216.5,2233.6,396.3c-16.6,28.7,4.1,64.6,37.3,64.6h207.6c33.2,0,53.9-35.9,37.3-64.6L2412,216.5C2395.4,187.8,2354,187.8,2337.4,216.5Z" fill="#a3a7aa" stroke="#0e1823" stroke-width="3.9"/>
            <path id="Path_527" data-name="Path 527" d="M2337,216.4,2233.1,396.3c-16.6,28.7,4.1,64.7,37.3,64.7h207.8c33.2,0,53.9-35.9,37.3-64.7L2411.6,216.4C2395.1,187.7,2353.6,187.7,2337,216.4Z" fill="#a4a8ac" stroke="#0e1823" stroke-width="3.901"/>
            <path id="Path_528" data-name="Path 528" d="M2336.6,216.3l-104,180.1c-16.6,28.8,4.2,64.7,37.4,64.7h208c33.2,0,54-36,37.4-64.7l-104-180.1C2394.8,187.6,2353.2,187.6,2336.6,216.3Z" fill="#a6aaad" stroke="#0e1823" stroke-width="3.903"/>
            <path id="Path_529" data-name="Path 529" d="M2336.2,216.2,2232.1,396.4c-16.6,28.8,4.2,64.8,37.4,64.8h208.1c33.2,0,54-36,37.4-64.8L2411,216.2C2394.4,187.4,2352.9,187.4,2336.2,216.2Z" fill="#a8abaf" stroke="#0e1823" stroke-width="3.905"/>
            <path id="Path_530" data-name="Path 530" d="M2335.9,216.1,2231.8,396.5c-16.6,28.8,4.2,64.8,37.4,64.8h208.3c33.3,0,54.1-36,37.4-64.8L2410.8,216.1C2394.1,187.3,2352.5,187.3,2335.9,216.1Z" fill="#a9adb0" stroke="#0e1823" stroke-width="3.907"/>
            <path id="Path_531" data-name="Path 531" d="M2335.5,216,2231.3,396.5c-16.7,28.8,4.2,64.9,37.5,64.9h208.5c33.3,0,54.1-36.1,37.5-64.9L2410.4,216C2393.8,187.2,2352.1,187.2,2335.5,216Z" fill="#abaeb2" stroke="#0e1823" stroke-width="3.908"/>
            <path id="Path_532" data-name="Path 532" d="M2335.1,215.9,2230.8,396.6c-16.7,28.9,4.2,65,37.5,65H2477c33.3,0,54.2-36.1,37.5-65L2410.2,215.9C2393.4,187.1,2351.8,187.1,2335.1,215.9Z" fill="#acb0b3" stroke="#0e1823" stroke-width="3.91"/>
            <path id="Path_533" data-name="Path 533" d="M2334.7,215.8,2230.3,396.7c-16.7,28.9,4.2,65,37.5,65h208.8c33.4,0,54.2-36.1,37.5-65L2409.7,215.8C2393.1,187,2351.4,187,2334.7,215.8Z" fill="#aeb1b5" stroke="#0e1823" stroke-width="3.912"/>
            <path id="Path_534" data-name="Path 534" d="M2334.3,215.7l-104.5,181c-16.7,28.9,4.2,65.1,37.6,65.1h209c33.4,0,54.3-36.1,37.6-65.1l-104.5-181C2392.8,186.8,2351,186.8,2334.3,215.7Z" fill="#b0b3b6" stroke="#0e1823" stroke-width="3.914"/>
            <path id="Path_535" data-name="Path 535" d="M2333.9,215.6,2229.3,396.8c-16.7,28.9,4.2,65.1,37.6,65.1h209.2c33.4,0,54.3-36.2,37.6-65.1L2409.1,215.6C2392.4,186.7,2350.7,186.7,2333.9,215.6Z" fill="#b1b4b8" stroke="#0e1823" stroke-width="3.915"/>
            <path id="Path_536" data-name="Path 536" d="M2333.6,215.6,2228.9,396.9c-16.7,29,4.2,65.2,37.6,65.2h209.4c33.4,0,54.4-36.2,37.6-65.2L2408.8,215.6C2392.1,186.6,2350.3,186.6,2333.6,215.6Z" fill="#b3b6b9" stroke="#0e1823" stroke-width="3.917"/>
            <path id="Path_537" data-name="Path 537" d="M2333.2,215.5,2228.4,397c-16.7,29,4.2,65.2,37.7,65.2h209.6c33.5,0,54.4-36.2,37.7-65.2L2408.6,215.5C2391.8,186.5,2349.9,186.5,2333.2,215.5Z" fill="#b4b7bb" stroke="#0e1823" stroke-width="3.919"/>
            <path id="Path_538" data-name="Path 538" d="M2332.8,215.4,2227.9,397c-16.8,29,4.2,65.3,37.7,65.3h209.7c33.5,0,54.4-36.3,37.7-65.3L2408.1,215.4C2391.4,186.3,2349.6,186.3,2332.8,215.4Z" fill="#b6b9bc" stroke="#0e1823" stroke-width="3.92"/>
            <path id="Path_539" data-name="Path 539" d="M2332.4,215.3l-105,181.8c-16.8,29,4.2,65.3,37.7,65.3H2475c33.5,0,54.5-36.3,37.7-65.3l-105-181.8C2391.1,186.2,2349.2,186.2,2332.4,215.3Z" fill="#b7babd" stroke="#0e1823" stroke-width="3.922"/>
            <path id="Path_540" data-name="Path 540" d="M2332,215.2,2227,397.1c-16.8,29.1,4.2,65.4,37.8,65.4h210.1c33.6,0,54.5-36.3,37.8-65.4l-105-181.9C2390.8,186.1,2348.8,186.1,2332,215.2Z" fill="#b9bcbf" stroke="#0e1823" stroke-width="3.924"/>
            <path id="Path_541" data-name="Path 541" d="M2331.7,215.1,2226.6,397.2c-16.8,29.1,4.2,65.5,37.8,65.5h210.3c33.6,0,54.6-36.4,37.8-65.5L2407.4,215.1C2390.4,186,2348.5,186,2331.7,215.1Z" fill="#bbbec0" stroke="#0e1823" stroke-width="3.926"/>
            <path id="Path_542" data-name="Path 542" d="M2331.3,215,2226,397.2c-16.8,29.1,4.2,65.5,37.8,65.5h210.5c33.6,0,54.6-36.4,37.8-65.5L2406.9,215C2390.1,185.8,2348.1,185.8,2331.3,215Z" fill="#bcbfc2" stroke="#0e1823" stroke-width="3.927"/>
            <path id="Path_543" data-name="Path 543" d="M2330.9,214.9,2225.6,397.3c-16.8,29.1,4.2,65.6,37.9,65.6h210.6c33.7,0,54.7-36.4,37.9-65.6L2406.7,214.9C2389.8,185.7,2347.7,185.7,2330.9,214.9Z" fill="#bec1c3" stroke="#0e1823" stroke-width="3.929"/>
            <path id="Path_544" data-name="Path 544" d="M2330.5,214.8,2225.1,397.4c-16.8,29.2,4.2,65.6,37.9,65.6h210.8c33.7,0,54.7-36.5,37.9-65.6L2406.3,214.8C2389.4,185.6,2347.3,185.6,2330.5,214.8Z" fill="#bfc2c5" stroke="#0e1823" stroke-width="3.931"/>
            <path id="Path_545" data-name="Path 545" d="M2330.1,214.7,2224.6,397.4c-16.9,29.2,4.2,65.7,37.9,65.7h211c33.7,0,54.8-36.5,37.9-65.7L2406,214.7C2389.1,185.5,2347,185.5,2330.1,214.7Z" fill="#c1c4c6" stroke="#0e1823" stroke-width="3.932"/>
            <path id="Path_546" data-name="Path 546" d="M2329.7,214.6,2224.1,397.5c-16.9,29.2,4.2,65.7,38,65.7h211.2c33.7,0,54.8-36.5,38-65.7L2405.7,214.6C2388.8,185.3,2346.6,185.3,2329.7,214.6Z" fill="#c3c5c8" stroke="#0e1823" stroke-width="3.934"/>
            <path id="Path_547" data-name="Path 547" d="M2329.4,214.5l-105.7,183c-16.9,29.2,4.2,65.8,38,65.8H2473c33.8,0,54.9-36.6,38-65.8l-105.7-183C2388.5,185.2,2346.2,185.2,2329.4,214.5Z" fill="#c4c7c9" stroke="#0e1823" stroke-width="3.936"/>
            <path id="Path_548" data-name="Path 548" d="M2329,214.4,2223.2,397.6c-16.9,29.3,4.2,65.9,38,65.9h211.5c33.8,0,54.9-36.6,38-65.9L2405,214.4C2388.1,185.1,2345.9,185.1,2329,214.4Z" fill="#c6c8cb" stroke="#0e1823" stroke-width="3.938"/>
            <path id="Path_549" data-name="Path 549" d="M2328.6,214.3,2222.7,397.7c-16.9,29.3,4.2,65.9,38.1,65.9h211.7c33.8,0,55-36.6,38.1-65.9L2404.7,214.3C2387.8,185,2345.5,185,2328.6,214.3Z" fill="#c7cacc" stroke="#0e1823" stroke-width="3.939"/>
            <path id="Path_550" data-name="Path 550" d="M2328.2,214.2,2222.3,397.7c-16.9,29.3,4.2,66,38.1,66h211.9c33.9,0,55-36.6,38.1-66L2404.5,214.2C2387.5,184.9,2345.1,184.9,2328.2,214.2Z" fill="#c9cbcd" stroke="#0e1823" stroke-width="3.941"/>
            <path id="Path_551" data-name="Path 551" d="M2327.8,214.1l-106,183.7c-16.9,29.3,4.2,66,38.1,66H2472c33.9,0,55.1-36.7,38.1-66l-106-183.7C2387.1,184.7,2344.8,184.7,2327.8,214.1Z" fill="#cbcdcf" stroke="#0e1823" stroke-width="3.943"/>
            <path id="Path_552" data-name="Path 552" d="M2327.4,214,2221.3,397.8c-17,29.4,4.2,66.1,38.1,66.1h212.3c33.9,0,55.1-36.7,38.1-66.1L2403.7,214C2386.8,184.6,2344.4,184.6,2327.4,214Z" fill="#ccced0" stroke="#0e1823" stroke-width="3.945"/>
            <path id="Path_553" data-name="Path 553" d="M2327.1,213.9l-106.2,184c-17,29.4,4.2,66.1,38.2,66.1h212.4c33.9,0,55.2-36.7,38.2-66.1l-106.2-184C2386.5,184.5,2344,184.5,2327.1,213.9Z" fill="#ced0d2" stroke="#0e1823" stroke-width="3.946"/>
            <path id="Path_554" data-name="Path 554" d="M2326.7,213.8,2220.4,397.9c-17,29.4,4.2,66.2,38.2,66.2h212.6c34,0,55.2-36.8,38.2-66.2L2403.1,213.8C2386.1,184.4,2343.7,184.4,2326.7,213.8Z" fill="#cfd1d3" stroke="#0e1823" stroke-width="3.948"/>
            <path id="Path_555" data-name="Path 555" d="M2326.3,213.7,2219.9,398c-17,29.4,4.2,66.2,38.2,66.2h212.8c34,0,55.2-36.8,38.2-66.2L2402.7,213.7C2385.8,184.2,2343.3,184.2,2326.3,213.7Z" fill="#d1d3d5" stroke="#0e1823" stroke-width="3.95"/>
            <path id="Path_556" data-name="Path 556" d="M2325.9,213.6,2219.4,398c-17,29.5,4.3,66.3,38.3,66.3h213c34,0,55.3-36.8,38.3-66.3L2402.5,213.6C2385.5,184.1,2342.9,184.1,2325.9,213.6Z" fill="#d2d4d6" stroke="#0e1823" stroke-width="3.951"/>
            <path id="Path_557" data-name="Path 557" d="M2325.5,213.5,2219,398.1c-17,29.5,4.3,66.4,38.3,66.4h213.2c34.1,0,55.3-36.9,38.3-66.4L2402.2,213.5C2385.1,184,2342.6,184,2325.5,213.5Z" fill="#d4d6d8" stroke="#0e1823" stroke-width="3.953"/>
            <path id="Path_558" data-name="Path 558" d="M2325.2,213.4,2218.5,398.2c-17,29.5,4.3,66.4,38.3,66.4h213.3c34.1,0,55.4-36.9,38.3-66.4L2401.7,213.4C2384.8,183.9,2342.2,183.9,2325.2,213.4Z" fill="#d6d7d9" stroke="#0e1823" stroke-width="3.955"/>
            <path id="Path_559" data-name="Path 559" d="M2324.8,213.3,2218,398.2c-17.1,29.5,4.3,66.5,38.4,66.5h213.5c34.1,0,55.4-36.9,38.4-66.5L2401.5,213.3C2384.5,183.7,2341.8,183.7,2324.8,213.3Z" fill="#d7d9db" stroke="#0e1823" stroke-width="3.957"/>
            <path id="Path_560" data-name="Path 560" d="M2324.4,213.2,2217.5,398.3c-17.1,29.6,4.3,66.5,38.4,66.5h213.7c34.1,0,55.5-37,38.4-66.5L2401.1,213.2C2384.1,183.6,2341.5,183.6,2324.4,213.2Z" fill="#d9dadc" stroke="#0e1823" stroke-width="3.958"/>
            <path id="Path_561" data-name="Path 561" d="M2324,213.1,2217.1,398.3c-17.1,29.6,4.3,66.6,38.4,66.6h213.9c34.2,0,55.5-37,38.4-66.6L2400.9,213.1C2383.8,183.5,2341.1,183.5,2324,213.1Z" fill="#dadcdd" stroke="#0e1823" stroke-width="3.96"/>
            <path id="Path_562" data-name="Path 562" d="M2323.6,213l-107,185.4c-17.1,29.6,4.3,66.6,38.5,66.6h214.1c34.2,0,55.6-37,38.5-66.6L2400.7,213C2383.5,183.4,2340.7,183.4,2323.6,213Z" fill="#dcdddf" stroke="#0e1823" stroke-width="3.962"/>
            <path id="Path_563" data-name="Path 563" d="M2323.2,212.9,2216.1,398.4c-17.1,29.6,4.3,66.7,38.5,66.7h214.2c34.2,0,55.6-37.1,38.5-66.7L2400.2,212.9C2383.1,183.2,2340.4,183.2,2323.2,212.9Z" fill="#dedfe0" stroke="#0e1823" stroke-width="3.964"/>
            <path id="Path_564" data-name="Path 564" d="M2322.9,212.8,2215.7,398.5c-17.1,29.7,4.3,66.7,38.5,66.7h214.4c34.3,0,55.7-37.1,38.5-66.7L2399.9,212.8C2382.8,183.1,2340,183.1,2322.9,212.8Z" fill="#dfe1e2" stroke="#0e1823" stroke-width="3.965"/>
            <path id="Path_565" data-name="Path 565" d="M2322.5,212.7,2215.2,398.6c-17.1,29.7,4.3,66.8,38.6,66.8h214.6c34.3,0,55.7-37.1,38.6-66.8L2399.7,212.7C2382.5,183,2339.6,183,2322.5,212.7Z" fill="#e1e2e3" stroke="#0e1823" stroke-width="3.967"/>
            <path id="Path_566" data-name="Path 566" d="M2322.1,212.6l-107.4,186c-17.2,29.7,4.3,66.9,38.6,66.9h214.8c34.3,0,55.8-37.1,38.6-66.9l-107.4-186C2382.1,182.9,2339.3,182.9,2322.1,212.6Z" fill="#e2e4e5" stroke="#0e1823" stroke-width="3.969"/>
            <path id="Path_567" data-name="Path 567" d="M2321.7,212.5,2214.2,398.7c-17.2,29.7,4.3,66.9,38.6,66.9h215c34.3,0,55.8-37.2,38.6-66.9L2399,212.5C2381.8,182.8,2338.9,182.8,2321.7,212.5Z" fill="#e4e5e6" stroke="#0e1823" stroke-width="3.971"/>
            <path id="Path_568" data-name="Path 568" d="M2321.3,212.4,2213.7,398.7c-17.2,29.8,4.3,67,38.7,67h215.1c34.4,0,55.9-37.2,38.7-67L2398.6,212.4C2381.5,182.6,2338.5,182.6,2321.3,212.4Z" fill="#e6e7e8" stroke="#0e1823" stroke-width="3.972"/>
            <path id="Path_569" data-name="Path 569" d="M2321,212.3,2213.3,398.8c-17.2,29.8,4.3,67,38.7,67h215.3c34.4,0,55.9-37.2,38.7-67L2398.3,212.3C2381.2,182.5,2338.2,182.5,2321,212.3Z" fill="#e7e8e9" stroke="#0e1823" stroke-width="3.974"/>
            <path id="Path_570" data-name="Path 570" d="M2320.6,212.2,2212.8,398.8c-17.2,29.8,4.3,67.1,38.7,67.1H2467c34.4,0,55.9-37.3,38.7-67.1L2398,212.2C2380.8,182.4,2337.8,182.4,2320.6,212.2Z" fill="#e9eaeb" stroke="#0e1823" stroke-width="3.976"/>
            <path id="Path_571" data-name="Path 571" d="M2320.2,212.1,2212.4,398.9c-17.2,29.8,4.3,67.1,38.8,67.1h215.7c34.5,0,56-37.3,38.8-67.1L2397.9,212.1C2380.5,182.3,2337.4,182.3,2320.2,212.1Z" fill="#eaebec" stroke="#0e1823" stroke-width="3.977"/>
            <path id="Path_572" data-name="Path 572" d="M2319.8,212,2211.9,398.9c-17.2,29.9,4.3,67.2,38.8,67.2h215.9c34.5,0,56-37.3,38.8-67.2L2397.4,212C2380.2,182.1,2337,182.1,2319.8,212Z" fill="#ecedee" stroke="#0e1823" stroke-width="3.979"/>
            <path id="Path_573" data-name="Path 573" d="M2319.4,211.9,2211.4,399c-17.3,29.9,4.3,67.3,38.8,67.3h216c34.5,0,56.1-37.4,38.8-67.3L2397,211.9C2379.8,182,2336.7,182,2319.4,211.9Z" fill="#eeeeef" stroke="#0e1823" stroke-width="3.981"/>
            <path id="Path_574" data-name="Path 574" d="M2319,211.8,2210.9,399.1c-17.3,29.9,4.3,67.3,38.9,67.3H2466c34.5,0,56.1-37.4,38.9-67.3L2396.8,211.8C2379.5,181.9,2336.3,181.9,2319,211.8Z" fill="#eff0f0" stroke="#0e1823" stroke-width="3.983"/>
            <path id="Path_575" data-name="Path 575" d="M2318.7,211.7,2210.5,399.1c-17.3,29.9,4.3,67.4,38.9,67.4h216.4c34.6,0,56.2-37.4,38.9-67.4L2396.5,211.7C2379.2,181.8,2335.9,181.8,2318.7,211.7Z" fill="#f1f1f2" stroke="#0e1823" stroke-width="3.984"/>
            <path id="Path_576" data-name="Path 576" d="M2318.3,211.6,2210,399.2c-17.3,30,4.3,67.4,38.9,67.4h216.6c34.6,0,56.2-37.5,38.9-67.4L2396.1,211.6C2378.8,181.6,2335.6,181.6,2318.3,211.6Z" fill="#f2f3f3" stroke="#0e1823" stroke-width="3.986"/>
            <path id="Path_577" data-name="Path 577" d="M2317.9,211.5,2209.5,399.2c-17.3,30,4.3,67.5,39,67.5h216.8c34.6,0,56.3-37.5,39-67.5L2395.9,211.5C2378.5,181.5,2335.2,181.5,2317.9,211.5Z" fill="#f4f4f5" stroke="#0e1823" stroke-width="3.988"/>
            <path id="Path_578" data-name="Path 578" d="M2317.5,211.4,2209,399.3c-17.3,30,4.3,67.5,39,67.5h217c34.7,0,56.3-37.5,39-67.5L2395.5,211.4C2378.2,181.4,2334.8,181.4,2317.5,211.4Z" fill="#f5f6f6" stroke="#0e1823" stroke-width="3.99"/>
            <path id="Path_579" data-name="Path 579" d="M2317.1,211.3l-108.6,188c-17.3,30,4.3,67.6,39,67.6h217.1c34.7,0,56.4-37.6,39-67.6L2395,211.3C2377.8,181.3,2334.5,181.3,2317.1,211.3Z" fill="#f7f7f8" stroke="#0e1823" stroke-width="3.991"/>
            <path id="Path_580" data-name="Path 580" d="M2316.7,211.2,2208,399.4c-17.4,30.1,4.3,67.6,39.1,67.6h217.3c34.7,0,56.4-37.6,39.1-67.6L2394.8,211.2C2377.5,181.2,2334.1,181.2,2316.7,211.2Z" fill="#f9f9f9" stroke="#0e1823" stroke-width="3.993"/>
            <path id="Path_581" data-name="Path 581" d="M2316.4,211.1,2207.7,399.4c-17.4,30.1,4.3,67.7,39.1,67.7h217.5c34.7,0,56.5-37.6,39.1-67.7L2394.7,211.1C2377.2,181,2333.7,181,2316.4,211.1Z" fill="#fafafb" stroke="#0e1823" stroke-width="3.995"/>
            <path id="Path_582" data-name="Path 582" d="M2316,211,2207.2,399.5c-17.4,30.1,4.3,67.8,39.1,67.8H2464c34.8,0,56.5-37.6,39.1-67.8L2394.2,211C2376.8,180.9,2333.4,180.9,2316,211Z" fill="#fcfcfc" stroke="#0e1823" stroke-width="3.997"/>
            <path id="Path_583" data-name="Path 583" d="M2315.6,210.9,2206.7,399.6c-17.4,30.1,4.4,67.8,39.2,67.8h217.8c34.8,0,56.6-37.7,39.2-67.8L2394,210.9C2376.5,180.8,2333,180.8,2315.6,210.9Z" fill="#fdfdfe" stroke="#0e1823" stroke-width="3.998"/>
            <path id="Path_584" data-name="Path 584" d="M2315.2,210.8l-109,188.8c-17.4,30.2,4.4,67.9,39.2,67.9h218c34.8,0,56.6-37.7,39.2-67.9l-109-188.8C2376.2,180.7,2332.6,180.7,2315.2,210.8Z" fill="#fff" stroke="#0e1823" stroke-width="4"/>
          </g>
          <g id="Group_212" data-name="Group 212">
            <path id="Path_585" data-name="Path 585" d="M2384.3,198.1,2371,182.7l17.5-2.1-12.6-11.8V147.1" fill="none" stroke="#0f1923" stroke-width="4"/>
            <circle id="Ellipse_107" data-name="Ellipse 107" cx="7" cy="7" r="7" transform="translate(2368.6 143.1)" fill="#0f1923"/>
          </g>
        </g>
        <path id="Path_586" data-name="Path 586" d="M2315.2,210.8l-109,188.8c-17.4,30.2,4.4,67.9,39.2,67.9h218c34.8,0,56.6-37.7,39.2-67.9l-109-188.8C2376.2,180.7,2332.6,180.7,2315.2,210.8Z" fill="#fff" stroke="#0f1923" stroke-width="4"/>
        <path id="Path_587" data-name="Path 587" d="M2354.4,260.7h0a2.862,2.862,0,0,1-2.8-2.8h0a2.862,2.862,0,0,1,2.8-2.8h0a2.862,2.862,0,0,1,2.8,2.8h0A2.8,2.8,0,0,1,2354.4,260.7Z" fill="#fff" stroke="#0f1923" stroke-width="4"/>
        <g id="Group_214" data-name="Group 214">
          <path id="Path_588" data-name="Path 588" d="M2421.2,356.4H2287.7a4.225,4.225,0,0,1-4.2-4.2h0a4.225,4.225,0,0,1,4.2-4.2h133.5a4.225,4.225,0,0,1,4.2,4.2h0A4.225,4.225,0,0,1,2421.2,356.4Z" fill="#0f1923"/>
        </g>
        <g id="Group_220" data-name="Group 220">
          <g id="Group_215" data-name="Group 215">
            <line id="Line_1" data-name="Line 1" x2="64.2" transform="translate(2334.5 432.5)" fill="none" stroke="#0f1923" stroke-linecap="round" stroke-linejoin="round" stroke-width="3.582"/>
            <path id="Path_589" data-name="Path 589" d="M2380.2,436.5H2369a4.012,4.012,0,0,1-4-4h0a4.012,4.012,0,0,1,4-4h11.3a4.012,4.012,0,0,1,4,4h0A4.167,4.167,0,0,1,2380.2,436.5Z" fill="#0f1923" stroke="#0f1923" stroke-linecap="round" stroke-linejoin="round" stroke-width="1.791"/>
          </g>
          <g id="Group_216" data-name="Group 216">
            <line id="Line_2" data-name="Line 2" x2="64.2" transform="translate(2334.5 410.9)" fill="none" stroke="#0f1923" stroke-linecap="round" stroke-linejoin="round" stroke-width="3.582"/>
            <path id="Path_590" data-name="Path 590" d="M2362.4,414.9h-11.3a4.012,4.012,0,0,1-4-4h0a4.012,4.012,0,0,1,4-4h11.3a4.012,4.012,0,0,1,4,4h0A4.012,4.012,0,0,1,2362.4,414.9Z" fill="#0f1923" stroke="#0f1923" stroke-linecap="round" stroke-linejoin="round" stroke-width="1.791"/>
          </g>
          <g id="Group_219" data-name="Group 219">
            <path id="Path_591" data-name="Path 591" d="M2315.5,436.5h0a5.377,5.377,0,0,1-5.4-5.4V412.4a5.377,5.377,0,0,1,5.4-5.4h0a5.377,5.377,0,0,1,5.4,5.4v18.7A5.442,5.442,0,0,1,2315.5,436.5Z" fill="#0f1923" stroke="#0f1923" stroke-width="3.211"/>
            <g id="Group_218" data-name="Group 218">
              <g id="Group_217" data-name="Group 217" transform="translate(2310.9 403.4)" clip-path="url(#clip-path)">
                <rect id="Rectangle_14" data-name="Rectangle 14" width="2.4" height="34" fill="#fff"/>
              </g>
            </g>
          </g>
        </g>
        <g id="Group_223" data-name="Group 223">
          <path id="Path_593" data-name="Path 593" d="M2388.1,324.2H2313a14.084,14.084,0,0,1-14.1-14.1v-23A14.084,14.084,0,0,1,2313,273h75.1a14.084,14.084,0,0,1,14.1,14.1v23A14.213,14.213,0,0,1,2388.1,324.2Z" fill="none" stroke="#0f1923" stroke-width="3"/>
          <g id="Group_222" data-name="Group 222">
            <path id="Path_594" data-name="Path 594" d="M2395.8,324.2h-75.1a14.084,14.084,0,0,1-14.1-14.1v-23a14.084,14.084,0,0,1,14.1-14.1h75.1a14.084,14.084,0,0,1,14.1,14.1v23A14.084,14.084,0,0,1,2395.8,324.2Z" fill="#0f1923" stroke="#0f1923" stroke-width="3"/>
            <g id="Group_221" data-name="Group 221">
              <path id="Path_595" data-name="Path 595" d="M2335.1,309.3h-.8a5.014,5.014,0,0,1-5-5V293a5.015,5.015,0,0,1,5-5h.8a5.014,5.014,0,0,1,5,5v11.3A4.891,4.891,0,0,1,2335.1,309.3Z" fill="#fff"/>
              <path id="Path_596" data-name="Path 596" d="M2382.2,309.3h-.8a5.014,5.014,0,0,1-5-5V293a5.015,5.015,0,0,1,5-5h.8a5.014,5.014,0,0,1,5,5v11.3A4.951,4.951,0,0,1,2382.2,309.3Z" fill="#fff"/>
            </g>
          </g>
        </g>
      </g>
      <text id="MOMO" transform="translate(2331.479 457.523)" fill="#fff" stroke="#fff" stroke-width="2" font-size="19" font-family="BungeeHairline-Regular, Bungee Hairline"><tspan x="0" y="0">MOMO</tspan></text>
      <g id="Group_225" data-name="Group 225">
        <path id="Path_597" data-name="Path 597" d="M2413.3,413.5c.2,0,.4,0,.5-.2s.3-.3.5-.6l2.3-3.5.3-.3c.1,0,.2-.1.3-.1h.3c.2,0,.3,0,.4.1s.1.2.1.4V419h-.2v-9.7a.367.367,0,0,0-.1-.3c0-.1-.1-.1-.3-.1h-.5l-.2.2-2.3,3.5a6.8,6.8,0,0,1-.5.7,1,1,0,0,1-1.2,0,6.794,6.794,0,0,1-.5-.7l-2.3-3.5c-.1-.1-.1-.2-.2-.2h-.5c-.1,0-.2,0-.2.1s-.1.2-.1.3V419h-.2v-9.7c0-.2,0-.4.1-.4.1-.1.2-.1.4-.1h.3a.367.367,0,0,1,.3.1c.1.1.2.1.3.3l2.3,3.5a3.8,3.8,0,0,0,.5.6A.52.52,0,0,0,2413.3,413.5Z" fill="#fff" stroke="#fff" stroke-width="2"/>
        <path id="Path_598" data-name="Path 598" d="M2430.4,416.7a2.56,2.56,0,0,1-.8,1.9,4.556,4.556,0,0,1-3,.7c-1.5,0-2.5-.2-3-.7a2.56,2.56,0,0,1-.8-1.9v-5.6a2.56,2.56,0,0,1,.8-1.9c.5-.5,1.5-.7,3-.7s2.5.2,3,.7a2.56,2.56,0,0,1,.8,1.9Zm-7.5,0a2.136,2.136,0,0,0,.8,1.7,4.875,4.875,0,0,0,2.9.7,4.241,4.241,0,0,0,2.9-.7,2.136,2.136,0,0,0,.8-1.7v-5.6a2.136,2.136,0,0,0-.8-1.7,4.875,4.875,0,0,0-2.9-.7,4.241,4.241,0,0,0-2.9.7,2.136,2.136,0,0,0-.8,1.7Z" fill="#fff" stroke="#fff" stroke-width="2"/>
        <path id="Path_599" data-name="Path 599" d="M2413.3,430.5c.2,0,.4,0,.5-.2s.3-.3.5-.6l2.3-3.5.3-.3c.1,0,.2-.1.3-.1h.3c.2,0,.3,0,.4.1s.1.2.1.4V436h-.2v-9.7a.367.367,0,0,0-.1-.3c0-.1-.1-.1-.3-.1h-.5l-.2.2-2.3,3.5a6.8,6.8,0,0,1-.5.7,1,1,0,0,1-1.2,0,6.794,6.794,0,0,1-.5-.7l-2.3-3.5c-.1-.1-.1-.2-.2-.2h-.5c-.1,0-.2,0-.2.1s-.1.2-.1.3V436h-.2v-9.7c0-.2,0-.4.1-.4.1-.1.2-.1.4-.1h.3a.367.367,0,0,1,.3.1c.1.1.2.1.3.3l2.3,3.5a3.8,3.8,0,0,0,.5.6A.52.52,0,0,0,2413.3,430.5Z" fill="#fff" stroke="#fff" stroke-width="2"/>
        <path id="Path_600" data-name="Path 600" d="M2430.4,433.7a2.56,2.56,0,0,1-.8,1.9,4.556,4.556,0,0,1-3,.7c-1.5,0-2.5-.2-3-.7a2.56,2.56,0,0,1-.8-1.9v-5.6a2.56,2.56,0,0,1,.8-1.9c.5-.5,1.5-.7,3-.7s2.5.2,3,.7a2.56,2.56,0,0,1,.8,1.9Zm-7.5,0a2.136,2.136,0,0,0,.8,1.7,4.875,4.875,0,0,0,2.9.7,4.241,4.241,0,0,0,2.9-.7,2.136,2.136,0,0,0,.8-1.7v-5.6a2.136,2.136,0,0,0-.8-1.7,4.875,4.875,0,0,0-2.9-.7,4.241,4.241,0,0,0-2.9.7,2.136,2.136,0,0,0-.8,1.7Z" fill="#fff" stroke="#fff" stroke-width="2"/>
      </g>
    </g>
    <g id="Group_243" data-name="Group 243">
      <g id="Group_230" data-name="Group 230">
        <g id="Group_228" data-name="Group 228">
          <g id="Group_227" data-name="Group 227">
            <circle id="Ellipse_108" data-name="Ellipse 108" cx="7.2" cy="7.2" r="7.2" transform="translate(2601.1 135.1)" fill="#0f1923"/>
          </g>
          <path id="Path_601" data-name="Path 601" d="M2593.3,213.2c.9-.3,14.3-9.8,14.3-9.8l-9.8-14.3,14.4-9.1-11.2-8.3,8.4-9.8-.7-14.3" fill="none" stroke="#0f1923" stroke-width="4"/>
        </g>
        <g id="Group_229" data-name="Group 229">
          <path id="Path_602" data-name="Path 602" d="M2681.8,430.5l95.4-165.2c15.2-26.4-3.8-59.4-34.3-59.4H2552.1c-30.5,0-49.5,33-34.3,59.4l95.4,165.2C2628.4,456.9,2666.5,456.9,2681.8,430.5Z" fill="#0f1923" stroke="#0f1923" stroke-width="3.739"/>
          <path id="Path_603" data-name="Path 603" d="M2681.4,430.6l95.5-165.4c15.3-26.4-3.8-59.5-34.3-59.5h-191c-30.5,0-49.6,33-34.3,59.5l95.5,165.4C2628,457.1,2666.2,457.1,2681.4,430.6Z" fill="#111b24" stroke="#0f1923" stroke-width="3.74"/>
          <path id="Path_604" data-name="Path 604" d="M2681.1,430.7l95.6-165.6c15.3-26.4-3.8-59.5-34.4-59.5H2551.1c-30.5,0-49.6,33.1-34.4,59.5l95.6,165.6C2627.7,457.2,2665.9,457.2,2681.1,430.7Z" fill="#121c26" stroke="#0f1923" stroke-width="3.742"/>
          <path id="Path_605" data-name="Path 605" d="M2680.8,430.8l95.7-165.7c15.3-26.5-3.8-59.6-34.4-59.6H2550.8c-30.6,0-49.7,33.1-34.4,59.6l95.7,165.7C2627.3,457.3,2665.5,457.3,2680.8,430.8Z" fill="#141e27" stroke="#0f1923" stroke-width="3.744"/>
          <path id="Path_606" data-name="Path 606" d="M2680.5,430.9,2776.3,265c15.3-26.5-3.8-59.6-34.4-59.6H2550.4c-30.6,0-49.7,33.1-34.4,59.6l95.8,165.9C2626.9,457.4,2665.2,457.4,2680.5,430.9Z" fill="#151f29" stroke="#0f1923" stroke-width="3.746"/>
          <path id="Path_607" data-name="Path 607" d="M2680.2,431l95.9-166c15.3-26.5-3.8-59.7-34.5-59.7H2549.9c-30.6,0-49.8,33.2-34.5,59.7l95.9,166C2626.6,457.5,2664.9,457.5,2680.2,431Z" fill="#17212a" stroke="#0f1923" stroke-width="3.747"/>
          <path id="Path_608" data-name="Path 608" d="M2679.9,431.1l95.9-166.2c15.3-26.5-3.8-59.7-34.5-59.7H2549.4c-30.7,0-49.8,33.2-34.5,59.7l95.9,166.2C2626.2,457.7,2664.5,457.7,2679.9,431.1Z" fill="#19222c" stroke="#0f1923" stroke-width="3.749"/>
          <path id="Path_609" data-name="Path 609" d="M2679.5,431.2l96-166.3c15.3-26.6-3.8-59.8-34.5-59.8H2549c-30.7,0-49.9,33.2-34.5,59.8l96,166.3C2625.8,457.8,2664.2,457.8,2679.5,431.2Z" fill="#1a242d" stroke="#0f1923" stroke-width="3.751"/>
          <path id="Path_610" data-name="Path 610" d="M2679.2,431.3l96.1-166.5c15.4-26.6-3.8-59.8-34.6-59.8H2548.5c-30.7,0-49.9,33.2-34.6,59.8L2610,431.3C2625.5,457.9,2663.9,457.9,2679.2,431.3Z" fill="#1c252f" stroke="#0f1923" stroke-width="3.753"/>
          <path id="Path_611" data-name="Path 611" d="M2678.9,431.4l96.2-166.6c15.4-26.6-3.8-59.9-34.6-59.9H2548.1c-30.7,0-50,33.3-34.6,59.9l96.2,166.6C2625.1,458,2663.5,458,2678.9,431.4Z" fill="#1d2730" stroke="#0f1923" stroke-width="3.754"/>
          <path id="Path_612" data-name="Path 612" d="M2678.6,431.5l96.3-166.8c15.4-26.6-3.8-60-34.6-60H2547.7c-30.8,0-50,33.3-34.6,60l96.3,166.8C2624.7,458.1,2663.2,458.1,2678.6,431.5Z" fill="#1f2832" stroke="#0f1923" stroke-width="3.756"/>
          <path id="Path_613" data-name="Path 613" d="M2678.3,431.6l96.4-167c15.4-26.7-3.8-60-34.6-60H2547.3c-30.8,0-50,33.3-34.6,60l96.4,167C2624.4,458.3,2662.9,458.3,2678.3,431.6Z" fill="#202a33" stroke="#0f1923" stroke-width="3.758"/>
          <path id="Path_614" data-name="Path 614" d="M2677.9,431.7l96.5-167.1c15.4-26.7-3.9-60.1-34.7-60.1h-193c-30.8,0-50.1,33.4-34.7,60.1l96.5,167.1C2624,458.4,2662.5,458.4,2677.9,431.7Z" fill="#222b34" stroke="#0f1923" stroke-width="3.76"/>
          <path id="Path_615" data-name="Path 615" d="M2677.6,431.8l96.6-167.3c15.4-26.7-3.9-60.1-34.7-60.1H2546.4c-30.9,0-50.1,33.4-34.7,60.1l96.6,167.3C2623.6,458.5,2662.2,458.5,2677.6,431.8Z" fill="#242d36" stroke="#0f1923" stroke-width="3.761"/>
          <path id="Path_616" data-name="Path 616" d="M2677.3,431.9,2774,264.5c15.4-26.7-3.9-60.2-34.7-60.2H2546c-30.9,0-50.2,33.4-34.7,60.2L2608,431.9C2623.3,458.6,2661.9,458.6,2677.3,431.9Z" fill="#252e37" stroke="#0f1923" stroke-width="3.763"/>
          <path id="Path_617" data-name="Path 617" d="M2677,432l96.8-167.6c15.5-26.8-3.9-60.2-34.8-60.2H2545.5c-30.9,0-50.2,33.5-34.8,60.2L2607.5,432C2622.9,458.7,2661.5,458.7,2677,432Z" fill="#273039" stroke="#0f1923" stroke-width="3.765"/>
          <path id="Path_618" data-name="Path 618" d="M2676.7,432.1l96.8-167.7c15.5-26.8-3.9-60.3-34.8-60.3H2545c-30.9,0-50.3,33.5-34.8,60.3L2607,432.1C2622.5,458.9,2661.2,458.9,2676.7,432.1Z" fill="#28313a" stroke="#0f1923" stroke-width="3.766"/>
          <path id="Path_619" data-name="Path 619" d="M2676.4,432.2l96.9-167.9c15.5-26.8-3.9-60.4-34.8-60.4H2544.6c-31,0-50.3,33.5-34.8,60.4l96.9,167.9C2622.2,459,2660.9,459,2676.4,432.2Z" fill="#2a333c" stroke="#0f1923" stroke-width="3.768"/>
          <path id="Path_620" data-name="Path 620" d="M2676,432.2l97-168.1c15.5-26.8-3.9-60.4-34.9-60.4h-194c-31,0-50.4,33.6-34.9,60.4l97,168.1C2621.8,459.1,2660.5,459.1,2676,432.2Z" fill="#2c343d" stroke="#0f1923" stroke-width="3.77"/>
          <path id="Path_621" data-name="Path 621" d="M2675.7,432.3l97.1-168.2c15.5-26.9-3.9-60.5-34.9-60.5H2543.7c-31,0-50.4,33.6-34.9,60.5l97.1,168.2C2621.4,459.2,2660.2,459.2,2675.7,432.3Z" fill="#2d363f" stroke="#0f1923" stroke-width="3.772"/>
          <path id="Path_622" data-name="Path 622" d="M2675.4,432.4,2772.6,264c15.5-26.9-3.9-60.5-34.9-60.5H2543.3c-31.1,0-50.5,33.6-34.9,60.5l97.2,168.4C2621.1,459.3,2659.9,459.3,2675.4,432.4Z" fill="#2f3740" stroke="#0f1923" stroke-width="3.773"/>
          <path id="Path_623" data-name="Path 623" d="M2675.1,432.5,2772.4,264c15.5-26.9-3.9-60.6-35-60.6H2542.8c-31.1,0-50.5,33.7-35,60.6l97.3,168.5A40.372,40.372,0,0,0,2675.1,432.5Z" fill="#303942" stroke="#0f1923" stroke-width="3.775"/>
          <path id="Path_624" data-name="Path 624" d="M2674.8,432.6l97.4-168.7c15.6-26.9-3.9-60.6-35-60.6H2542.4c-31.1,0-50.6,33.7-35,60.6l97.4,168.7C2620.3,459.6,2659.2,459.6,2674.8,432.6Z" fill="#323b43" stroke="#0f1923" stroke-width="3.777"/>
          <path id="Path_625" data-name="Path 625" d="M2674.5,432.7,2772,263.9c15.6-27-3.9-60.7-35-60.7H2542c-31.1,0-50.6,33.7-35,60.7l97.5,168.8C2620,459.7,2658.9,459.7,2674.5,432.7Z" fill="#343c45" stroke="#0f1923" stroke-width="3.779"/>
          <path id="Path_626" data-name="Path 626" d="M2674.1,432.8l97.6-169c15.6-27-3.9-60.7-35.1-60.7H2541.5c-31.2,0-50.7,33.7-35.1,60.7l97.6,169C2619.6,459.8,2658.5,459.8,2674.1,432.8Z" fill="#353e46" stroke="#0f1923" stroke-width="3.78"/>
          <path id="Path_627" data-name="Path 627" d="M2673.8,432.9l97.7-169.1c15.6-27-3.9-60.8-35.1-60.8H2541.1c-31.2,0-50.7,33.8-35.1,60.8l97.7,169.1C2619.2,459.9,2658.2,459.9,2673.8,432.9Z" fill="#373f47" stroke="#0f1923" stroke-width="3.782"/>
          <path id="Path_628" data-name="Path 628" d="M2673.5,433l97.7-169.3c15.6-27-3.9-60.9-35.1-60.9H2540.6c-31.2,0-50.8,33.8-35.1,60.9L2603.2,433C2618.8,460.1,2657.9,460.1,2673.5,433Z" fill="#384149" stroke="#0f1923" stroke-width="3.784"/>
          <path id="Path_629" data-name="Path 629" d="M2673.2,433.1,2771,263.6c15.6-27.1-3.9-60.9-35.2-60.9H2540.1c-31.3,0-50.8,33.8-35.2,60.9l97.8,169.5C2618.5,460.2,2657.6,460.2,2673.2,433.1Z" fill="#3a424a" stroke="#0f1923" stroke-width="3.785"/>
          <path id="Path_630" data-name="Path 630" d="M2672.9,433.2l97.9-169.6c15.6-27.1-3.9-61-35.2-61H2539.7c-31.3,0-50.8,33.9-35.2,61l97.9,169.6C2618.1,460.3,2657.2,460.3,2672.9,433.2Z" fill="#3c444c" stroke="#0f1923" stroke-width="3.787"/>
          <path id="Path_631" data-name="Path 631" d="M2672.5,433.3l98-169.8c15.7-27.1-3.9-61-35.2-61h-196c-31.3,0-50.9,33.9-35.2,61l98,169.8C2617.7,460.4,2656.9,460.4,2672.5,433.3Z" fill="#3d454d" stroke="#0f1923" stroke-width="3.789"/>
          <path id="Path_632" data-name="Path 632" d="M2672.2,433.4l98.1-169.9c15.7-27.1-3.9-61.1-35.3-61.1H2538.8c-31.3,0-50.9,33.9-35.3,61.1l98.1,169.9C2617.4,460.5,2656.6,460.5,2672.2,433.4Z" fill="#3f474f" stroke="#0f1923" stroke-width="3.791"/>
          <path id="Path_633" data-name="Path 633" d="M2671.9,433.5l98.2-170.1c15.7-27.2-3.9-61.1-35.3-61.1H2538.4c-31.4,0-51,34-35.3,61.1l98.2,170.1C2617,460.7,2656.2,460.7,2671.9,433.5Z" fill="#404850" stroke="#0f1923" stroke-width="3.792"/>
          <path id="Path_634" data-name="Path 634" d="M2671.6,433.6l98.3-170.2c15.7-27.2-3.9-61.2-35.3-61.2H2538c-31.4,0-51,34-35.3,61.2L2601,433.6C2616.6,460.8,2655.9,460.8,2671.6,433.6Z" fill="#424a52" stroke="#0f1923" stroke-width="3.794"/>
          <path id="Path_635" data-name="Path 635" d="M2671.3,433.7l98.4-170.4c15.7-27.2-3.9-61.2-35.4-61.2H2537.5c-31.4,0-51.1,34-35.4,61.2l98.4,170.4C2616.3,460.9,2655.6,460.9,2671.3,433.7Z" fill="#434b53" stroke="#0f1923" stroke-width="3.796"/>
          <path id="Path_636" data-name="Path 636" d="M2671,433.8l98.5-170.5c15.7-27.2-3.9-61.3-35.4-61.3H2537.2c-31.5,0-51.1,34.1-35.4,61.3l98.5,170.5C2615.9,461,2655.2,461,2671,433.8Z" fill="#454d55" stroke="#0f1923" stroke-width="3.797"/>
          <path id="Path_637" data-name="Path 637" d="M2670.6,433.9l98.6-170.7c15.7-27.3-3.9-61.4-35.4-61.4H2536.7c-31.5,0-51.2,34.1-35.4,61.4l98.6,170.7C2615.5,461.1,2654.9,461.1,2670.6,433.9Z" fill="#474e56" stroke="#0f1923" stroke-width="3.799"/>
          <path id="Path_638" data-name="Path 638" d="M2670.3,434l98.6-170.9c15.8-27.3-3.9-61.4-35.5-61.4H2536.1c-31.5,0-51.2,34.1-35.5,61.4L2599.2,434C2615.2,461.3,2654.6,461.3,2670.3,434Z" fill="#485057" stroke="#0f1923" stroke-width="3.801"/>
          <path id="Path_639" data-name="Path 639" d="M2670,434.1l98.7-171c15.8-27.3-3.9-61.5-35.5-61.5H2535.7c-31.5,0-51.3,34.2-35.5,61.5l98.7,171C2614.8,461.4,2654.2,461.4,2670,434.1Z" fill="#4a5159" stroke="#0f1923" stroke-width="3.803"/>
          <path id="Path_640" data-name="Path 640" d="M2669.7,434.1l98.8-171.2c15.8-27.3-3.9-61.5-35.5-61.5H2535.3c-31.6,0-51.3,34.2-35.5,61.5l98.8,171.2C2614.4,461.5,2653.9,461.5,2669.7,434.1Z" fill="#4b535a" stroke="#0f1923" stroke-width="3.805"/>
          <path id="Path_641" data-name="Path 641" d="M2669.4,434.2l98.9-171.3c15.8-27.4-4-61.6-35.6-61.6H2534.9c-31.6,0-51.4,34.2-35.6,61.6l98.9,171.3C2614.1,461.6,2653.6,461.6,2669.4,434.2Z" fill="#4d545c" stroke="#0f1923" stroke-width="3.806"/>
          <path id="Path_642" data-name="Path 642" d="M2669.1,434.3l99-171.5c15.8-27.4-4-61.6-35.6-61.6h-198c-31.6,0-51.4,34.2-35.6,61.6l99,171.5C2613.7,461.7,2653.2,461.7,2669.1,434.3Z" fill="#4f565d" stroke="#0f1923" stroke-width="3.808"/>
          <path id="Path_643" data-name="Path 643" d="M2668.7,434.4l99.1-171.6c15.8-27.4-4-61.7-35.6-61.7H2534c-31.7,0-51.5,34.3-35.6,61.7l99.1,171.6C2613.3,461.9,2652.9,461.9,2668.7,434.4Z" fill="#50575f" stroke="#0f1923" stroke-width="3.81"/>
          <path id="Path_644" data-name="Path 644" d="M2668.4,434.5l99.2-171.8c15.8-27.4-4-61.8-35.7-61.8H2533.5c-31.7,0-51.5,34.3-35.7,61.8L2597,434.5C2613,462,2652.6,462,2668.4,434.5Z" fill="#525960" stroke="#0f1923" stroke-width="3.811"/>
          <path id="Path_645" data-name="Path 645" d="M2668.1,434.6l99.3-172c15.9-27.5-4-61.8-35.7-61.8H2533.1c-31.7,0-51.5,34.3-35.7,61.8l99.3,172C2612.6,462.1,2652.2,462.1,2668.1,434.6Z" fill="#535a62" stroke="#0f1923" stroke-width="3.813"/>
          <path id="Path_646" data-name="Path 646" d="M2667.8,434.7l99.4-172.1c15.9-27.5-4-61.9-35.7-61.9H2532.8c-31.7,0-51.6,34.4-35.7,61.9l99.4,172.1C2612.2,462.2,2651.9,462.2,2667.8,434.7Z" fill="#555c63" stroke="#0f1923" stroke-width="3.815"/>
          <path id="Path_647" data-name="Path 647" d="M2667.5,434.8,2767,262.5c15.9-27.5-4-61.9-35.8-61.9H2532.3c-31.8,0-51.6,34.4-35.8,61.9L2596,434.8C2611.9,462.3,2651.6,462.3,2667.5,434.8Z" fill="#575e65" stroke="#0f1923" stroke-width="3.817"/>
          <path id="Path_648" data-name="Path 648" d="M2667.2,434.9l99.5-172.4c15.9-27.5-4-62-35.8-62H2531.8c-31.8,0-51.7,34.4-35.8,62l99.5,172.4C2611.5,462.5,2651.2,462.5,2667.2,434.9Z" fill="#585f66" stroke="#0f1923" stroke-width="3.818"/>
          <path id="Path_649" data-name="Path 649" d="M2666.8,435l99.6-172.6c15.9-27.6-4-62-35.8-62H2531.3c-31.8,0-51.7,34.5-35.8,62L2595.1,435C2611.1,462.6,2650.9,462.6,2666.8,435Z" fill="#5a6167" stroke="#0f1923" stroke-width="3.82"/>
          <path id="Path_650" data-name="Path 650" d="M2666.5,435.1l99.7-172.7c15.9-27.6-4-62.1-35.8-62.1H2530.9c-31.9,0-51.8,34.5-35.8,62.1l99.7,172.7C2610.8,462.7,2650.6,462.7,2666.5,435.1Z" fill="#5b6269" stroke="#0f1923" stroke-width="3.822"/>
          <path id="Path_651" data-name="Path 651" d="M2666.2,435.2,2766,262.3c15.9-27.6-4-62.1-35.9-62.1H2530.5c-31.9,0-51.8,34.5-35.9,62.1l99.8,172.9C2610.4,462.8,2650.3,462.8,2666.2,435.2Z" fill="#5d646a" stroke="#0f1923" stroke-width="3.823"/>
          <path id="Path_652" data-name="Path 652" d="M2665.9,435.3l99.9-173c16-27.6-4-62.2-35.9-62.2H2530.1c-31.9,0-51.9,34.6-35.9,62.2l99.9,173C2610,462.9,2649.9,462.9,2665.9,435.3Z" fill="#5e656c" stroke="#0f1923" stroke-width="3.825"/>
          <path id="Path_653" data-name="Path 653" d="M2665.6,435.4l100-173.2c16-27.7-4-62.3-35.9-62.3h-200c-32,0-51.9,34.6-35.9,62.3l100,173.2C2609.6,463.1,2649.6,463.1,2665.6,435.4Z" fill="#60676d" stroke="#0f1923" stroke-width="3.827"/>
          <path id="Path_654" data-name="Path 654" d="M2665.2,435.5l100.1-173.4c16-27.7-4-62.3-36-62.3H2529.1c-32,0-52,34.6-36,62.3l100.1,173.4C2609.3,463.2,2649.3,463.2,2665.2,435.5Z" fill="#62686f" stroke="#0f1923" stroke-width="3.829"/>
          <path id="Path_655" data-name="Path 655" d="M2664.9,435.6l100.2-173.5c16-27.7-4-62.4-36-62.4H2528.7c-32,0-52,34.7-36,62.4l100.2,173.5C2608.9,463.3,2648.9,463.3,2664.9,435.6Z" fill="#636a70" stroke="#0f1923" stroke-width="3.83"/>
          <path id="Path_656" data-name="Path 656" d="M2664.6,435.7,2764.9,262c16-27.7-4-62.4-36-62.4H2528.4c-32,0-52.1,34.7-36,62.4l100.3,173.7C2608.5,463.4,2648.6,463.4,2664.6,435.7Z" fill="#656b72" stroke="#0f1923" stroke-width="3.832"/>
          <path id="Path_657" data-name="Path 657" d="M2664.3,435.8,2764.7,262c16-27.8-4-62.5-36.1-62.5H2527.9c-32.1,0-52.1,34.7-36.1,62.5l100.4,173.8C2608.2,463.5,2648.3,463.5,2664.3,435.8Z" fill="#666d73" stroke="#0f1923" stroke-width="3.834"/>
          <path id="Path_658" data-name="Path 658" d="M2664,435.9l100.5-174c16-27.8-4-62.5-36.1-62.5H2527.5c-32.1,0-52.2,34.7-36.1,62.5l100.5,174C2607.8,463.7,2647.9,463.7,2664,435.9Z" fill="#686e75" stroke="#0f1923" stroke-width="3.836"/>
          <path id="Path_659" data-name="Path 659" d="M2663.7,436l100.5-174.1c16.1-27.8-4-62.6-36.1-62.6H2527c-32.1,0-52.2,34.8-36.1,62.6L2591.4,436C2607.4,463.8,2647.6,463.8,2663.7,436Z" fill="#6a7076" stroke="#0f1923" stroke-width="3.837"/>
          <path id="Path_660" data-name="Path 660" d="M2663.3,436.1,2764,261.8c16.1-27.8-4-62.7-36.2-62.7H2526.5c-32.2,0-52.2,34.8-36.2,62.7L2591,436.1C2607.1,463.9,2647.3,463.9,2663.3,436.1Z" fill="#6b7178" stroke="#0f1923" stroke-width="3.839"/>
          <path id="Path_661" data-name="Path 661" d="M2663,436.1l100.7-174.5c16.1-27.9-4-62.7-36.2-62.7H2526.1c-32.2,0-52.3,34.8-36.2,62.7l100.7,174.5C2606.7,464,2646.9,464,2663,436.1Z" fill="#6d7379" stroke="#0f1923" stroke-width="3.841"/>
          <path id="Path_662" data-name="Path 662" d="M2662.7,436.2l100.8-174.6c16.1-27.9-4-62.8-36.2-62.8H2525.7c-32.2,0-52.3,34.9-36.2,62.8l100.8,174.6C2606.3,464.1,2646.6,464.1,2662.7,436.2Z" fill="#6e747a" stroke="#0f1923" stroke-width="3.842"/>
          <path id="Path_663" data-name="Path 663" d="M2662.4,436.3l100.9-174.8c16.1-27.9-4-62.8-36.3-62.8H2525.2c-32.2,0-52.4,34.9-36.3,62.8l100.9,174.8C2606,464.3,2646.3,464.3,2662.4,436.3Z" fill="#70767c" stroke="#0f1923" stroke-width="3.844"/>
          <path id="Path_664" data-name="Path 664" d="M2662.1,436.4l101-174.9c16.1-27.9-4-62.9-36.3-62.9h-202c-32.3,0-52.4,34.9-36.3,62.9l101,174.9C2605.6,464.4,2645.9,464.4,2662.1,436.4Z" fill="#72777d" stroke="#0f1923" stroke-width="3.846"/>
          <path id="Path_665" data-name="Path 665" d="M2661.8,436.5l101.1-175.1c16.1-28-4-62.9-36.3-62.9H2524.4c-32.3,0-52.5,35-36.3,62.9l101.1,175.1C2605.2,464.5,2645.6,464.5,2661.8,436.5Z" fill="#73797f" stroke="#0f1923" stroke-width="3.848"/>
          <path id="Path_666" data-name="Path 666" d="M2661.4,436.6l101.2-175.2c16.2-28-4-63-36.4-63H2523.9c-32.3,0-52.5,35-36.4,63l101.2,175.2C2604.9,464.6,2645.3,464.6,2661.4,436.6Z" fill="#757a80" stroke="#0f1923" stroke-width="3.849"/>
          <path id="Path_667" data-name="Path 667" d="M2661.1,436.7l101.3-175.4c16.2-28-4-63-36.4-63H2523.5c-32.4,0-52.6,35-36.4,63l101.3,175.4C2604.5,464.7,2644.9,464.7,2661.1,436.7Z" fill="#767c82" stroke="#0f1923" stroke-width="3.851"/>
          <path id="Path_668" data-name="Path 668" d="M2660.8,436.8l101.4-175.5c16.2-28-4-63.1-36.4-63.1H2523c-32.4,0-52.6,35.1-36.4,63.1L2588,436.8C2604.1,464.9,2644.6,464.9,2660.8,436.8Z" fill="#787e83" stroke="#0f1923" stroke-width="3.853"/>
          <path id="Path_669" data-name="Path 669" d="M2660.5,436.9l101.4-175.7c16.2-28.1-4.1-63.2-36.5-63.2H2522.5c-32.4,0-52.7,35.1-36.5,63.2l101.4,175.7C2603.8,465,2644.3,465,2660.5,436.9Z" fill="#797f85" stroke="#0f1923" stroke-width="3.855"/>
          <path id="Path_670" data-name="Path 670" d="M2660.2,437l101.5-175.9c16.2-28.1-4.1-63.2-36.5-63.2H2522.1c-32.4,0-52.7,35.1-36.5,63.2L2587.2,437C2603.4,465.1,2643.9,465.1,2660.2,437Z" fill="#7b8186" stroke="#0f1923" stroke-width="3.856"/>
          <path id="Path_671" data-name="Path 671" d="M2659.8,437.1l101.6-176c16.2-28.1-4.1-63.3-36.5-63.3H2521.7c-32.5,0-52.8,35.1-36.5,63.3l101.6,176C2603,465.2,2643.6,465.2,2659.8,437.1Z" fill="#7d8288" stroke="#0f1923" stroke-width="3.858"/>
          <path id="Path_672" data-name="Path 672" d="M2659.5,437.2,2761.2,261c16.2-28.1-4.1-63.3-36.6-63.3H2521.2c-32.5,0-52.8,35.2-36.6,63.3l101.7,176.2C2602.7,465.3,2643.3,465.3,2659.5,437.2Z" fill="#7e8489" stroke="#0f1923" stroke-width="3.86"/>
          <path id="Path_673" data-name="Path 673" d="M2659.2,437.3,2761,261c16.3-28.2-4.1-63.4-36.6-63.4H2520.8c-32.5,0-52.9,35.2-36.6,63.4L2586,437.3C2602.3,465.5,2643,465.5,2659.2,437.3Z" fill="#80858a" stroke="#0f1923" stroke-width="3.862"/>
          <path id="Path_674" data-name="Path 674" d="M2658.9,437.4l101.9-176.5c16.3-28.2-4.1-63.4-36.6-63.4H2520.4c-32.6,0-52.9,35.2-36.6,63.4l101.9,176.5C2601.9,465.6,2642.6,465.6,2658.9,437.4Z" fill="#81878c" stroke="#0f1923" stroke-width="3.863"/>
          <path id="Path_675" data-name="Path 675" d="M2658.6,437.5l102-176.6c16.3-28.2-4.1-63.5-36.7-63.5h-204c-32.6,0-53,35.3-36.7,63.5l102,176.6C2601.6,465.7,2642.3,465.7,2658.6,437.5Z" fill="#83888d" stroke="#0f1923" stroke-width="3.865"/>
          <path id="Path_676" data-name="Path 676" d="M2658.3,437.6l102.1-176.8c16.3-28.2-4.1-63.6-36.7-63.6H2519.6c-32.6,0-53,35.3-36.7,63.6L2585,437.6C2601.2,465.8,2642,465.8,2658.3,437.6Z" fill="#858a8f" stroke="#0f1923" stroke-width="3.867"/>
          <path id="Path_677" data-name="Path 677" d="M2657.9,437.7l102.2-177c16.3-28.3-4.1-63.6-36.7-63.6H2519.1c-32.6,0-53,35.3-36.7,63.6l102.2,177C2600.8,465.9,2641.6,465.9,2657.9,437.7Z" fill="#868b90" stroke="#0f1923" stroke-width="3.868"/>
          <path id="Path_678" data-name="Path 678" d="M2657.6,437.8l102.3-177.1c16.3-28.3-4.1-63.7-36.8-63.7H2518.6c-32.7,0-53.1,35.4-36.8,63.7l102.3,177.1C2600.5,466.1,2641.3,466.1,2657.6,437.8Z" fill="#888d92" stroke="#0e1823" stroke-width="3.87"/>
          <path id="Path_679" data-name="Path 679" d="M2657.3,437.9l102.3-177.3c16.4-28.3-4.1-63.7-36.8-63.7H2518.1c-32.7,0-53.1,35.4-36.8,63.7l102.3,177.3C2600.1,466.2,2641,466.2,2657.3,437.9Z" fill="#898e93" stroke="#0e1823" stroke-width="3.872"/>
          <path id="Path_680" data-name="Path 680" d="M2657,438l102.4-177.4c16.4-28.3-4.1-63.8-36.8-63.8H2517.7c-32.7,0-53.2,35.4-36.8,63.8L2583.4,438C2599.7,466.3,2640.6,466.3,2657,438Z" fill="#8b9095" stroke="#0e1823" stroke-width="3.874"/>
          <path id="Path_681" data-name="Path 681" d="M2656.7,438l102.5-177.6c16.4-28.4-4.1-63.8-36.9-63.8h-205c-32.8,0-53.2,35.5-36.9,63.8L2583,438C2599.3,466.4,2640.3,466.4,2656.7,438Z" fill="#8d9196" stroke="#0e1823" stroke-width="3.875"/>
          <path id="Path_682" data-name="Path 682" d="M2656.4,438.1,2759,260.4c16.4-28.4-4.1-63.9-36.9-63.9H2516.9c-32.8,0-53.3,35.5-36.9,63.9l102.6,177.7C2599,466.5,2640,466.5,2656.4,438.1Z" fill="#8e9398" stroke="#0e1823" stroke-width="3.877"/>
          <path id="Path_683" data-name="Path 683" d="M2656,438.2l102.7-177.9c16.4-28.4-4.1-63.9-36.9-63.9H2516.4c-32.8,0-53.3,35.5-36.9,63.9l102.7,177.9C2598.6,466.7,2639.6,466.7,2656,438.2Z" fill="#909499" stroke="#0e1823" stroke-width="3.879"/>
          <path id="Path_684" data-name="Path 684" d="M2655.7,438.3l102.8-178c16.4-28.4-4.1-64-36.9-64H2516c-32.8,0-53.4,35.6-36.9,64l102.8,178C2598.2,466.8,2639.3,466.8,2655.7,438.3Z" fill="#91969a" stroke="#0e1823" stroke-width="3.881"/>
          <path id="Path_685" data-name="Path 685" d="M2655.4,438.4l102.9-178.2c16.4-28.5-4.1-64.1-37-64.1H2515.5c-32.9,0-53.4,35.6-37,64.1l102.9,178.2C2597.9,466.9,2639,466.9,2655.4,438.4Z" fill="#93979c" stroke="#0e1823" stroke-width="3.882"/>
          <path id="Path_686" data-name="Path 686" d="M2655.1,438.5l103-178.4c16.5-28.5-4.1-64.1-37-64.1H2515.2c-32.9,0-53.5,35.6-37,64.1l103,178.4C2597.5,467,2638.6,467,2655.1,438.5Z" fill="#95999d" stroke="#0e1823" stroke-width="3.884"/>
          <path id="Path_687" data-name="Path 687" d="M2654.8,438.6l103.1-178.5c16.5-28.5-4.1-64.2-37-64.2H2514.8c-32.9,0-53.5,35.6-37,64.2l103.1,178.5C2597.1,467.1,2638.3,467.1,2654.8,438.6Z" fill="#969a9f" stroke="#0e1823" stroke-width="3.886"/>
          <path id="Path_688" data-name="Path 688" d="M2654.5,438.7,2757.6,260c16.5-28.5-4.1-64.2-37.1-64.2H2514.2c-33,0-53.6,35.7-37.1,64.2l103.2,178.7C2596.8,467.3,2638,467.3,2654.5,438.7Z" fill="#989ca0" stroke="#0e1823" stroke-width="3.888"/>
          <path id="Path_689" data-name="Path 689" d="M2654.1,438.8,2757.4,260c16.5-28.6-4.1-64.3-37.1-64.3H2513.8c-33,0-53.6,35.7-37.1,64.3l103.2,178.8C2596.4,467.4,2637.6,467.4,2654.1,438.8Z" fill="#999ea2" stroke="#0e1823" stroke-width="3.889"/>
          <path id="Path_690" data-name="Path 690" d="M2653.8,438.9l103.3-179c16.5-28.6-4.1-64.3-37.1-64.3H2513.3c-33,0-53.7,35.7-37.1,64.3l103.3,179C2596,467.5,2637.3,467.5,2653.8,438.9Z" fill="#9b9fa3" stroke="#0e1823" stroke-width="3.891"/>
          <path id="Path_691" data-name="Path 691" d="M2653.5,439l103.4-179.1c16.5-28.6-4.1-64.4-37.2-64.4H2512.8c-33,0-53.7,35.8-37.2,64.4L2579.1,439C2595.7,467.6,2637,467.6,2653.5,439Z" fill="#9ca1a5" stroke="#0e1823" stroke-width="3.893"/>
          <path id="Path_692" data-name="Path 692" d="M2653.2,439.1l103.5-179.3c16.5-28.6-4.1-64.4-37.2-64.4h-207c-33.1,0-53.7,35.8-37.2,64.4l103.5,179.3C2595.3,467.7,2636.6,467.7,2653.2,439.1Z" fill="#9ea2a6" stroke="#0e1823" stroke-width="3.894"/>
          <path id="Path_693" data-name="Path 693" d="M2652.9,439.2l103.6-179.4c16.6-28.7-4.1-64.5-37.2-64.5H2512c-33.1,0-53.8,35.8-37.2,64.5l103.6,179.4C2594.9,467.9,2636.3,467.9,2652.9,439.2Z" fill="#a0a4a8" stroke="#0e1823" stroke-width="3.896"/>
          <path id="Path_694" data-name="Path 694" d="M2652.5,439.3l103.7-179.6c16.6-28.7-4.1-64.6-37.3-64.6H2511.5c-33.1,0-53.8,35.9-37.3,64.6L2578,439.3C2594.6,468,2636,468,2652.5,439.3Z" fill="#a1a5a9" stroke="#0e1823" stroke-width="3.898"/>
          <path id="Path_695" data-name="Path 695" d="M2652.2,439.4,2756,259.6c16.6-28.7-4.1-64.6-37.3-64.6H2511.1c-33.2,0-53.9,35.9-37.3,64.6l103.8,179.8C2594.2,468.1,2635.6,468.1,2652.2,439.4Z" fill="#a3a7aa" stroke="#0e1823" stroke-width="3.9"/>
          <path id="Path_696" data-name="Path 696" d="M2651.9,439.5l103.9-179.9c16.6-28.7-4.1-64.7-37.3-64.7H2510.7c-33.2,0-53.9,35.9-37.3,64.7l103.9,179.9C2593.8,468.2,2635.3,468.2,2651.9,439.5Z" fill="#a4a8ac" stroke="#0e1823" stroke-width="3.901"/>
          <path id="Path_697" data-name="Path 697" d="M2651.6,439.6l104-180.1c16.6-28.8-4.2-64.7-37.4-64.7H2510.3c-33.2,0-54,36-37.4,64.7l104,180.1C2593.5,468.3,2635,468.3,2651.6,439.6Z" fill="#a6aaad" stroke="#0e1823" stroke-width="3.903"/>
          <path id="Path_698" data-name="Path 698" d="M2651.3,439.7l104.1-180.2c16.6-28.8-4.2-64.8-37.4-64.8H2509.9c-33.2,0-54,36-37.4,64.8l104.1,180.2C2593.1,468.5,2634.7,468.5,2651.3,439.7Z" fill="#a8abaf" stroke="#0e1823" stroke-width="3.905"/>
          <path id="Path_699" data-name="Path 699" d="M2651,439.8l104.1-180.4c16.6-28.8-4.2-64.8-37.4-64.8H2509.4c-33.3,0-54.1,36-37.4,64.8l104.1,180.4C2592.7,468.6,2634.3,468.6,2651,439.8Z" fill="#a9adb0" stroke="#0e1823" stroke-width="3.907"/>
          <path id="Path_700" data-name="Path 700" d="M2650.6,439.9l104.2-180.5c16.7-28.8-4.2-64.9-37.5-64.9H2508.8c-33.3,0-54.1,36.1-37.5,64.9l104.2,180.5C2592.4,468.7,2634,468.7,2650.6,439.9Z" fill="#abaeb2" stroke="#0e1823" stroke-width="3.908"/>
          <path id="Path_701" data-name="Path 701" d="M2650.3,439.9l104.3-180.7c16.7-28.9-4.2-65-37.5-65H2508.4c-33.3,0-54.2,36.1-37.5,65l104.3,180.7C2592,468.8,2633.7,468.8,2650.3,439.9Z" fill="#acb0b3" stroke="#0e1823" stroke-width="3.91"/>
          <path id="Path_702" data-name="Path 702" d="M2650,440l104.4-180.9c16.7-28.9-4.2-65-37.5-65H2508.1c-33.4,0-54.2,36.1-37.5,65L2574.9,440C2591.6,468.9,2633.3,468.9,2650,440Z" fill="#aeb1b5" stroke="#0e1823" stroke-width="3.912"/>
          <path id="Path_703" data-name="Path 703" d="M2649.7,440.1l104.5-181c16.7-28.9-4.2-65.1-37.6-65.1h-209c-33.4,0-54.3,36.1-37.6,65.1l104.5,181C2591.3,469.1,2633,469.1,2649.7,440.1Z" fill="#b0b3b6" stroke="#0e1823" stroke-width="3.914"/>
          <path id="Path_704" data-name="Path 704" d="M2649.4,440.2,2754,259.1c16.7-28.9-4.2-65.1-37.6-65.1H2507.2c-33.4,0-54.3,36.2-37.6,65.1l104.6,181.2C2590.9,469.2,2632.7,469.2,2649.4,440.2Z" fill="#b1b4b8" stroke="#0e1823" stroke-width="3.915"/>
          <path id="Path_705" data-name="Path 705" d="M2649.1,440.3,2753.7,259c16.7-29-4.2-65.2-37.6-65.2H2506.7c-33.4,0-54.4,36.2-37.6,65.2l104.7,181.3C2590.5,469.3,2632.3,469.3,2649.1,440.3Z" fill="#b3b6b9" stroke="#0e1823" stroke-width="3.917"/>
          <path id="Path_706" data-name="Path 706" d="M2648.7,440.4l104.8-181.5c16.7-29-4.2-65.2-37.7-65.2H2506.2c-33.5,0-54.4,36.2-37.7,65.2l104.8,181.5C2590.2,469.4,2632,469.4,2648.7,440.4Z" fill="#b4b7bb" stroke="#0e1823" stroke-width="3.919"/>
          <path id="Path_707" data-name="Path 707" d="M2648.4,440.5l104.9-181.6c16.8-29-4.2-65.3-37.7-65.3H2505.9c-33.5,0-54.4,36.3-37.7,65.3L2573,440.5C2589.8,469.5,2631.7,469.5,2648.4,440.5Z" fill="#b6b9bc" stroke="#0e1823" stroke-width="3.92"/>
          <path id="Path_708" data-name="Path 708" d="M2648.1,440.6l105-181.8c16.8-29-4.2-65.3-37.7-65.3H2505.5c-33.5,0-54.5,36.3-37.7,65.3l105,181.8C2589.4,469.7,2631.3,469.7,2648.1,440.6Z" fill="#b7babd" stroke="#0e1823" stroke-width="3.922"/>
          <path id="Path_709" data-name="Path 709" d="M2647.8,440.7l105-181.9c16.8-29.1-4.2-65.4-37.8-65.4H2505c-33.6,0-54.5,36.3-37.8,65.4l105,181.9C2589,469.8,2631,469.8,2647.8,440.7Z" fill="#b9bcbf" stroke="#0e1823" stroke-width="3.924"/>
          <path id="Path_710" data-name="Path 710" d="M2647.5,440.8l105.1-182.1c16.8-29.1-4.2-65.5-37.8-65.5H2504.5c-33.6,0-54.6,36.4-37.8,65.5l105.1,182.1C2588.7,469.9,2630.7,469.9,2647.5,440.8Z" fill="#bbbec0" stroke="#0e1823" stroke-width="3.926"/>
          <path id="Path_711" data-name="Path 711" d="M2647.1,440.9l105.2-182.3c16.8-29.1-4.2-65.5-37.8-65.5H2504c-33.6,0-54.6,36.4-37.8,65.5l105.2,182.3C2588.3,470,2630.3,470,2647.1,440.9Z" fill="#bcbfc2" stroke="#0e1823" stroke-width="3.927"/>
          <path id="Path_712" data-name="Path 712" d="M2646.8,441l105.3-182.4c16.8-29.1-4.2-65.6-37.9-65.6H2503.6c-33.7,0-54.7,36.4-37.9,65.6L2571.1,441C2587.9,470.1,2630,470.1,2646.8,441Z" fill="#bec1c3" stroke="#0e1823" stroke-width="3.929"/>
          <path id="Path_713" data-name="Path 713" d="M2646.5,441.1l105.4-182.6c16.8-29.2-4.2-65.6-37.9-65.6H2503.2c-33.7,0-54.7,36.5-37.9,65.6l105.4,182.6C2587.6,470.3,2629.7,470.3,2646.5,441.1Z" fill="#bfc2c5" stroke="#0e1823" stroke-width="3.931"/>
          <path id="Path_714" data-name="Path 714" d="M2646.2,441.2l105.5-182.7c16.9-29.2-4.2-65.7-37.9-65.7h-211c-33.7,0-54.8,36.5-37.9,65.7l105.5,182.7C2587.2,470.4,2629.3,470.4,2646.2,441.2Z" fill="#c1c4c6" stroke="#0e1823" stroke-width="3.932"/>
          <path id="Path_715" data-name="Path 715" d="M2645.9,441.3l105.6-182.9c16.9-29.2-4.2-65.7-38-65.7H2502.3c-33.7,0-54.8,36.5-38,65.7L2570,441.3C2586.8,470.5,2629,470.5,2645.9,441.3Z" fill="#c3c5c8" stroke="#0e1823" stroke-width="3.934"/>
          <path id="Path_716" data-name="Path 716" d="M2645.6,441.4l105.7-183c16.9-29.2-4.2-65.8-38-65.8H2501.9c-33.8,0-54.9,36.6-38,65.8l105.7,183C2586.5,470.6,2628.7,470.6,2645.6,441.4Z" fill="#c4c7c9" stroke="#0e1823" stroke-width="3.936"/>
          <path id="Path_717" data-name="Path 717" d="M2645.2,441.5,2751,258.3c16.9-29.3-4.2-65.9-38-65.9H2501.5c-33.8,0-54.9,36.6-38,65.9l105.8,183.2C2586.1,470.7,2628.3,470.7,2645.2,441.5Z" fill="#c6c8cb" stroke="#0e1823" stroke-width="3.938"/>
          <path id="Path_718" data-name="Path 718" d="M2644.9,441.6l105.9-183.4c16.9-29.3-4.2-65.9-38.1-65.9H2501c-33.8,0-55,36.6-38.1,65.9l105.9,183.4C2585.7,470.9,2628,470.9,2644.9,441.6Z" fill="#c7cacc" stroke="#0e1823" stroke-width="3.939"/>
          <path id="Path_719" data-name="Path 719" d="M2644.6,441.7l105.9-183.5c16.9-29.3-4.2-66-38.1-66H2500.5c-33.9,0-55,36.6-38.1,66l105.9,183.5C2585.4,471,2627.7,471,2644.6,441.7Z" fill="#c9cbcd" stroke="#0e1823" stroke-width="3.941"/>
          <path id="Path_720" data-name="Path 720" d="M2644.3,441.8l106-183.7c16.9-29.3-4.2-66-38.1-66H2500.1c-33.9,0-55.1,36.7-38.1,66l106,183.7C2585,471.1,2627.4,471.1,2644.3,441.8Z" fill="#cbcdcf" stroke="#0e1823" stroke-width="3.943"/>
          <path id="Path_721" data-name="Path 721" d="M2644,441.8,2750.1,258c17-29.4-4.2-66.1-38.1-66.1H2499.7c-33.9,0-55.1,36.7-38.1,66.1l106.1,183.8C2584.6,471.2,2627,471.2,2644,441.8Z" fill="#ccced0" stroke="#0e1823" stroke-width="3.945"/>
          <path id="Path_722" data-name="Path 722" d="M2643.7,441.9l106.2-184c17-29.4-4.2-66.1-38.2-66.1H2499.3c-33.9,0-55.2,36.7-38.2,66.1l106.2,184C2584.3,471.3,2626.7,471.3,2643.7,441.9Z" fill="#ced0d2" stroke="#0e1823" stroke-width="3.946"/>
          <path id="Path_723" data-name="Path 723" d="M2643.3,442l106.3-184.1c17-29.4-4.2-66.2-38.2-66.2H2498.8c-34,0-55.2,36.8-38.2,66.2L2566.9,442C2583.9,471.5,2626.4,471.5,2643.3,442Z" fill="#cfd1d3" stroke="#0e1823" stroke-width="3.948"/>
          <path id="Path_724" data-name="Path 724" d="M2643,442.1l106.4-184.3c17-29.4-4.2-66.2-38.2-66.2H2498.4c-34,0-55.2,36.8-38.2,66.2l106.4,184.3C2583.5,471.6,2626,471.6,2643,442.1Z" fill="#d1d3d5" stroke="#0e1823" stroke-width="3.95"/>
          <path id="Path_725" data-name="Path 725" d="M2642.7,442.2l106.5-184.4c17-29.5-4.3-66.3-38.3-66.3h-213c-34,0-55.3,36.8-38.3,66.3l106.5,184.4C2583.2,471.7,2625.7,471.7,2642.7,442.2Z" fill="#d2d4d6" stroke="#0e1823" stroke-width="3.951"/>
          <path id="Path_726" data-name="Path 726" d="M2642.4,442.3,2749,257.7c17-29.5-4.3-66.4-38.3-66.4H2497.5c-34.1,0-55.3,36.9-38.3,66.4l106.6,184.6C2582.8,471.8,2625.4,471.8,2642.4,442.3Z" fill="#d4d6d8" stroke="#0e1823" stroke-width="3.953"/>
          <path id="Path_727" data-name="Path 727" d="M2642.1,442.4l106.7-184.8c17-29.5-4.3-66.4-38.3-66.4H2497.2c-34.1,0-55.4,36.9-38.3,66.4l106.7,184.8C2582.4,471.9,2625,471.9,2642.1,442.4Z" fill="#d6d7d9" stroke="#0e1823" stroke-width="3.955"/>
          <path id="Path_728" data-name="Path 728" d="M2641.8,442.5l106.8-184.9c17.1-29.5-4.3-66.5-38.4-66.5H2496.7c-34.1,0-55.4,36.9-38.4,66.5L2565,442.5C2582.1,472.1,2624.7,472.1,2641.8,442.5Z" fill="#d7d9db" stroke="#0e1823" stroke-width="3.957"/>
          <path id="Path_729" data-name="Path 729" d="M2641.4,442.6l106.9-185.1c17.1-29.6-4.3-66.5-38.4-66.5H2496.2c-34.1,0-55.5,37-38.4,66.5l106.9,185.1C2581.7,472.2,2624.4,472.2,2641.4,442.6Z" fill="#d9dadc" stroke="#0e1823" stroke-width="3.958"/>
          <path id="Path_730" data-name="Path 730" d="M2641.1,442.7,2748,257.5c17.1-29.6-4.3-66.6-38.4-66.6H2495.7c-34.2,0-55.5,37-38.4,66.6l106.9,185.2C2581.3,472.3,2624,472.3,2641.1,442.7Z" fill="#dadcdd" stroke="#0e1823" stroke-width="3.96"/>
          <path id="Path_731" data-name="Path 731" d="M2640.8,442.8l107-185.4c17.1-29.6-4.3-66.6-38.5-66.6H2495.2c-34.2,0-55.6,37-38.5,66.6l107,185.4C2581,472.4,2623.7,472.4,2640.8,442.8Z" fill="#dcdddf" stroke="#0e1823" stroke-width="3.962"/>
          <path id="Path_732" data-name="Path 732" d="M2640.5,442.9l107.1-185.5c17.1-29.6-4.3-66.7-38.5-66.7H2494.9c-34.2,0-55.6,37.1-38.5,66.7l107.1,185.5C2580.6,472.5,2623.4,472.5,2640.5,442.9Z" fill="#dedfe0" stroke="#0e1823" stroke-width="3.964"/>
          <path id="Path_733" data-name="Path 733" d="M2640.2,443l107.2-185.7c17.1-29.7-4.3-66.7-38.5-66.7H2494.5c-34.3,0-55.7,37.1-38.5,66.7L2563.1,443C2580.2,472.7,2623,472.7,2640.2,443Z" fill="#dfe1e2" stroke="#0e1823" stroke-width="3.965"/>
          <path id="Path_734" data-name="Path 734" d="M2639.8,443.1l107.3-185.9c17.1-29.7-4.3-66.8-38.6-66.8H2494c-34.3,0-55.7,37.1-38.6,66.8l107.3,185.9C2579.8,472.8,2622.7,472.8,2639.8,443.1Z" fill="#e1e2e3" stroke="#0e1823" stroke-width="3.967"/>
          <path id="Path_735" data-name="Path 735" d="M2639.5,443.2l107.4-186c17.2-29.7-4.3-66.9-38.6-66.9H2493.5c-34.3,0-55.8,37.1-38.6,66.9l107.4,186C2579.5,472.9,2622.4,472.9,2639.5,443.2Z" fill="#e2e4e5" stroke="#0e1823" stroke-width="3.969"/>
          <path id="Path_736" data-name="Path 736" d="M2639.2,443.3l107.5-186.2c17.2-29.7-4.3-66.9-38.6-66.9h-215c-34.3,0-55.8,37.2-38.6,66.9L2562,443.3C2579.1,473,2622,473,2639.2,443.3Z" fill="#e4e5e6" stroke="#0e1823" stroke-width="3.971"/>
          <path id="Path_737" data-name="Path 737" d="M2638.9,443.4,2746.5,257c17.2-29.8-4.3-67-38.7-67H2492.7c-34.4,0-55.9,37.2-38.7,67l107.6,186.3C2578.7,473.1,2621.7,473.1,2638.9,443.4Z" fill="#e6e7e8" stroke="#0e1823" stroke-width="3.972"/>
          <path id="Path_738" data-name="Path 738" d="M2638.6,443.5,2746.2,257c17.2-29.8-4.3-67-38.7-67H2492.2c-34.4,0-55.9,37.2-38.7,67l107.7,186.5C2578.4,473.3,2621.4,473.3,2638.6,443.5Z" fill="#e7e8e9" stroke="#0e1823" stroke-width="3.974"/>
          <path id="Path_739" data-name="Path 739" d="M2638.3,443.6,2746,256.9c17.2-29.8-4.3-67.1-38.7-67.1H2491.8c-34.4,0-55.9,37.3-38.7,67.1l107.8,186.6C2578,473.4,2621,473.4,2638.3,443.6Z" fill="#e9eaeb" stroke="#0e1823" stroke-width="3.976"/>
          <path id="Path_740" data-name="Path 740" d="M2637.9,443.7l107.8-186.8c17.2-29.8-4.3-67.1-38.8-67.1H2491.2c-34.5,0-56,37.3-38.8,67.1l107.8,186.8C2577.6,473.5,2620.7,473.5,2637.9,443.7Z" fill="#eaebec" stroke="#0e1823" stroke-width="3.977"/>
          <path id="Path_741" data-name="Path 741" d="M2637.6,443.7l107.9-186.9c17.2-29.9-4.3-67.2-38.8-67.2H2490.8c-34.5,0-56,37.3-38.8,67.2l108,186.9C2577.3,473.6,2620.4,473.6,2637.6,443.7Z" fill="#ecedee" stroke="#0e1823" stroke-width="3.979"/>
          <path id="Path_742" data-name="Path 742" d="M2637.3,443.8l108-187.1c17.3-29.9-4.3-67.3-38.8-67.3h-216c-34.5,0-56.1,37.4-38.8,67.3l108,187.1C2576.9,473.7,2620,473.7,2637.3,443.8Z" fill="#eeeeef" stroke="#0e1823" stroke-width="3.981"/>
          <path id="Path_743" data-name="Path 743" d="M2637,443.9l108.1-187.3c17.3-29.9-4.3-67.3-38.9-67.3H2490c-34.5,0-56.1,37.4-38.9,67.3l108.1,187.3C2576.5,473.9,2619.7,473.9,2637,443.9Z" fill="#eff0f0" stroke="#0e1823" stroke-width="3.983"/>
          <path id="Path_744" data-name="Path 744" d="M2636.7,444l108.2-187.4c17.3-29.9-4.3-67.4-38.9-67.4H2489.6c-34.6,0-56.2,37.4-38.9,67.4L2558.9,444C2576.2,474,2619.4,474,2636.7,444Z" fill="#f1f1f2" stroke="#0e1823" stroke-width="3.984"/>
          <path id="Path_745" data-name="Path 745" d="M2636.4,444.1l108.3-187.6c17.3-30-4.3-67.4-38.9-67.4H2489.2c-34.6,0-56.2,37.5-38.9,67.4l108.3,187.6C2575.8,474.1,2619.1,474.1,2636.4,444.1Z" fill="#f2f3f3" stroke="#0e1823" stroke-width="3.986"/>
          <path id="Path_746" data-name="Path 746" d="M2636,444.2l108.4-187.7c17.3-30-4.3-67.5-39-67.5H2488.6c-34.6,0-56.3,37.5-39,67.5L2558,444.2C2575.4,474.2,2618.7,474.2,2636,444.2Z" fill="#f4f4f5" stroke="#0e1823" stroke-width="3.988"/>
          <path id="Path_747" data-name="Path 747" d="M2635.7,444.3l108.5-187.9c17.3-30-4.3-67.5-39-67.5H2488.3c-34.7,0-56.3,37.5-39,67.5l108.5,187.9C2575.1,474.3,2618.4,474.3,2635.7,444.3Z" fill="#f5f6f6" stroke="#0e1823" stroke-width="3.99"/>
          <path id="Path_748" data-name="Path 748" d="M2635.4,444.4l108.6-188c17.3-30-4.3-67.6-39-67.6H2487.9c-34.7,0-56.4,37.6-39,67.6l108.6,188C2574.7,474.5,2618.1,474.5,2635.4,444.4Z" fill="#f7f7f8" stroke="#0e1823" stroke-width="3.991"/>
          <path id="Path_749" data-name="Path 749" d="M2635.1,444.5l108.7-188.2c17.4-30.1-4.3-67.6-39.1-67.6H2487.4c-34.7,0-56.4,37.6-39.1,67.6L2557,444.5C2574.3,474.6,2617.7,474.6,2635.1,444.5Z" fill="#f9f9f9" stroke="#0e1823" stroke-width="3.993"/>
          <path id="Path_750" data-name="Path 750" d="M2634.8,444.6l108.7-188.3c17.4-30.1-4.3-67.7-39.1-67.7H2486.9c-34.7,0-56.5,37.6-39.1,67.7l108.7,188.3C2574,474.7,2617.4,474.7,2634.8,444.6Z" fill="#fafafb" stroke="#0e1823" stroke-width="3.995"/>
          <path id="Path_751" data-name="Path 751" d="M2634.4,444.7l108.8-188.5c17.4-30.1-4.3-67.8-39.1-67.8H2486.4c-34.8,0-56.5,37.6-39.1,67.8l108.8,188.5C2573.6,474.8,2617.1,474.8,2634.4,444.7Z" fill="#fcfcfc" stroke="#0e1823" stroke-width="3.997"/>
          <path id="Path_752" data-name="Path 752" d="M2634.1,444.8,2743,256.1c17.4-30.1-4.4-67.8-39.2-67.8H2486c-34.8,0-56.6,37.7-39.2,67.8l108.9,188.7C2573.2,474.9,2616.7,474.9,2634.1,444.8Z" fill="#fdfdfe" stroke="#0e1823" stroke-width="3.998"/>
          <path id="Path_753" data-name="Path 753" d="M2633.8,444.9l109-188.8c17.4-30.2-4.4-67.9-39.2-67.9h-218c-34.8,0-56.6,37.7-39.2,67.9l109,188.8C2572.9,475.1,2616.4,475.1,2633.8,444.9Z" fill="#fff" stroke="#0e1823" stroke-width="4"/>
        </g>
      </g>
      <path id="Path_754" data-name="Path 754" d="M2633.8,444.9l109-188.8c17.4-30.2-4.4-67.9-39.2-67.9h-218c-34.8,0-56.6,37.7-39.2,67.9l109,188.8C2572.9,475.1,2616.4,475.1,2633.8,444.9Z" fill="#fff" stroke="#0f1923" stroke-width="4"/>
      <path id="Path_755" data-name="Path 755" d="M2594.6,223.2h0a2.862,2.862,0,0,1-2.8-2.8h0a2.862,2.862,0,0,1,2.8-2.8h0a2.862,2.862,0,0,1,2.8,2.8h0A2.734,2.734,0,0,1,2594.6,223.2Z" fill="#fff" stroke="#0e1823" stroke-width="4"/>
      <g id="Group_231" data-name="Group 231">
        <path id="Path_756" data-name="Path 756" d="M2650.9,319.1H2538.4a4.225,4.225,0,0,1-4.2-4.2h0a4.225,4.225,0,0,1,4.2-4.2h112.5a4.225,4.225,0,0,1,4.2,4.2h0A4.225,4.225,0,0,1,2650.9,319.1Z" fill="#0f1923"/>
      </g>
      <g id="Group_237" data-name="Group 237">
        <g id="Group_232" data-name="Group 232">
          <line id="Line_3" data-name="Line 3" x2="64.3" transform="translate(2574.7 392.1)" fill="none" stroke="#0f1923" stroke-linecap="round" stroke-linejoin="round" stroke-width="3.582"/>
          <path id="Path_757" data-name="Path 757" d="M2598.1,396.1h-11.3a4.012,4.012,0,0,1-4-4h0a4.012,4.012,0,0,1,4-4h11.3a4.012,4.012,0,0,1,4,4h0A4.078,4.078,0,0,1,2598.1,396.1Z" fill="#0f1923" stroke="#0f1923" stroke-linecap="round" stroke-linejoin="round" stroke-width="1.791"/>
        </g>
        <g id="Group_233" data-name="Group 233">
          <line id="Line_4" data-name="Line 4" x2="64.3" transform="translate(2574.7 370.5)" fill="none" stroke="#0f1923" stroke-linecap="round" stroke-linejoin="round" stroke-width="3.582"/>
          <path id="Path_758" data-name="Path 758" d="M2627.3,374.5H2616a4.012,4.012,0,0,1-4-4h0a4.012,4.012,0,0,1,4-4h11.3a4.012,4.012,0,0,1,4,4h0A4.078,4.078,0,0,1,2627.3,374.5Z" fill="#0f1923" stroke="#0f1923" stroke-linecap="round" stroke-linejoin="round" stroke-width="1.791"/>
        </g>
        <g id="Group_236" data-name="Group 236">
          <path id="Path_759" data-name="Path 759" d="M2555.7,396.1h0a5.377,5.377,0,0,1-5.4-5.4V372a5.377,5.377,0,0,1,5.4-5.4h0a5.377,5.377,0,0,1,5.4,5.4v18.7A5.442,5.442,0,0,1,2555.7,396.1Z" fill="#0f1923" stroke="#0f1923" stroke-width="3.211"/>
          <g id="Group_235" data-name="Group 235">
            <g id="Group_234" data-name="Group 234" transform="translate(2551.1 363)" clip-path="url(#clip-path-2)">
              <rect id="Rectangle_15" data-name="Rectangle 15" width="2.4" height="34" fill="#fff"/>
            </g>
          </g>
        </g>
      </g>
      <g id="Group_241" data-name="Group 241">
        <g id="Group_239" data-name="Group 239">
          <path id="Path_761" data-name="Path 761" d="M2642.3,286.9H2539.2a14.084,14.084,0,0,1-14.1-14.1v-23a14.084,14.084,0,0,1,14.1-14.1h103.1a14.084,14.084,0,0,1,14.1,14.1v23A14.213,14.213,0,0,1,2642.3,286.9Z" fill="#fff" stroke="#0f1923" stroke-width="3"/>
          <g id="Group_238" data-name="Group 238">
            <path id="Path_762" data-name="Path 762" d="M2650,286.9H2546.9a14.084,14.084,0,0,1-14.1-14.1v-23a14.084,14.084,0,0,1,14.1-14.1H2650a14.084,14.084,0,0,1,14.1,14.1v23A14.084,14.084,0,0,1,2650,286.9Z" fill="#0f1923" stroke="#0f1923" stroke-width="3"/>
          </g>
        </g>
        <g id="Group_240" data-name="Group 240">
          <path id="Path_763" data-name="Path 763" d="M2575.3,272h-.8a5.014,5.014,0,0,1-5-5V255.7a5.015,5.015,0,0,1,5-5h.8a5.014,5.014,0,0,1,5,5V267A4.891,4.891,0,0,1,2575.3,272Z" fill="#fff"/>
          <path id="Path_764" data-name="Path 764" d="M2622.4,272h-.8a5.014,5.014,0,0,1-5-5V255.7a5.015,5.015,0,0,1,5-5h.8a5.014,5.014,0,0,1,5,5V267A4.891,4.891,0,0,1,2622.4,272Z" fill="#fff"/>
        </g>
      </g>
      <text id="COCO" transform="translate(2572.304 457.523)" fill="#fff" stroke="#fff" stroke-width="2" font-size="19" font-family="BungeeHairline-Regular, Bungee Hairline"><tspan x="0" y="0">COCO</tspan></text>
      <g id="Group_242" data-name="Group 242">
        <path id="Path_765" data-name="Path 765" d="M2584.1,418.9v.2h-3.2a3.474,3.474,0,0,1-2.4-.6,2.546,2.546,0,0,1-.6-1.9v-5.3a2.545,2.545,0,0,1,.6-1.9,3.474,3.474,0,0,1,2.4-.6h3.2v.2h-3.2a4.106,4.106,0,0,0-2.3.5,2.157,2.157,0,0,0-.6,1.8v5.3a2.059,2.059,0,0,0,.6,1.7,3.876,3.876,0,0,0,2.3.5h3.2Z" fill="#fff" stroke="#fff" stroke-width="2"/>
        <path id="Path_766" data-name="Path 766" d="M2595.5,416.7a2.56,2.56,0,0,1-.8,1.9,6.778,6.778,0,0,1-6,0,2.56,2.56,0,0,1-.8-1.9v-5.6a2.56,2.56,0,0,1,.8-1.9c.5-.5,1.5-.7,3-.7s2.5.2,3,.7a2.56,2.56,0,0,1,.8,1.9Zm-7.5,0a2.136,2.136,0,0,0,.8,1.7,4.875,4.875,0,0,0,2.9.7,4.241,4.241,0,0,0,2.9-.7,2.136,2.136,0,0,0,.8-1.7v-5.6a2.136,2.136,0,0,0-.8-1.7,4.875,4.875,0,0,0-2.9-.7,4.241,4.241,0,0,0-2.9.7,2.136,2.136,0,0,0-.8,1.7Z" fill="#fff" stroke="#fff" stroke-width="2"/>
        <path id="Path_767" data-name="Path 767" d="M2584.1,435.9v.2h-3.2a3.474,3.474,0,0,1-2.4-.6,2.546,2.546,0,0,1-.6-1.9v-5.3a2.545,2.545,0,0,1,.6-1.9,3.474,3.474,0,0,1,2.4-.6h3.2v.2h-3.2a4.106,4.106,0,0,0-2.3.5,2.157,2.157,0,0,0-.6,1.8v5.3a2.059,2.059,0,0,0,.6,1.7,3.876,3.876,0,0,0,2.3.5h3.2Z" fill="#fff" stroke="#fff" stroke-width="2"/>
        <path id="Path_768" data-name="Path 768" d="M2595.5,433.7a2.56,2.56,0,0,1-.8,1.9,6.778,6.778,0,0,1-6,0,2.56,2.56,0,0,1-.8-1.9v-5.6a2.56,2.56,0,0,1,.8-1.9c.5-.5,1.5-.7,3-.7s2.5.2,3,.7a2.56,2.56,0,0,1,.8,1.9Zm-7.5,0a2.136,2.136,0,0,0,.8,1.7,4.875,4.875,0,0,0,2.9.7,4.241,4.241,0,0,0,2.9-.7,2.136,2.136,0,0,0,.8-1.7v-5.6a2.136,2.136,0,0,0-.8-1.7,4.875,4.875,0,0,0-2.9-.7,4.241,4.241,0,0,0-2.9.7,2.136,2.136,0,0,0-.8,1.7Z" fill="#fff" stroke="#fff" stroke-width="2"/>
      </g>
    </g>
  </g>
</svg>
