<?xml version="1.0" encoding="UTF-8"?>
<svg width="160px" height="173px" viewBox="0 0 160 173" version="1.1" xmlns="http://www.w3.org/2000/svg" xmlns:xlink="http://www.w3.org/1999/xlink">
    <!-- Generator: Sketch 55.2 (78181) - https://sketchapp.com -->
    <g id="Group" stroke="none" stroke-width="1" fill="none" fill-rule="evenodd">
        <g id="Group" transform="translate(-572.000000, -402.000000)">
            <g id="Group" transform="translate(328.000000, 297.000000)">
                <g id="Group" transform="translate(202.200000, 0.200000)">
                    <g id="Group" transform="translate(43.800000, 100.800000)">
                        <path d="M41.4,6.9 C41.4,6.9 49.6,10 52.8,23.6" id="Path" stroke="rgba(255, 255, 255, 0.9)"></path>
                        <path d="M34,8.6 C34,8.6 31.8,14.2 40.3,28.2" id="Path" stroke="rgba(255, 255, 255, 0.9)"></path>
                        <path d="M122.9,10 C122.9,10 124.1,16 116.1,28.4" id="Path" stroke="rgba(255, 255, 255, 0.9)"></path>
                        <path d="M115.9,7.1 C115.9,7.1 107.4,10.5 104.5,23.3" id="Path" stroke="rgba(255, 255, 255, 0.9)"></path>
                        <path d="M128.9,16.7 C128.9,16.7 129.6,26.1 124.1,33.4" id="Path" stroke="rgba(255, 255, 255, 0.9)"></path>
                        <path d="M29.6,13 C29.6,13 25.9,22.6 32.4,33" id="Path" stroke="rgba(255, 255, 255, 0.9)"></path>
                        <g transform="translate(46.000000, 128.000000)" id="Path" stroke="rgba(255, 255, 255, 0.9)" stroke-width="2">
                            <path d="M65.2,5.7 L3.3,5.7 C1.9,5.7 0.7,4.5 0.7,3.1 L0.7,3.1 C0.7,1.7 1.9,0.5 3.3,0.5 L65.2,0.5 C66.6,0.5 67.8,1.7 67.8,3.1 L67.8,3.1 C67.8,4.5 66.6,5.7 65.2,5.7 Z" fill="rgba(255, 255, 255, 0.9)" fill-rule="nonzero"></path>
                            <path d="M65.2,16.7 L3.3,16.7 C1.9,16.7 0.7,15.5 0.7,14.1 L0.7,14.1 C0.7,12.7 1.9,11.5 3.3,11.5 L65.2,11.5 C66.6,11.5 67.8,12.7 67.8,14.1 L67.8,14.1 C67.8,15.6 66.6,16.7 65.2,16.7 Z"></path>
                        </g>
                        <path d="M120.9,52.3 L34.8,52.3 C28.6,52.3 23.6,57.3 23.6,63.5 L23.6,100.4 C23.6,106.6 28.6,111.6 34.8,111.6 L120.9,111.6 C127.1,111.6 132.1,106.6 132.1,100.4 L132.1,63.5 C132.1,57.4 127.1,52.3 120.9,52.3 Z" id="Path" stroke="rgba(255, 255, 255, 0.9)" stroke-width="3"></path>
                        <g transform="translate(91.000000, 65.000000)" fill="rgba(255, 255, 255, 0.9)" fill-rule="nonzero">
                            <path d="M17.3,0.5 C8.2,0.5 0.8,7.9 0.8,17 C0.8,26.1 8.2,33.5 17.3,33.5 C26.4,33.5 33.8,26.1 33.8,17 C33.8,7.9 26.4,0.5 17.3,0.5 Z M17.3,25.9 C12.4,25.9 8.4,21.9 8.4,17 C8.4,12.1 12.4,8.1 17.3,8.1 C22.2,8.1 26.2,12.1 26.2,17 C26.2,21.9 22.2,25.9 17.3,25.9 Z" id="Shape"></path>
                            <path d="M17.3,11.5 C14.3,11.5 11.8,14 11.8,17 C11.8,20 14.3,22.5 17.3,22.5 C20.3,22.5 22.8,20 22.8,17 C22.8,14 20.4,11.5 17.3,11.5 Z M17.3,21.1 C15,21.1 13.1,19.2 13.1,16.9 C13.1,14.6 15,12.7 17.3,12.7 C19.6,12.7 21.5,14.6 21.5,16.9 C21.5,19.2 19.7,21.1 17.3,21.1 Z" id="Shape"></path>
                            <circle id="Oval" cx="17.3" cy="13.4" r="2.6"></circle>
                        </g>
                        <path d="M79.1,82 C79.1,82.4 78.7,82.8 78.3,82.8 L69.6,82.8 C69.2,82.8 68.8,82.4 68.8,82 C68.8,81.6 69.2,81.2 69.6,81.2 L78.3,81.2 C78.8,81.2 79.1,81.5 79.1,82 Z M55,68.2 C55.4,68.2 55.8,67.8 55.8,67.4 L55.8,58.7 C55.8,58.3 55.4,57.9 55,57.9 C54.6,57.9 54.2,58.3 54.2,58.7 L54.2,67.4 C54.2,67.8 54.6,68.2 55,68.2 Z M41.2,82 C41.2,81.6 40.8,81.2 40.4,81.2 L31.7,81.2 C31.3,81.2 30.9,81.6 30.9,82 C30.9,82.4 31.3,82.8 31.7,82.8 L40.4,82.8 C40.9,82.8 41.2,82.4 41.2,82 Z M55,78.5 C53.1,78.5 51.5,80.1 51.5,82 C51.5,83.9 53.1,85.5 55,85.5 C56.9,85.5 58.5,83.9 58.5,82 C58.5,80 57,78.5 55,78.5 L55,78.5 Z M65,82 C65,87.5 60.5,92 55,92 C49.5,92 45,87.5 45,82 C45,76.5 49.5,72 55,72 L55,72 C60.5,72 65,76.5 65,82 Z M60.2,82 C60.2,79.2 57.9,76.9 55.1,76.9 C52.3,76.9 50,79.2 50,82 C50,84.8 52.3,87.1 55.1,87.1 L55.1,87.1 C57.9,87.1 60.2,84.8 60.2,82 L60.2,82 Z M69.6,84.4 L71.3,84.4 C70.2,91.6 64.6,97.2 57.4,98.3 L57.4,96.6 C57.4,95.3 56.3,94.2 55,94.2 C53.7,94.2 52.6,95.3 52.6,96.6 L52.6,98.3 C45.4,97.2 39.8,91.6 38.7,84.4 L40.4,84.4 C41.7,84.4 42.8,83.3 42.8,82 C42.8,80.7 41.7,79.6 40.4,79.6 L38.7,79.6 C39.8,72.4 45.4,66.8 52.6,65.7 L52.6,67.4 C52.6,68.7 53.7,69.8 55,69.8 C56.3,69.8 57.4,68.7 57.4,67.4 L57.4,65.7 C64.6,66.8 70.2,72.4 71.3,79.6 L69.6,79.6 C68.3,79.6 67.2,80.7 67.2,82 C67.2,83.3 68.3,84.4 69.6,84.4 Z M66.6,82 C66.6,75.6 61.4,70.4 55,70.4 C48.6,70.4 43.4,75.6 43.4,82 C43.4,88.4 48.6,93.6 55,93.6 L55,93.6 C61.4,93.6 66.6,88.4 66.6,82 L66.6,82 Z M55,95.8 C54.6,95.8 54.2,96.2 54.2,96.6 L54.2,105.3 C54.2,105.7 54.6,106.1 55,106.1 C55.4,106.1 55.8,105.7 55.8,105.3 L55.8,96.6 C55.8,96.1 55.5,95.8 55,95.8 Z" id="Shape" fill="rgba(255, 255, 255, 0.9)" fill-rule="nonzero"></path>
                        <circle id="Oval" stroke="rgba(255, 255, 255, 0.9)" stroke-width="4" cx="77.8" cy="97" r="77.5"></circle>
                        <g transform="translate(23.000000, 0.000000)" id="Oval" stroke="rgba(255, 255, 255, 0.9)">
                            <circle stroke-width="4" cx="19.2" cy="25.2" r="18.4"></circle>
                            <circle stroke-width="3.9998784" transform="translate(90.481840, 25.201980) rotate(-26.565051) translate(-90.481840, -25.201980) " cx="90.48184" cy="25.20198" r="18.3994406"></circle>
                        </g>
                    </g>
                </g>
            </g>
        </g>
    </g>
</svg>